<!DOCTYPE svg PUBLIC "-//W3C//DTD SVG 1.1//EN" "http://www.w3.org/Graphics/SVG/1.1/DTD/svg11.dtd">
<!-- Uploaded to: SVG Repo, www.svgrepo.com, Transformed by: SVG Repo Mixer Tools -->
<svg width="800px" height="800px" viewBox="0 0 24 24" fill="none" xmlns="http://www.w3.org/2000/svg">
<g id="SVGRepo_bgCarrier" stroke-width="0"/>
<g id="SVGRepo_tracerCarrier" stroke-linecap="round" stroke-linejoin="round"/>
<g id="SVGRepo_iconCarrier">
<path d="M3 12H4M20 12V12C20.5523 12 21 11.5523 21 11V7C21 6 20.4 4 18 4C15.6 4 15 6 15 7M20 12V14C20 15.1383 19.4169 17.2484 17.2551 17.8414M20 12H4M4 12V14C4 15.1383 4.58309 17.2484 6.74487 17.8414M6 20L6.74487 17.8414M6.74487 17.8414C7.11524 17.943 7.53195 18 8 18C11.2 18 14.6667 18 16 18C16.4681 18 16.8848 17.9429 17.2551 17.8414M18 20L17.2551 17.8414M15 7H13M15 7H17" stroke="#5ebc67" stroke-linecap="round" stroke-linejoin="round" stroke-width="2"/>
</g>
</svg>