<svg width="281" height="220" viewBox="0 0 281 220" fill="none" xmlns="http://www.w3.org/2000/svg">
<g clip-path="url(#clip0_215_5340)">
<path d="M82.3302 159.27H248.2V158.3H246.72V91.23H247.52V89.41H249.16V87.6L246.72 79.49H246.67V44.4V43.03H247.76V42.52L249.16 43.05V40.4L208.69 25.06L173.9 38.22L168.6 36.21L137.37 48.03V49.95H137.67L140.53 48.87V50.44H142.17V73.87L81.2202 92.46V93.65H82.3302V159.27Z" fill="#F9F7F2"/>
<path d="M281 61.13V159.27H244.68V79.8H242.82V77.42L239.57 79.06H239.24V76.15L274.6 58.3L280.6 61.33L281 61.13Z" fill="#F9F7F2"/>
<path d="M81.08 64.62V68.62L79.5 67.83V68.6H78.25V159.27H0.5V59L35.26 41.44L81.08 64.62Z" fill="#F9F7F2"/>
<path d="M106.69 63.18V41.16H121.53V52.43L106.69 63.18Z" fill="white"/>
<path d="M106.69 63.18V41.16H121.53V52.43L106.69 63.18Z" fill="white"/>
<path d="M121.53 51.72V52.43L106.69 63.18V51.72H121.53Z" fill="#D8C497"/>
<path d="M118.421 45.6987H119.581V43.0187H118.421V45.6987Z" fill="#0F3554"/>
<path d="M115.165 45.6987H116.325V43.0187H115.165V45.6987Z" fill="#0F3554"/>
<path d="M111.9 45.6987H113.06V43.0187H111.9V45.6987Z" fill="#0F3554"/>
<path d="M108.635 45.6987H109.795V43.0187H108.635V45.6987Z" fill="#0F3554"/>
<path d="M222.4 155.43H241.27C241 154.45 240.32 153.68 239.54 153.33C238.7 152.95 237.76 153.01 236.9 153.29C237.06 153.24 237.27 152.91 237.38 152.77C237.65 152.44 237.86 152.09 237.92 151.63C237.99 151.12 237.86 150.6 237.58 150.2C237.12 149.52 236.31 149.28 235.58 149.37C235.54 149.37 235.51 149.38 235.47 149.39C235.33 149.41 235.19 149.46 235.06 149.51C234.48 149.77 233.97 150.22 233.53 150.72C233.45 150.81 233.37 150.91 233.29 151.01C233.29 151.01 234.52 149.84 234.81 148.96C235.87 146.44 233.62 142.78 230.82 143.82C229.69 144.36 228.77 145.47 228.17 146.78C230.41 142.94 226.7 140.6 225.37 144.06C226.19 141.21 224.97 138.23 222.51 139.9C222.47 139.91 222.44 139.93 222.41 139.95V155.43H222.4Z" fill="#479DA3"/>
<path d="M222.4 155.43H233.52C233.36 154.85 232.96 154.4 232.5 154.19C232 153.97 231.45 154 230.94 154.17C231.2 153.59 230.84 152.81 230.35 152.59C229.85 152.36 229.3 152.55 228.82 152.83C229.23 152.61 229.54 152.14 229.71 151.62C230.34 150.14 229.01 147.98 227.36 148.59C226.7 148.91 226.15 149.56 225.8 150.34C227.12 148.08 224.93 146.7 224.15 148.74C224.91 146.51 223.45 145.21 222.4 145.71V155.43Z" fill="#7BBFBA"/>
<path d="M233.93 143.26C233.63 143.57 233.2 143.53 233.2 143.53C233.2 143.53 233.25 142.99 233.55 142.68C233.85 142.37 234.28 142.41 234.28 142.41C234.28 142.41 234.23 142.95 233.93 143.26Z" fill="#479DA3"/>
<path d="M225.35 146.83C225.13 147.29 224.65 147.43 224.65 147.43C224.65 147.43 224.53 146.83 224.75 146.37C224.97 145.91 225.45 145.77 225.45 145.77C225.45 145.77 225.58 146.37 225.35 146.83Z" fill="#7BBFBA"/>
<path d="M233.02 142.04C233.15 142.69 232.85 143.34 232.85 143.34C232.85 143.34 232.35 142.94 232.22 142.29C232.09 141.64 232.39 140.99 232.39 140.99C232.39 140.99 232.9 141.39 233.02 142.04Z" fill="#479DA3"/>
<path d="M42.0703 155.5H69.8603V93.77L42.0703 111.22V155.5Z" fill="#D8C497"/>
<path d="M42.0703 121.1L69.8603 100.17V93.77L42.0703 111.26V121.1Z" fill="#938569"/>
<path d="M69.8599 155.41H223.32V89.35L147.87 34.11L69.8599 89.35V155.41Z" fill="white"/>
<path d="M147.52 33.15L223.38 89.8V97.42L148.73 42.09L69.8599 100.17V91.82L147.52 33.15Z" fill="#9BB8CC"/>
<path d="M147.52 32.39L229.45 91.17L225.23 96.18L147.52 38.16L42.0201 116.96L38.0801 111.72L147.52 32.39Z" fill="#303030"/>
<path d="M69.8604 104.34H59.1704V104.85H69.8604V104.34Z" fill="#938569"/>
<path d="M69.8604 112.85H47.4404V113.36H69.8604V112.85Z" fill="#938569"/>
<path d="M69.8603 121.36H42.0703V121.87H69.8603V121.36Z" fill="#938569"/>
<path d="M69.8603 129.87H42.0703V130.38H69.8603V129.87Z" fill="#938569"/>
<path d="M69.8603 138.38H42.0703V138.89H69.8603V138.38Z" fill="#938569"/>
<path d="M69.8603 146.89H42.0703V147.4H69.8603V146.89Z" fill="#938569"/>
<path d="M42.069 139.93H58.769V123.03H42.069V139.93Z" fill="white"/>
<path d="M42.0681 138.5H57.3281V124.45H42.0681V138.5Z" fill="#445C77"/>
<path d="M58.7703 123.02H60.1003V141.32H42.0703V139.93H58.7703V123.02Z" fill="#938569"/>
<path d="M39.9964 155.506H69.8564V152.986H39.9964V155.506Z" fill="#0F3554"/>
<path d="M147.416 96.1363H170.336V66.6663H147.416V96.1363Z" fill="white"/>
<path d="M159.739 94.575H168.849V67.995H159.739V94.575Z" fill="#445C77"/>
<path d="M148.962 94.575H158.072V67.995H148.962V94.575Z" fill="#445C77"/>
<path d="M124.628 96.1363H147.548V66.6663H124.628V96.1363Z" fill="white"/>
<path d="M136.941 94.575H146.051V67.995H136.941V94.575Z" fill="#445C77"/>
<path d="M126.175 94.575H135.285V67.995H126.175V94.575Z" fill="#445C77"/>
<path d="M125.18 74.0427H169.46V73.3127H125.18V74.0427Z" fill="white"/>
<path d="M171.21 96.14H170.34V66.66H170.83L171.21 96.14Z" fill="#9BB8CC"/>
<path d="M207.96 108.93H194.33V109.17H207.96V108.93Z" fill="#F43D4F"/>
<path d="M154.24 155.411H194.33V119.181H154.24V155.411Z" fill="#7A7A7A"/>
<path d="M99.7003 108.93H86.0703V109.17H99.7003V108.93Z" fill="#F43D4F"/>
<path d="M210.47 109.17V114.44L207.96 114.37V109.17H210.47Z" fill="#9BB8CC"/>
<path d="M83.5601 109.17H86.0701V110.83L83.5601 110.76V109.17Z" fill="#9BB8CC"/>
<path d="M194.33 109.17V113.97L154.23 112.81V109.17H194.33Z" fill="#9BB8CC"/>
<path d="M140.6 109.17V112.42L99.7002 111.23V109.17H140.6Z" fill="#9BB8CC"/>
<path d="M207.96 109.17V114.37L208.93 155.41H194.33V113.97V109.17H207.96Z" fill="#D8C497"/>
<path d="M99.7001 109.17V111.23V155.41H84.8501L86.0701 110.83V109.17H99.7001Z" fill="#D8C497"/>
<path d="M154.23 109.17V112.79V155.41H140.6V112.4V109.17H154.23Z" fill="#D8C497"/>
<path d="M207.96 109.17V109.35V110.78H194.33V109.34V109.17H207.96Z" fill="#938569"/>
<path d="M99.7003 109.17V109.24V110.78H86.0703V109.23V109.17H99.7003Z" fill="#938569"/>
<path d="M154.23 109.17V109.3V110.79H140.6V109.28V109.17H154.23Z" fill="#938569"/>
<path d="M99.7074 155.409H140.607V151.659H99.7074V155.409Z" fill="#7BBFBA"/>
<path d="M99.7074 155.409H140.607V151.659H99.7074V155.409Z" fill="#7BBFBA"/>
<path d="M103.317 151.663H136.997V147.913H103.317V151.663Z" fill="#8E8E8E"/>
<path d="M103.317 151.656H136.997V151.026H103.317V151.656Z" fill="#479DA3"/>
<path d="M111.397 147.904H128.917V116.953H111.397V147.904Z" fill="white"/>
<path d="M111.08 117.42L129.23 118.22V116.96H111.08V117.42Z" fill="#9BB8CC"/>
<path d="M129.75 116.22H128.91V147.9H129.75V116.22Z" fill="#9BB8CC"/>
<path d="M111.4 116.22H110.56V147.9H111.4V116.22Z" fill="#9BB8CC"/>
<path d="M126.19 138.59H114.11V145.68H126.19V138.59Z" fill="#445C77"/>
<path d="M114.11 137.15V121.21H116.12C117.04 119.98 118.5 119.18 120.15 119.18C121.8 119.18 123.26 119.98 124.18 121.21H126.19V137.15H114.11Z" fill="#445C77"/>
<path d="M108.037 116.954H132.267V115.234H108.037V116.954Z" fill="#0F3554"/>
<path d="M194.32 120.85H154.23V121.36H194.32V120.85Z" fill="white"/>
<path d="M194.32 122.99H154.23V123.5H194.32V122.99Z" fill="white"/>
<path d="M194.32 125.14H154.23V125.65H194.32V125.14Z" fill="white"/>
<path d="M194.32 127.29H154.23V127.8H194.32V127.29Z" fill="white"/>
<path d="M194.32 129.44H154.23V129.95H194.32V129.44Z" fill="white"/>
<path d="M194.32 131.58H154.23V132.09H194.32V131.58Z" fill="white"/>
<path d="M194.32 133.73H154.23V134.24H194.32V133.73Z" fill="white"/>
<path d="M194.32 135.88H154.23V136.39H194.32V135.88Z" fill="white"/>
<path d="M194.32 138.03H154.23V138.54H194.32V138.03Z" fill="white"/>
<path d="M194.32 140.17H154.23V140.68H194.32V140.17Z" fill="white"/>
<path d="M194.32 142.32H154.23V142.83H194.32V142.32Z" fill="white"/>
<path d="M194.32 144.47H154.23V144.98H194.32V144.47Z" fill="white"/>
<path d="M194.32 146.62H154.23V147.13H194.32V146.62Z" fill="white"/>
<path d="M194.32 148.76H154.23V149.27H194.32V148.76Z" fill="white"/>
<path d="M194.32 150.91H154.23V151.42H194.32V150.91Z" fill="white"/>
<path d="M194.32 153.06H154.23V153.57H194.32V153.06Z" fill="white"/>
<path d="M154.24 119.178H194.33V117.588H154.24V119.178Z" fill="#0F3554"/>
<path d="M201.243 95.8706H206.213V89.0806H201.243V95.8706Z" fill="#8E8E8E"/>
<path d="M173.155 95.8706H178.125V89.0806H173.155V95.8706Z" fill="#8E8E8E"/>
<path d="M116.977 95.8706H121.947V89.0806H116.977V95.8706Z" fill="#8E8E8E"/>
<path d="M145.065 95.8706H150.035V89.0806H145.065V95.8706Z" fill="#8E8E8E"/>
<path d="M88.8879 95.8706H93.8579V89.0806H88.8879V95.8706Z" fill="#7BBFBA"/>
<path d="M201.243 89.8796H206.213V89.0796H201.243V89.8796Z" fill="#7A7A7A"/>
<path d="M173.155 89.8796H178.125V89.0796H173.155V89.8796Z" fill="#7A7A7A"/>
<path d="M116.977 89.8796H121.947V89.0796H116.977V89.8796Z" fill="#7A7A7A"/>
<path d="M145.065 89.8796H150.035V89.0796H145.065V89.8796Z" fill="#7A7A7A"/>
<path d="M88.8879 89.8796H93.8579V89.0796H88.8879V89.8796Z" fill="#479DA3"/>
<path d="M88.1031 89.0888L207.143 89.0888V88.2888L88.1031 88.2888V89.0888Z" fill="#8E8E8E"/>
<path d="M83.5601 109.17H210.47L211.02 95.55L83.5601 95.87V109.17Z" fill="#303030"/>
<path d="M147.98 58.39V52.65C149.51 52.76 150.89 53.43 151.9 54.47L147.98 58.39Z" fill="#445C77"/>
<path d="M152.41 55.06C153.18 56.08 153.64 57.35 153.64 58.73V58.74H148.73L152.41 55.06Z" fill="#445C77"/>
<path d="M143.45 54.22C144.45 53.31 145.76 52.73 147.2 52.64V57.97C145.95 56.72 144.7 55.47 143.45 54.22Z" fill="#445C77"/>
<path d="M146.86 58.73H141.45V58.72C141.45 57.21 142 55.84 142.91 54.78C144.23 56.1 145.54 57.42 146.86 58.73Z" fill="#445C77"/>
<path d="M140.57 59.69H154.88V59.68C154.88 57.55 154.1 55.61 152.84 54.17C155.67 56.38 155.51 60.22 155.51 60.22H140.57V59.69Z" fill="#9BB8CC"/>
<path d="M212.838 130.364H218.508V120.424H212.838V130.364Z" fill="#445C77"/>
<path d="M219.31 119.54V131.13H211.83V131.54H219.64V119.54H219.31Z" fill="#9BB8CC"/>
<path d="M75.0683 130.364H80.7383V120.424H75.0683V130.364Z" fill="#445C77"/>
<path d="M81.5401 119.54V131.13H74.0601V131.54H81.8701V119.54H81.5401Z" fill="#9BB8CC"/>
<path d="M228.3 155.41H232.41L231.63 144.72H229.08L228.3 155.41Z" fill="#0F3554"/>
<path d="M229.693 155.412H231.033V109.172H229.693V155.412Z" fill="#0F3554"/>
<path d="M228.24 109.17H232.48L234.04 101.48H226.68L228.24 109.17Z" fill="#0F3554"/>
<path d="M229.02 107.75H231.69L232.67 102.91H228.04L229.02 107.75Z" fill="white"/>
<path d="M228.24 99.53H232.48L234.04 101.48H226.68L228.24 99.53Z" fill="#0F3554"/>
<path d="M227.92 109.17H232.79C233.01 109.17 233.19 108.99 233.19 108.77C233.19 108.55 233.01 108.37 232.79 108.37H227.92C227.7 108.37 227.52 108.55 227.52 108.77C227.52 108.99 227.7 109.17 227.92 109.17Z" fill="#0F3554"/>
<path d="M229.02 145.12H231.68C231.9 145.12 232.08 144.94 232.08 144.72C232.08 144.5 231.9 144.32 231.68 144.32H229.02C228.8 144.32 228.62 144.5 228.62 144.72C228.62 144.94 228.8 145.12 229.02 145.12Z" fill="#0F3554"/>
<path d="M229.2 99.53C229.2 100.17 229.72 100.69 230.36 100.69C231 100.69 231.52 100.17 231.52 99.53C231.52 98.89 231 98.37 230.36 98.37C229.71 98.37 229.2 98.89 229.2 99.53Z" fill="#0F3554"/>
<path d="M206.48 153.04C207.95 148.36 213.99 147.62 215.98 152.14C218.47 151.46 220.48 152.34 222.11 154.16C222.91 153.14 224.82 152.75 226.24 153.58C227.38 149.95 232.06 149.38 233.6 152.88C235.94 152.24 237.73 153.38 239.12 155.43H223.1H220.3H198.81C201.17 153.45 203.65 152.23 206.48 153.04Z" fill="#479DA3"/>
<path d="M216.52 155.41C217.72 153.65 219.25 152.66 221.26 153.22C222.59 150.21 226.6 150.7 227.58 153.82C229.46 153.28 231.11 154.09 232.67 155.42H216.52V155.41Z" fill="#7BBFBA"/>
<path d="M216.03 151.02C216.22 151.39 216.66 151.54 216.66 151.54C216.66 151.54 216.79 151.09 216.6 150.73C216.41 150.36 215.97 150.21 215.97 150.21C215.97 150.21 215.84 150.65 216.03 151.02Z" fill="#479DA3"/>
<path d="M217.34 150.45C217 150.9 217.07 151.54 217.07 151.54C217.07 151.54 217.7 151.44 218.05 150.99C218.39 150.54 218.32 149.9 218.32 149.9C218.32 149.9 217.68 149.99 217.34 150.45Z" fill="#479DA3"/>
<path d="M229.28 152.71C229.39 153.11 229.79 153.35 229.79 153.35C229.79 153.35 230.01 152.94 229.9 152.54C229.79 152.14 229.39 151.9 229.39 151.9C229.39 151.9 229.17 152.31 229.28 152.71Z" fill="#7BBFBA"/>
<path d="M230.67 152.43C230.24 152.8 230.18 153.44 230.18 153.44C230.18 153.44 230.82 153.47 231.25 153.1C231.68 152.73 231.74 152.09 231.74 152.09C231.74 152.09 231.1 152.06 230.67 152.43Z" fill="#7BBFBA"/>
<path d="M281 157.18H244.68H78.25H0.5" stroke="#075B53" stroke-width="4" stroke-miterlimit="10"/>
<path d="M94.1201 184.34L94.2901 184.43C97.1701 183.51 99.9801 181.18 101.43 178.53C101.43 178.53 96.6201 168.13 93.2301 162.17C93.9901 160.07 94.9401 155.52 94.7101 153.3C94.4801 151.08 94.2301 148.26 92.0201 147.98C90.2601 152.1 88.3801 156.95 86.6201 161.07L94.1201 184.34Z" fill="#DD8773"/>
<path d="M86.1 180.95L86.24 181.08C89.26 180.95 92.58 179.45 94.68 177.28C94.68 177.28 92.79 165.98 91.09 159.33C92.37 157.5 94.49 153.37 94.86 151.16C95.23 148.96 95.73 146.18 93.67 145.32C90.88 148.83 87.79 153.01 85 156.52L86.1 180.95Z" fill="#FFAC90"/>
<path d="M187.2 123.15H95.82C94.83 123.15 94.02 123.96 94.02 124.95V175.61C94.02 176.6 94.83 177.41 95.82 177.41H187.2C188.19 177.41 189 176.6 189 175.61V124.95C189 123.96 188.19 123.15 187.2 123.15Z" fill="#F0EBE9"/>
<path d="M187.2 121.67H95.82C94.01 121.67 92.54 123.14 92.54 124.95V175.61C92.54 177.42 94.01 178.89 95.82 178.89H187.2C189.01 178.89 190.48 177.42 190.48 175.61V124.95C190.48 123.14 189.01 121.67 187.2 121.67ZM189 175.61C189 176.6 188.19 177.41 187.2 177.41H95.82C94.83 177.41 94.02 176.6 94.02 175.61V124.95C94.02 123.96 94.83 123.15 95.82 123.15H187.2C188.19 123.15 189 123.96 189 124.95V175.61Z" fill="#1A2E35"/>
<path d="M155.68 114.24H123.64C120.22 114.24 117.46 111.47 117.46 108.06V96.22C117.46 92.8 120.23 90.04 123.64 90.04H155.68C159.1 90.04 161.86 92.81 161.86 96.22V108.06C161.86 111.47 159.09 114.24 155.68 114.24Z" fill="#F8F5EC"/>
<path d="M150.37 113.01L152.29 126.6L153.86 113.01H150.37Z" fill="#F8F5EC"/>
<path d="M157.99 94.63H138.4V95.54H157.99V94.63Z" fill="#D8C497"/>
<path d="M157.99 97.53H138.4V98.44H157.99V97.53Z" fill="#D8C497"/>
<path d="M157.99 100.43H138.4V101.34H157.99V100.43Z" fill="#D8C497"/>
<path d="M157.99 103.33H138.4V104.24H157.99V103.33Z" fill="#D8C497"/>
<path d="M157.99 106.23H138.4V107.14H157.99V106.23Z" fill="#D8C497"/>
<path d="M150.9 109.13H138.4V110.04H150.9V109.13Z" fill="#D8C497"/>
<path d="M126.2 108.57L126.51 109.2L127.21 109.3L126.7 109.8L126.82 110.49L126.2 110.16L125.57 110.49L125.69 109.8L125.19 109.3L125.88 109.2L126.2 108.57Z" fill="#D8C497"/>
<path d="M123.4 108.57L123.71 109.2L124.41 109.3L123.91 109.8L124.03 110.49L123.4 110.16L122.78 110.49L122.9 109.8L122.39 109.3L123.09 109.2L123.4 108.57Z" fill="#D8C497"/>
<path d="M128.99 108.57L129.3 109.2L130 109.3L129.5 109.8L129.62 110.49L128.99 110.16L128.37 110.49L128.49 109.8L127.98 109.3L128.68 109.2L128.99 108.57Z" fill="#D8C497"/>
<path d="M131.79 108.57L132.1 109.2L132.8 109.3L132.29 109.8L132.41 110.49L131.79 110.16L131.16 110.49L131.28 109.8L130.78 109.3L131.47 109.2L131.79 108.57Z" fill="#D8C497"/>
<path d="M134.58 108.57L134.89 109.2L135.59 109.3L135.09 109.8L135.21 110.49L134.58 110.16L133.96 110.49L134.08 109.8L133.57 109.3L134.27 109.2L134.58 108.57Z" fill="#D8C497"/>
<path d="M128.99 94.63L121.33 101.19H122.8V107.64H135.19V101.19H136.65L128.99 94.63Z" fill="#D8C497"/>
<path d="M130.72 102.71H127.26V107.65H130.72V102.71Z" fill="#F8F5EC"/>
<path d="M175.59 149.47L179.75 122.55H177.54L175.58 135.24L148.9 134.1L147.36 122.55H145.16L146.71 134.15L119.37 136.24L118.15 122.56H115.96L116.56 129.25L94.2002 129.8V131.98L116.74 131.42L117.38 138.57L127.05 137.83L124.82 154.66L94.2002 161.34V163.57L124.75 156.9L125.49 178.41H127.67L127.4 170.52L151.47 169.92L152.6 178.41H154.8L151.67 154.93L171.64 160.67L168.9 178.41H171.11L175.25 151.64L189.1 151.29V149.11L175.59 149.47ZM129.28 137.67L147 136.32L149.08 151.93L144.03 150.48L127.1 154.18L129.28 137.67ZM127.33 168.36L126.92 156.44L143.94 152.72L149.38 154.28L151.18 167.76L127.33 168.36ZM171.98 158.51L151.36 152.58L149.19 136.29L175.24 137.4L171.98 158.51Z" fill="#8994AE"/>
<path d="M152.4 127.33L148.89 130.34H149.56V133.3H155.25V130.34H155.92L152.4 127.33Z" fill="#8994AE"/>
<path d="M153.2 131.04H151.61V133.3H153.2V131.04Z" fill="#F0EBE9"/>
<path d="M104.57 151.23L101.05 154.23H101.72V157.19H107.41V154.23H108.08L104.57 151.23Z" fill="#8994AE"/>
<path d="M105.36 154.93H103.77V157.19H105.36V154.93Z" fill="#F0EBE9"/>
<path d="M139.66 159.5L136.14 162.51H136.82V165.47H142.5V162.51H143.18L139.66 159.5Z" fill="#8994AE"/>
<path d="M140.46 163.2H138.87V165.46H140.46V163.2Z" fill="#F0EBE9"/>
<path d="M159.83 173.56H123.3C121.69 173.56 120.39 172.26 120.39 170.65C120.39 169.04 121.69 167.74 123.3 167.74H159.83C161.44 167.74 162.74 169.04 162.74 170.65C162.75 172.26 161.44 173.56 159.83 173.56Z" fill="#CDE1F1"/>
<path d="M159.12 171.26C158.61 170.75 158.61 169.91 159.12 169.4C159.63 168.89 160.47 168.89 160.98 169.4C161.49 169.91 161.49 170.75 160.98 171.26C160.47 171.77 159.63 171.77 159.12 171.26ZM160.71 169.67C160.34 169.3 159.75 169.3 159.39 169.67C159.02 170.04 159.02 170.63 159.39 170.99C159.76 171.36 160.35 171.36 160.71 170.99C161.08 170.62 161.08 170.03 160.71 169.67Z" fill="#8994AE"/>
<path d="M159.136 170.989L158.245 171.881L158.513 172.149L159.404 171.258L159.136 170.989Z" fill="#8994AE"/>
<path d="M105.23 162.93C105.49 163.45 106.02 163.78 106.7 164L107.31 158.13C107.35 157.73 106.93 157.45 106.58 157.64C106.46 157.7 106.35 157.77 106.23 157.84C105.74 159.64 104.55 161.91 105.23 162.93Z" fill="#FFE3DB"/>
<path d="M105.23 162.93C104.55 161.91 105.74 159.64 106.23 157.84C103.48 159.46 101.69 162.34 101.48 165.55L101.45 165.96L98.6601 172.76C98.1501 174.02 96.9801 174.92 95.6301 175.01C94.7501 175.07 93.9101 174.8 93.6701 173.66L90.4601 165.79L90.4501 153.56L91.1601 152.28C92.0601 150.65 92.5301 148.81 92.5301 146.95V143.75C92.5301 143.05 91.6401 142.74 91.2001 143.29L85.6301 150.29L83.3101 169.4L88.3001 193.13L101.81 191.16L106.03 179.7L106.35 167.19L106.68 164.01C106.02 163.78 105.49 163.45 105.23 162.93Z" fill="#FFCCBC"/>
<path d="M88.31 193.13L86.5 220.13H108.08L101.82 191.15L88.31 193.13Z" fill="#FFCCBC"/>
<path d="M176.1 181.08L161.87 182.1L153.58 175.17C151.51 174.75 148.69 164.34 150.43 161.48L153.38 160.16L154 158.78L153.12 151.95L150.95 135.25C150.82 134.24 151.51 133.31 152.52 133.15C153.48 133 154.4 133.61 154.63 134.56L158.96 152.3L171.85 154C174.47 154.32 175.47 155.64 176.1 158.2V181.08Z" fill="#FFCCBC"/>
<path d="M154.37 134.91C154.18 134.13 153.42 133.62 152.62 133.75C151.79 133.88 151.22 134.65 151.33 135.49L151.63 137.78C152.81 137.73 153.91 137.5 154.9 137.07L154.37 134.91Z" fill="#FFE3DB"/>
<path d="M154.01 158.77L153.39 160.15C153.53 162.33 153.68 164.51 153.82 166.69C153.85 167.16 154.59 167.18 154.56 166.7C154.39 164.05 154.21 161.4 154.03 158.74C154.02 158.76 154.02 158.76 154.01 158.77Z" fill="#FFAC90"/>
<path d="M161.87 182.1V220.13H183.45L176.11 181.08L161.87 182.1Z" fill="#FFCCBC"/>
<g opacity="0.78">
<path d="M66.32 43.32H53.7C51.66 43.32 50 41.66 50 39.62V21.42C50 19.38 51.66 17.72 53.7 17.72H66.32C68.36 17.72 70.02 19.38 70.02 21.42V39.61C70.02 41.66 68.37 43.32 66.32 43.32Z" fill="#F8F5EC"/>
<path d="M54.08 39.5699L54.41 40.2399L55.15 40.3499L54.61 40.8699L54.74 41.6099L54.08 41.2599L53.41 41.6099L53.54 40.8699L53 40.3499L53.75 40.2399L54.08 39.5699Z" fill="#D8C497"/>
<path d="M57.0402 39.5699L57.3802 40.2399L58.1202 40.3499L57.5802 40.8699L57.7102 41.6099L57.0402 41.2599L56.3802 41.6099L56.5102 40.8699L55.9702 40.3499L56.7102 40.2399L57.0402 39.5699Z" fill="#D8C497"/>
<path opacity="0.5" d="M60.0099 39.5699L60.3399 40.2399L61.0799 40.3499L60.5499 40.8699L60.6699 41.6099L60.0099 41.2599L59.3499 41.6099L59.4799 40.8699L58.9399 40.3499L59.6799 40.2399L60.0099 39.5699Z" fill="#D8C497"/>
<path opacity="0.5" d="M62.9802 39.5699L63.3102 40.2399L64.0502 40.3499L63.5202 40.8699L63.6402 41.6099L62.9802 41.2599L62.3202 41.6099L62.4402 40.8699L61.9102 40.3499L62.6502 40.2399L62.9802 39.5699Z" fill="#D8C497"/>
<path opacity="0.5" d="M65.9499 39.5699L66.2799 40.2399L67.0199 40.3499L66.4799 40.8699L66.6099 41.6099L65.9499 41.2599L65.2899 41.6099L65.4099 40.8699L64.8799 40.3499L65.6199 40.2399L65.9499 39.5699Z" fill="#D8C497"/>
<path d="M66.56 34.08H53.46V34.61H66.56V34.08Z" fill="#D8C497"/>
<path d="M66.56 35.7499H53.46V36.2799H66.56V35.7499Z" fill="#D8C497"/>
<path d="M61.82 37.4299H53.46V37.9599H61.82V37.4299Z" fill="#D8C497"/>
<path d="M60.0102 19.6L53.6602 26.31H54.8702V32.91H58.4402V27.58H61.8302V32.91H65.1502V26.31H66.3702L60.0102 19.6Z" fill="#D8C497"/>
</g>
<g opacity="0.78">
<path d="M176.37 27.6H163.75C161.71 27.6 160.05 25.94 160.05 23.9V5.7C160.05 3.66 161.71 2 163.75 2H176.37C178.41 2 180.07 3.66 180.07 5.7V23.9C180.07 25.94 178.41 27.6 176.37 27.6Z" fill="#F8F5EC"/>
<path d="M164.12 23.85L164.45 24.52L165.19 24.62L164.66 25.15L164.78 25.88L164.12 25.54L163.46 25.88L163.59 25.15L163.05 24.62L163.79 24.52L164.12 23.85Z" fill="#D8C497"/>
<path opacity="0.5" d="M167.09 23.85L167.42 24.52L168.16 24.62L167.63 25.15L167.75 25.88L167.09 25.54L166.43 25.88L166.55 25.15L166.02 24.62L166.76 24.52L167.09 23.85Z" fill="#D8C497"/>
<path opacity="0.5" d="M170.06 23.85L170.39 24.52L171.13 24.62L170.59 25.15L170.72 25.88L170.06 25.54L169.39 25.88L169.52 25.15L168.99 24.62L169.73 24.52L170.06 23.85Z" fill="#D8C497"/>
<path opacity="0.5" d="M173.02 23.85L173.36 24.52L174.1 24.62L173.56 25.15L173.69 25.88L173.02 25.54L172.36 25.88L172.49 25.15L171.95 24.62L172.69 24.52L173.02 23.85Z" fill="#D8C497"/>
<path opacity="0.5" d="M175.99 23.85L176.32 24.52L177.06 24.62L176.53 25.15L176.66 25.88L175.99 25.54L175.33 25.88L175.46 25.15L174.92 24.62L175.66 24.52L175.99 23.85Z" fill="#D8C497"/>
<path d="M176.61 18.36H163.51V18.89H176.61V18.36Z" fill="#D8C497"/>
<path d="M176.61 20.03H163.51V20.56H176.61V20.03Z" fill="#D8C497"/>
<path d="M171.87 21.71H163.51V22.24H171.87V21.71Z" fill="#D8C497"/>
<path d="M170.06 3.88L163.7 10.59H164.92V17.19H168.49V11.86H171.87V17.19H175.2V10.59H176.41L170.06 3.88Z" fill="#D8C497"/>
</g>
<g opacity="0.78">
<path d="M273.84 53.8H261.22C259.18 53.8 257.52 52.14 257.52 50.1V31.9C257.52 29.86 259.18 28.2 261.22 28.2H273.84C275.88 28.2 277.54 29.86 277.54 31.9V50.1C277.54 52.14 275.88 53.8 273.84 53.8Z" fill="#F8F5EC"/>
<path d="M261.59 50.05L261.92 50.72L262.66 50.83L262.13 51.35L262.25 52.09L261.59 51.74L260.93 52.09L261.05 51.35L260.52 50.83L261.26 50.72L261.59 50.05Z" fill="#D8C497"/>
<path d="M264.56 50.05L264.89 50.72L265.63 50.83L265.09 51.35L265.22 52.09L264.56 51.74L263.9 52.09L264.02 51.35L263.49 50.83L264.23 50.72L264.56 50.05Z" fill="#D8C497"/>
<path d="M267.53 50.05L267.86 50.72L268.6 50.83L268.06 51.35L268.19 52.09L267.53 51.74L266.86 52.09L266.99 51.35L266.45 50.83L267.19 50.72L267.53 50.05Z" fill="#D8C497"/>
<path opacity="0.5" d="M270.49 50.05L270.82 50.72L271.57 50.83L271.03 51.35L271.16 52.09L270.49 51.74L269.83 52.09L269.96 51.35L269.42 50.83L270.16 50.72L270.49 50.05Z" fill="#D8C497"/>
<path opacity="0.5" d="M273.46 50.05L273.79 50.72L274.53 50.83L274 51.35L274.12 52.09L273.46 51.74L272.8 52.09L272.93 51.35L272.39 50.83L273.13 50.72L273.46 50.05Z" fill="#D8C497"/>
<path d="M274.08 44.56H260.98V45.09H274.08V44.56Z" fill="#D8C497"/>
<path d="M274.08 46.24H260.98V46.77H274.08V46.24Z" fill="#D8C497"/>
<path d="M269.34 47.91H260.98V48.44H269.34V47.91Z" fill="#D8C497"/>
<path d="M267.53 30.08L261.17 36.79H262.39V43.4H265.95V38.07H269.34V43.4H272.66V36.79H273.88L267.53 30.08Z" fill="#D8C497"/>
</g>
</g>
<defs>
<clipPath id="clip0_215_5340">
<rect width="281" height="220" fill="white"/>
</clipPath>
</defs>
</svg>
