<svg width="281" height="220" viewBox="0 0 281 220" fill="none" xmlns="http://www.w3.org/2000/svg">
<path d="M219.44 118.89V101.52H231.14V110.41L219.44 118.89Z" fill="white"/>
<path d="M219.44 118.89V101.52H231.14V110.41L219.44 118.89Z" fill="white"/>
<path d="M231.14 109.85V110.41L219.44 118.89V109.85H231.14Z" fill="#D8C497"/>
<path d="M228.687 105.1H229.607V102.98H228.687V105.1Z" fill="#0F3554"/>
<path d="M226.12 105.1H227.04V102.98H226.12V105.1Z" fill="#0F3554"/>
<path d="M223.542 105.1H224.462V102.98H223.542V105.1Z" fill="#0F3554"/>
<path d="M220.974 105.1H221.894V102.98H220.974V105.1Z" fill="#0F3554"/>
<path d="M168.46 191.72H190.38V143.03L168.46 156.79V191.72Z" fill="#F43D4F"/>
<path d="M168.46 164.58L190.38 148.07V143.03L168.46 156.82V164.58Z" fill="#B72E41"/>
<path d="M268.89 108.38L281 117.24V191.65H190.38V139.53L211.63 124.48L214.04 122.77L218.07 119.92L225.63 114.57L231.67 110.29L239.71 104.6L242.81 102.4L243.18 102.14L249.22 97.86L250.62 96.87L251.92 95.95L256.19 99.07L260.61 102.32L268.89 108.38Z" fill="white"/>
<path d="M268.86 108.05L281 117.12V123.3L269.57 114.84L262.26 109.42L262.04 109.25L260.95 108.45L260.89 108.4L252.6 102.26L249.67 104.42L249.42 104.6L244.12 108.51L232.24 117.25L223.95 123.36L223.91 123.39L221.53 125.14L220.73 125.73L218.35 127.47L190.38 148.07V141.49L212.42 124.84L214.74 123.08L218.55 120.21L225.87 114.67L231.67 110.29L239.48 104.39L242.33 102.24L242.68 101.97L248.49 97.58L249.84 96.56L251.64 95.2L257.55 99.61L261.78 102.77L268.86 108.05Z" fill="#9BB8CC"/>
<path d="M268.73 106.86L281 115.66V121.07L269.31 112.34L251.64 99.15L246.22 103.2L245.91 103.43L241.83 106.48L229.11 115.98L223.1 120.47L221.28 121.83L219.04 123.51L217.8 124.43L215.45 126.19L190.38 144.91L172.76 158.08L172.7 158.12L168.46 161.29L168.42 161.32L165.31 157.19L210.88 124.15L213.26 122.43L217.32 119.48L219.44 117.95L224.64 114.17L230.61 109.85L231.14 109.46L238.87 103.86L241.49 101.96L241.87 101.69L247.87 97.33L249.25 96.33L251.64 94.6L259.95 100.56L264.53 103.85L268.73 106.86Z" fill="#303030"/>
<path d="M190.38 151.36H181.95V151.76H190.38V151.36Z" fill="#B72E41"/>
<path d="M190.39 158.08H172.7V158.48H190.39V158.08Z" fill="#B72E41"/>
<path d="M190.38 164.79H168.46V165.19H190.38V164.79Z" fill="#B72E41"/>
<path d="M190.38 171.5H168.46V171.9H190.38V171.5Z" fill="#B72E41"/>
<path d="M190.38 178.22H168.46V178.62H190.38V178.22Z" fill="#B72E41"/>
<path d="M190.38 184.93H168.46V185.33H190.38V184.93Z" fill="#B72E41"/>
<path d="M168.456 179.434H181.636V166.104H168.456V179.434Z" fill="white"/>
<path d="M168.46 178.314H180.5V167.224H168.46V178.314Z" fill="#445C77"/>
<path d="M181.64 166.1H182.68V180.53H168.46V179.43H181.64V166.1Z" fill="#B72E41"/>
<path d="M166.83 191.726H190.38V189.736H166.83V191.726Z" fill="#0F3554"/>
<path d="M251.566 144.885H269.646V121.635H251.566V144.885Z" fill="white"/>
<path d="M261.284 143.653H268.474V122.683H261.284V143.653Z" fill="#445C77"/>
<path d="M252.787 143.653H259.977V122.683H252.787V143.653Z" fill="#445C77"/>
<path d="M233.591 144.885H251.671V121.635H233.591V144.885Z" fill="white"/>
<path d="M243.299 143.653H250.489V122.683H243.299V143.653Z" fill="#445C77"/>
<path d="M234.801 143.653H241.991V122.683H234.801V143.653Z" fill="#445C77"/>
<path d="M234.028 127.462H268.958V126.882H234.028V127.462Z" fill="white"/>
<path d="M270.33 144.89H269.65V121.64H270.04L270.33 144.89Z" fill="#9BB8CC"/>
<path d="M281 163.07H256.94V191.65H281V163.07Z" fill="#7A7A7A"/>
<path d="M213.92 154.98H203.17V155.17H213.92V154.98Z" fill="#F43D4F"/>
<path d="M201.19 155.17H203.17V156.48L201.19 156.43V155.17Z" fill="#9BB8CC"/>
<path d="M281 155.17V158.74L256.94 158.04V155.17H281Z" fill="#9BB8CC"/>
<path d="M246.19 155.17V157.73L213.93 156.8V155.17H246.19Z" fill="#9BB8CC"/>
<path d="M213.93 155.17V156.8V191.65H202.21L203.17 156.48V155.17H213.93Z" fill="#D8C497"/>
<path d="M256.94 155.17V158.03V191.65H246.19V157.72V155.17H256.94Z" fill="#D8C497"/>
<path d="M213.93 155.17V155.23V156.44H203.17V155.22V155.17H213.93Z" fill="#938569"/>
<path d="M256.94 155.17V155.27V156.45H246.19V155.26V155.17H256.94Z" fill="#938569"/>
<path d="M213.919 191.648H246.189V188.688H213.919V191.648Z" fill="#7BBFBA"/>
<path d="M213.919 191.648H246.189V188.688H213.919V191.648Z" fill="#7BBFBA"/>
<path d="M216.779 188.687H243.349V185.727H216.779V188.687Z" fill="#8E8E8E"/>
<path d="M216.779 188.691H243.349V188.191H216.779V188.691Z" fill="#479DA3"/>
<path d="M223.149 185.724H236.969V161.314H223.149V185.724Z" fill="white"/>
<path d="M222.9 161.68L237.22 162.31V161.32H222.9V161.68Z" fill="#9BB8CC"/>
<path d="M237.63 160.73H236.97V185.72H237.63V160.73Z" fill="#9BB8CC"/>
<path d="M223.15 160.73H222.49V185.72H223.15V160.73Z" fill="#9BB8CC"/>
<path d="M234.82 178.38H225.29V183.97H234.82V178.38Z" fill="#445C77"/>
<path d="M225.29 177.24V164.67H226.88C227.6 163.7 228.76 163.07 230.06 163.07C231.36 163.07 232.52 163.7 233.24 164.67H234.83V177.24H225.29Z" fill="#445C77"/>
<path d="M220.499 161.312H239.619V159.952H220.499V161.312Z" fill="#0F3554"/>
<path d="M281 164.38H256.94V164.79H281V164.38Z" fill="white"/>
<path d="M281 166.08H256.94V166.48H281V166.08Z" fill="white"/>
<path d="M281 167.77H256.94V168.17H281V167.77Z" fill="white"/>
<path d="M281 169.46H256.94V169.87H281V169.46Z" fill="white"/>
<path d="M281 171.16H256.94V171.56H281V171.16Z" fill="white"/>
<path d="M281 172.85H256.94V173.26H281V172.85Z" fill="white"/>
<path d="M281 174.55H256.94V174.95H281V174.55Z" fill="white"/>
<path d="M281 176.24H256.94V176.64H281V176.24Z" fill="white"/>
<path d="M281 177.94H256.94V178.34H281V177.94Z" fill="white"/>
<path d="M281 179.63H256.94V180.03H281V179.63Z" fill="white"/>
<path d="M281 181.32H256.94V181.73H281V181.32Z" fill="white"/>
<path d="M281 183.02H256.94V183.42H281V183.02Z" fill="white"/>
<path d="M281 184.71H256.94V185.12H281V184.71Z" fill="white"/>
<path d="M281 186.41H256.94V186.81H281V186.41Z" fill="white"/>
<path d="M281 188.1H256.94V188.5H281V188.1Z" fill="white"/>
<path d="M281 189.79H256.94V190.2H281V189.79Z" fill="white"/>
<path d="M281 161.81H256.94V163.07H281V161.81Z" fill="#0F3554"/>
<path d="M271.868 144.68H275.788V139.33H271.868V144.68Z" fill="#8E8E8E"/>
<path d="M227.552 144.68H231.472V139.33H227.552V144.68Z" fill="#8E8E8E"/>
<path d="M249.709 144.68H253.629V139.33H249.709V144.68Z" fill="#8E8E8E"/>
<path d="M205.393 144.68H209.313V139.33H205.393V144.68Z" fill="#7BBFBA"/>
<path d="M271.868 139.954H275.788V139.324H271.868V139.954Z" fill="#7A7A7A"/>
<path d="M227.552 139.954H231.472V139.324H227.552V139.954Z" fill="#7A7A7A"/>
<path d="M249.709 139.954H253.629V139.324H249.709V139.954Z" fill="#7A7A7A"/>
<path d="M205.393 139.954H209.313V139.324H205.393V139.954Z" fill="#479DA3"/>
<path d="M281 138.7H204.78V139.33H281V138.7Z" fill="#8E8E8E"/>
<path d="M275.79 144.49L281 144.48V155.17H201.19V144.68L205.39 144.67L209.31 144.66L227.55 144.61L231.47 144.6H233.59L249.71 144.56L251.57 144.55H253.63L256.75 144.54L269.65 144.51H270.33L271.87 144.5L275.79 144.49Z" fill="#303030"/>
<path d="M252.01 115.11V110.58C253.22 110.66 254.3 111.2 255.1 112.01L252.01 115.11Z" fill="#445C77"/>
<path d="M255.51 112.48C256.12 113.29 256.48 114.29 256.48 115.38C256.48 115.38 256.48 115.38 256.48 115.39H252.6L255.51 112.48Z" fill="#445C77"/>
<path d="M248.44 111.82C249.23 111.1 250.26 110.64 251.4 110.58V114.78C250.41 113.8 249.42 112.81 248.44 111.82Z" fill="#445C77"/>
<path d="M251.13 115.38H246.86C246.86 115.38 246.86 115.38 246.86 115.37C246.86 114.18 247.3 113.1 248.01 112.26C249.05 113.3 250.09 114.34 251.13 115.38Z" fill="#445C77"/>
<path d="M246.17 116.14H257.46V116.13C257.46 114.45 256.85 112.92 255.85 111.78C258.08 113.52 257.96 116.55 257.96 116.55H246.18V116.14H246.17Z" fill="#9BB8CC"/>
<path d="M194.498 171.894H198.968V164.054H194.498V171.894Z" fill="#445C77"/>
<path d="M199.6 163.35V172.5H193.7V172.82H199.86V163.35H199.6Z" fill="#9BB8CC"/>
<path d="M78.5703 151.91L90.6103 147.23H78.5703V151.91Z" fill="#647065"/>
<path d="M15.7302 91.6101H6.7002V110.39H15.7302V91.6101Z" fill="#D8D8D8"/>
<path d="M6.7002 92.9901C8.7902 93.2401 11.3902 93.7301 12.3302 94.6601C13.5902 95.9201 12.9302 105.78 12.5402 110.38H15.7302V91.6101H6.7002V92.9901Z" fill="#778379"/>
<path d="M6.70029 91.6101H3.80029V110.39H6.70029V91.6101Z" fill="#AFAFAF"/>
<path d="M80.8402 147.23H46.4102V190.28H80.8402V147.23Z" fill="#D8D8D8"/>
<path d="M31.3403 120.55L46.4103 147.23V190.28H32.4203L31.3403 153.52V120.55Z" fill="#AFAFAF"/>
<path d="M31.3403 153.52L46.4103 166.53V168.96L42.3503 168.57L42.6103 190.28H32.4203L31.3403 153.52Z" fill="#D2E9D7"/>
<path d="M89.9601 143.11H46.4101L36.7801 130.18L31.4401 123.01H0.640137V107.88L1.00014 107.91L3.65014 108.07L3.80014 108.08L6.70014 108.26H6.76014L7.91014 108.34L11.6701 108.57L12.6801 108.63L13.9301 108.71L15.5001 108.81H15.5101L15.7201 108.82L17.7301 108.95H17.8501L19.2201 109.04L33.6901 109.94L41.7301 110.44L89.9601 143.11Z" fill="#D8C497"/>
<path d="M31.4399 123.01L46.4099 143.1H81.7099C81.7099 143.1 55.3799 127.29 45.0799 123.96C34.7899 120.63 31.4399 123.01 31.4399 123.01Z" fill="#938569"/>
<path d="M90.6102 143.11H46.4102V147.24H90.6102V143.11Z" fill="#D8D8D8"/>
<path d="M38.7901 159.32L38.6601 159.84L37.9301 162.87H35.5201L35.4501 190.28H1.00014V140.41L0.640137 140.75V118.93L1.00014 118.31L4.38014 112.4L4.89014 111.53L5.54014 110.39L6.70014 108.36L6.76014 108.26L9.85014 102.86L10.4801 101.77L11.2101 102.79L12.9001 105.17L15.5001 108.81H15.5101L15.7201 109.11L15.8701 109.32L16.1601 109.73L16.6301 110.38L23.2501 119.67L25.6401 123.01H31.3401V153.52L38.7901 159.32Z" fill="#D8D8D8"/>
<path d="M10.4801 101.77L9.85014 102.86L6.72014 108.26L6.70014 108.3L5.49014 110.39L4.83014 111.54L4.32014 112.42L1.00014 118.16L0.640137 118.78V105.03L1.00014 104.92L3.80014 103.99L6.55014 103.07L6.70014 103.02L10.4801 101.77Z" fill="#938569"/>
<path d="M20.24 159.32H1V190.28H20.24V159.32Z" fill="#D8D8D8"/>
<path d="M19.2 160.37H1V190.28H19.2V160.37Z" fill="#D8D8D8"/>
<path d="M17.91 188.1H1V188.62H17.91V188.1Z" fill="#528267"/>
<path d="M17.91 186.41H1V186.93H17.91V186.41Z" fill="#528267"/>
<path d="M17.91 184.8H1V185.15H17.91V184.8Z" fill="#528267"/>
<path d="M17.91 183.11H1V183.45H17.91V183.11Z" fill="#528267"/>
<path d="M17.91 181.41H1V181.76H17.91V181.41Z" fill="#528267"/>
<path d="M17.91 179.74H1V180.04H17.91V179.74Z" fill="#528267"/>
<path d="M17.15 178.1H1V178.29H17.15V178.1Z" fill="#528267"/>
<path d="M11.16 176.42H1V176.58H11.16V176.42Z" fill="#528267"/>
<path d="M19.2 160.37V190.28L17.65 162.87L17.62 162.36L1 161.53V160.37H19.2Z" fill="#57826B"/>
<path opacity="0.34" d="M20.24 159.32V190.28H10.33C10.14 189.74 9.95 189.18 9.74 188.62C9.68 188.45 9.61 188.28 9.54 188.1C9.4 187.72 9.25 187.32 9.09 186.93C9.02 186.76 8.95 186.58 8.88 186.41C8.71 185.99 8.54 185.57 8.36 185.15C8.31 185.04 8.26 184.92 8.2 184.8C8.01 184.35 7.81 183.9 7.6 183.45C7.55 183.34 7.5 183.22 7.44 183.11C7.24 182.66 7.02 182.21 6.79 181.76C6.73 181.64 6.67 181.52 6.62 181.41C6.38 180.95 6.15 180.5 5.9 180.04C5.85 179.94 5.79 179.84 5.74 179.74C5.48 179.26 5.2 178.77 4.91 178.29C4.88 178.23 4.85 178.16 4.8 178.1C4.51 177.59 4.2 177.08 3.88 176.58C3.84 176.52 3.81 176.47 3.77 176.42C3.42 175.87 3.06 175.33 2.69 174.8C2.18 174.07 1.62 173.39 1 172.75V159.32H20.24Z" fill="#1C281B"/>
<path d="M38.79 159.32H1V162.87H38.79V159.32Z" fill="#AFBFB2"/>
<path d="M11.2101 102.79L10.5601 103.88L9.59014 105.51L7.91014 108.34L6.70014 110.36L6.68014 110.39L6.16014 111.27L5.65014 112.11V112.12L1.00014 119.93L0.640137 120.53V118.66L1.00014 118.04L4.27014 112.43L4.78014 111.55L5.46014 110.39L6.70014 108.26L9.85014 102.86L10.4801 101.77L11.2101 102.79Z" fill="#EDF0ED"/>
<path d="M25.6401 123.01L10.4801 101.77L9.8501 102.86L25.5801 125.41H31.3401L31.4401 123.01H25.6401Z" fill="#EDF0ED"/>
<path d="M31.4403 123.01L31.3403 125.41L46.4103 147.23V143.11L31.4403 123.01Z" fill="#EDF0ED"/>
<path d="M16.6001 88.55H5.81006V91.61H16.6001V88.55Z" fill="#D8D8D8"/>
<path d="M5.81994 88.55H2.68994V91.61H5.81994V88.55Z" fill="#778379"/>
<path d="M38.79 159.32H1V153.52H31.34L38.79 159.32Z" fill="#938569"/>
<path d="M15.7798 125.86C15.8898 125.7 15.9498 125.53 15.9498 125.36C15.9498 124.24 13.4498 123.33 10.3798 123.33C7.2998 123.33 4.8098 124.24 4.8098 125.36C4.8098 125.53 4.8698 125.7 4.9798 125.86H3.0498V127.63H17.7098V125.86H15.7798Z" fill="#F8FAFC"/>
<path d="M15.7197 127H15.4597C14.6897 125.46 12.7497 124.36 10.4697 124.36C8.18967 124.36 6.24967 125.46 5.47967 127H5.15967V149.86H15.7197V127Z" fill="white"/>
<path d="M6.60986 149.55V128.56H6.70986L6.81986 128.29C7.37986 126.93 8.84986 126.02 10.4699 126.02C12.0899 126.02 13.5599 126.93 14.1199 128.29L14.2299 128.56H14.2799V149.55H6.60986Z" fill="#18C0D1"/>
<path d="M14.2297 127.99L14.1197 127.78C13.5797 126.78 12.2297 126.09 10.6997 126.03V149.66H14.2797V127.99H14.2297Z" fill="#038E83"/>
<path d="M10.26 149.06V149.55H10.62V149.06H10.26ZM10.26 149.06V149.55H10.62V149.06H10.26ZM10.26 149.06V149.55H10.62V149.06H10.26ZM10.26 149.06V149.55H10.62V149.06H10.26ZM14.46 128.07C14.44 128.02 14.42 127.97 14.4 127.92C14.35 127.82 14.3 127.72 14.24 127.62C13.52 126.37 12.1 125.53 10.47 125.53C8.82996 125.53 7.40996 126.37 6.68996 127.62C6.60996 127.77 6.52996 127.91 6.46996 128.07H6.20996V150.05H14.67V128.07H14.46ZM13.88 149.06H6.99996V144.57H13.88V149.06ZM6.99996 128.94L7.16996 128.53C7.30996 128.19 7.51996 127.88 7.77996 127.62C8.42996 126.94 9.40996 126.53 10.47 126.53C10.55 126.53 10.62 126.53 10.7 126.55C11.67 126.59 12.55 126.99 13.16 127.62C13.42 127.88 13.62 128.18 13.76 128.52L13.77 128.53L13.88 128.81V143.82H6.99996V128.94ZM10.26 149.06V149.55H10.62V149.06H10.26ZM10.26 149.06V149.55H10.62V149.06H10.26ZM10.26 149.06V149.55H10.62V149.06H10.26Z" fill="#403847"/>
<path d="M19.6498 149.86H3.0498V151.42H19.6498V149.86Z" fill="#1A181E"/>
<path d="M19.89 145.32H2.43C2.33 145.32 2.25 145.4 2.25 145.5C2.25 145.6 2.33 145.68 2.43 145.68H3.43L4.39 150.34L4.74 150.27L3.79 145.68H6.75V150.64H7.11V145.68H10.25V150.64H10.61V145.68H14.34L14.09 150.3L14.45 150.32L14.71 145.68H18.03L16.83 150.26L17.18 150.35L18.41 145.68H19.89C19.99 145.68 20.07 145.6 20.07 145.5C20.07 145.4 19.99 145.32 19.89 145.32Z" fill="#0B1906"/>
<path d="M79.1403 183.59H79.0003V156.76H52.7703V183.59H52.1903C51.4103 183.59 50.7803 184.1 50.7803 184.74V185.45H80.5603V184.74C80.5503 184.1 79.9203 183.59 79.1403 183.59Z" fill="#DFF2BF"/>
<path d="M77.0703 156.76H51.2803V183.87H77.0703V156.76Z" fill="#FAFAFF"/>
<path d="M75.5004 158.38H52.9404V183.87H75.5004V158.38Z" fill="#18C0D1"/>
<path d="M57.6304 162.35H75.5004V158.38H52.9404V183.87H57.6304V162.35Z" fill="#18C0D1"/>
<path d="M77.0603 183.87V183.86C76.8203 183.42 76.4003 183.09 75.8903 182.99V158.05H52.5503V182.95H52.5003C52.0203 182.95 51.6003 183.14 51.2803 183.46C50.9703 183.77 50.7803 184.2 50.7803 184.68H77.2703C77.2703 184.39 77.2003 184.11 77.0603 183.87ZM70.8503 177.27V171.26H75.1003V177.27H70.8503ZM75.1003 177.81V182.95H70.8503V177.81H75.1003ZM70.8503 170.72V164.88H75.1003V170.72H70.8503ZM70.2203 164.35H64.3203V158.71H70.2203V164.35ZM53.3303 170.72V164.88H57.8303V170.72H53.3303ZM57.8303 171.26V177.27H53.3303V171.26H57.8303ZM53.3303 164.35V158.71H57.8303V164.35H53.3303ZM58.4603 177.81H63.6903V182.95H58.4603V177.81ZM58.4603 177.27V171.26H63.6903V177.27H58.4603ZM58.4603 170.72V164.88H63.6903V170.72H58.4603ZM58.4603 164.35V158.71H63.6903V164.35H58.4603ZM64.3203 177.81H70.2203V182.95H64.3203V177.81ZM64.3203 177.27V171.26H70.2203V177.27H64.3203ZM64.3203 170.72V164.88H70.2203V170.72H64.3203ZM53.3303 177.81H57.8303V182.95H53.3303V177.81ZM75.1003 164.35H70.8503V158.71H75.1003V164.35Z" fill="#262816"/>
<path opacity="0.18" d="M63.3502 165.09H58.7202V170.42H63.3502V165.09Z" fill="#BDDBDB"/>
<path opacity="0.49" d="M69.7304 171.42H64.6704V176.85H69.7304V171.42Z" fill="#18C0D1"/>
<path opacity="0.49" d="M69.9404 159.06H64.6704V164.12H69.9404V159.06Z" fill="#18C0D1"/>
<path opacity="0.49" d="M69.9404 165.09H64.6704V170.05H69.9404V165.09Z" fill="#18C0D1"/>
<path d="M63.1302 171.56H58.7202V177.03H63.1302V171.56Z" fill="#18C0D1"/>
<path opacity="0.18" d="M63.1304 178.32H58.9204V182.52H63.1304V178.32Z" fill="#BDDBDB"/>
<path d="M34.0302 167.07H22.2402V190.28H34.0302V167.07Z" fill="#23233A"/>
<path d="M24.0903 169.29V174.94H32.4203V169.29H24.0903ZM31.7903 174.31H24.7103V169.92H31.7903V174.31Z" fill="#46466D"/>
<path d="M24.0903 182.7V188.35H32.4203V182.7H24.0903ZM31.7903 187.72H24.7103V183.33H31.7903V187.72Z" fill="#46466D"/>
<path d="M24.0903 176V181.64H32.4203V176H24.0903ZM31.7903 181.02H24.7103V176.63H31.7903V181.02Z" fill="#46466D"/>
<path d="M24.7102 178.77C24.7102 179.27 24.3102 179.67 23.8102 179.67C23.3102 179.67 22.9102 179.27 22.9102 178.77C22.9102 178.27 23.3102 177.87 23.8102 177.87C24.3102 177.87 24.7102 178.27 24.7102 178.77Z" fill="#DD7826"/>
<path d="M31.3403 125.41H25.5803L10.5603 103.88L9.59033 105.51L23.0903 125.41V127.05H31.3403L46.4103 147.23L31.3403 125.41Z" fill="#778379"/>
<path d="M80.8402 147.23V154.34H50.9102L46.4102 147.23H80.8402Z" fill="#778379"/>
<path d="M15.5103 108.81L41.7303 110.44L89.9603 143.11L41.7003 111.39L15.5103 108.81Z" fill="#086D65"/>
<path d="M281 190.28H1V205H281V190.28Z" fill="#086D65"/>
<path d="M281 190.28H150.15V195.62H281V190.28Z" fill="#086D65"/>
<path d="M104.21 175.71L97.72 148.98L91.23 175.71H92.78L91.23 182.1H104.21L102.66 175.71H104.21Z" fill="#879905"/>
<path d="M97.3702 172.61C99.2502 169.05 97.5802 149.58 97.5802 149.57L91.2402 175.86C93.2902 175.59 96.2002 174.82 97.3702 172.61Z" fill="#9FAA07"/>
<path d="M98.4201 182.1H97.3701V190.28H98.4201V182.1Z" fill="#7F2C18"/>
<path d="M97.3704 182.7C97.6704 182.74 98.0004 182.81 98.0704 182.95C98.1904 183.18 98.1104 188.47 98.0804 190.27H98.4104V182.09H97.3604V182.7H97.3704Z" fill="#662214"/>
<path d="M120.14 7H104.35V11.6H120.14V7Z" fill="white"/>
<path d="M148 7H132.21V11.6H148V7Z" fill="white"/>
<path d="M182.46 7H166.67V11.6H182.46V7Z" fill="white"/>
<path d="M197.7 13.53H96.9097V187.17H197.7V13.53Z" fill="white"/>
<path d="M201.52 187.17H93.0698V195.29H201.52V187.17Z" fill="#8E8D8A"/>
<path d="M176.13 192.58H118.48V195.29H176.13V192.58Z" fill="white"/>
<path d="M171.84 189.88H122.75V192.59H171.84V189.88Z" fill="white"/>
<path d="M166.58 187.17H128.03V189.88H166.58V187.17Z" fill="white"/>
<path d="M166.58 189.33H128.03V189.87H166.58V189.33Z" fill="#8AADC1"/>
<path d="M171.84 192.04H122.75V192.58H171.84V192.04Z" fill="#8AADC1"/>
<path d="M197.69 130.77H155.57V158.53H197.69V130.77Z" fill="#D8C497"/>
<path d="M156.49 130.77H155.57V158.53H156.49V130.77Z" fill="#938569"/>
<path d="M152.39 167.13H142.16V187.17H152.39V167.13Z" fill="#445C77"/>
<path d="M182.86 137.34H165.26V158.53H182.86V137.34Z" fill="white"/>
<path d="M181.91 138.5H174.57V157.45H181.91V138.5Z" fill="#445C77"/>
<path d="M173.5 138.5H166.16V157.45H173.5V138.5Z" fill="#445C77"/>
<path d="M197.69 162.61L96.9097 164.45V162.13H197.69V162.61Z" fill="#8E8E8E"/>
<path d="M155.57 133.05L96.9097 134.89V132.57H155.57V133.05Z" fill="#8E8E8E"/>
<path d="M197.69 133.44L155.57 135.95V132.57H197.69V133.44Z" fill="#938569"/>
<path d="M161.51 154.21H159.91V158.53H161.51V154.21Z" fill="white"/>
<path d="M179.999 154.21H178.399V158.53H179.999V154.21Z" fill="white"/>
<path d="M198.49 154.21H196.89V158.53H198.49V154.21Z" fill="white"/>
<path d="M189.249 154.21H187.649V158.53H189.249V154.21Z" fill="white"/>
<path d="M170.749 154.21H169.149V158.53H170.749V154.21Z" fill="white"/>
<path d="M161.51 154.21H159.91V155.07H161.51V154.21Z" fill="#8AADC1"/>
<path d="M179.999 154.21H178.399V155.07H179.999V154.21Z" fill="#8AADC1"/>
<path d="M198.49 154.21H196.89V155.07H198.49V154.21Z" fill="#8AADC1"/>
<path d="M189.249 154.21H187.649V155.07H189.249V154.21Z" fill="#8AADC1"/>
<path d="M170.749 154.21H169.149V155.07H170.749V154.21Z" fill="#8AADC1"/>
<path d="M200.3 158.53H94.29V162.13H200.3V158.53Z" fill="#303030"/>
<path d="M200.31 153.43H155.57V154.21H200.31V153.43Z" fill="white"/>
<path d="M134.38 162.13H129.4V187.17H134.38V162.13Z" fill="#D8C497"/>
<path d="M165.2 162.13H160.22V187.17H165.2V162.13Z" fill="#D8C497"/>
<path d="M134.38 162.13H129.4V163.29H134.38V162.13Z" fill="#938569"/>
<path d="M165.2 162.13H160.22V163.29H165.2V162.13Z" fill="#938569"/>
<path d="M106.68 172.49H103.54V183.55H106.68V172.49Z" fill="#445C77"/>
<path d="M106.68 167.78H103.54V171.54H106.68V167.78Z" fill="#445C77"/>
<path d="M117.72 172.49H107.31V183.55H117.72V172.49Z" fill="#445C77"/>
<path d="M117.72 167.78H107.31V171.54H117.72V167.78Z" fill="#445C77"/>
<path d="M121.499 172.49H118.359V183.55H121.499V172.49Z" fill="#445C77"/>
<path d="M121.499 167.78H118.359V171.54H121.499V167.78Z" fill="#445C77"/>
<path d="M102.76 167.13H102.26V185.06H122.23V184.52H102.76V167.13Z" fill="#8AADC1"/>
<path d="M106.68 143.11H103.54V154.17H106.68V143.11Z" fill="#445C77"/>
<path d="M106.68 138.4H103.54V142.16H106.68V138.4Z" fill="#445C77"/>
<path d="M117.72 143.11H107.31V154.17H117.72V143.11Z" fill="#445C77"/>
<path d="M117.72 138.4H107.31V142.16H117.72V138.4Z" fill="#445C77"/>
<path d="M121.499 143.11H118.359V154.17H121.499V143.11Z" fill="#445C77"/>
<path d="M121.499 138.4H118.359V142.16H121.499V138.4Z" fill="#445C77"/>
<path d="M102.76 137.75H102.26V155.67H122.23V155.13H102.76V137.75Z" fill="#8AADC1"/>
<path d="M197.69 101.21H155.57V128.97H197.69V101.21Z" fill="#D8C497"/>
<path d="M156.49 101.21H155.57V128.97H156.49V101.21Z" fill="#938569"/>
<path d="M200.3 99.41H94.29V103.01H200.3V99.41Z" fill="#303030"/>
<path d="M182.86 107.78H165.26V128.97H182.86V107.78Z" fill="white"/>
<path d="M181.91 108.94H174.57V127.89H181.91V108.94Z" fill="#445C77"/>
<path d="M173.5 108.94H166.16V127.89H173.5V108.94Z" fill="#445C77"/>
<path d="M155.57 103.49L96.9097 105.33V103.01H155.57V103.49Z" fill="#8E8E8E"/>
<path d="M197.69 103.88L155.57 106.38V103.01H197.69V103.88Z" fill="#938569"/>
<path d="M161.51 124.65H159.91V128.97H161.51V124.65Z" fill="white"/>
<path d="M179.999 124.65H178.399V128.97H179.999V124.65Z" fill="white"/>
<path d="M198.49 124.65H196.89V128.97H198.49V124.65Z" fill="white"/>
<path d="M189.249 124.65H187.649V128.97H189.249V124.65Z" fill="white"/>
<path d="M170.749 124.65H169.149V128.97H170.749V124.65Z" fill="white"/>
<path d="M161.51 124.65H159.91V125.51H161.51V124.65Z" fill="#8AADC1"/>
<path d="M179.999 124.65H178.399V125.51H179.999V124.65Z" fill="#8AADC1"/>
<path d="M198.49 124.65H196.89V125.51H198.49V124.65Z" fill="#8AADC1"/>
<path d="M189.249 124.65H187.649V125.51H189.249V124.65Z" fill="#8AADC1"/>
<path d="M170.749 124.65H169.149V125.51H170.749V124.65Z" fill="#8AADC1"/>
<path d="M200.31 123.87H155.57V124.65H200.31V123.87Z" fill="white"/>
<path d="M106.68 113.55H103.54V124.61H106.68V113.55Z" fill="#445C77"/>
<path d="M106.68 108.84H103.54V112.6H106.68V108.84Z" fill="#445C77"/>
<path d="M117.72 113.55H107.31V124.61H117.72V113.55Z" fill="#445C77"/>
<path d="M117.72 108.84H107.31V112.6H117.72V108.84Z" fill="#445C77"/>
<path d="M121.499 113.55H118.359V124.61H121.499V113.55Z" fill="#445C77"/>
<path d="M121.499 108.84H118.359V112.6H121.499V108.84Z" fill="#445C77"/>
<path d="M102.76 108.19H102.26V126.11H122.23V125.57H102.76V108.19Z" fill="#8AADC1"/>
<path d="M197.69 71.65H155.57V99.41H197.69V71.65Z" fill="#D8C497"/>
<path d="M156.49 71.65H155.57V99.41H156.49V71.65Z" fill="#938569"/>
<path d="M200.3 69.85H94.29V73.45H200.3V69.85Z" fill="#303030"/>
<path d="M182.86 78.22H165.26V99.41H182.86V78.22Z" fill="white"/>
<path d="M181.91 79.37H174.57V98.32H181.91V79.37Z" fill="#445C77"/>
<path d="M173.5 79.37H166.16V98.32H173.5V79.37Z" fill="#445C77"/>
<path d="M155.57 73.93L96.9097 75.77V73.45H155.57V73.93Z" fill="#8E8E8E"/>
<path d="M197.69 74.32L155.57 76.82V73.45H197.69V74.32Z" fill="#938569"/>
<path d="M161.51 95.09H159.91V99.41H161.51V95.09Z" fill="white"/>
<path d="M179.999 95.09H178.399V99.41H179.999V95.09Z" fill="white"/>
<path d="M198.49 95.09H196.89V99.41H198.49V95.09Z" fill="white"/>
<path d="M189.249 95.09H187.649V99.41H189.249V95.09Z" fill="white"/>
<path d="M170.749 95.09H169.149V99.41H170.749V95.09Z" fill="white"/>
<path d="M161.51 95.09H159.91V95.95H161.51V95.09Z" fill="#8AADC1"/>
<path d="M179.999 95.09H178.399V95.95H179.999V95.09Z" fill="#8AADC1"/>
<path d="M198.49 95.09H196.89V95.95H198.49V95.09Z" fill="#8AADC1"/>
<path d="M189.249 95.09H187.649V95.95H189.249V95.09Z" fill="#8AADC1"/>
<path d="M170.749 95.09H169.149V95.95H170.749V95.09Z" fill="#8AADC1"/>
<path d="M200.31 94.3H155.57V95.08H200.31V94.3Z" fill="white"/>
<path d="M106.68 83.99H103.54V95.05H106.68V83.99Z" fill="#445C77"/>
<path d="M106.68 79.27H103.54V83.03H106.68V79.27Z" fill="#445C77"/>
<path d="M117.72 83.99H107.31V95.05H117.72V83.99Z" fill="#445C77"/>
<path d="M117.72 79.27H107.31V83.03H117.72V79.27Z" fill="#445C77"/>
<path d="M121.499 83.99H118.359V95.05H121.499V83.99Z" fill="#445C77"/>
<path d="M121.499 79.27H118.359V83.03H121.499V79.27Z" fill="#445C77"/>
<path d="M102.76 78.63H102.26V96.55H122.23V96.01H102.76V78.63Z" fill="#8AADC1"/>
<path d="M134.269 143.11H131.129V154.17H134.269V143.11Z" fill="#445C77"/>
<path d="M134.269 138.4H131.129V142.16H134.269V138.4Z" fill="#445C77"/>
<path d="M145.309 143.11H134.899V154.17H145.309V143.11Z" fill="#445C77"/>
<path d="M145.309 138.4H134.899V142.16H145.309V138.4Z" fill="#445C77"/>
<path d="M149.089 143.11H145.949V154.17H149.089V143.11Z" fill="#445C77"/>
<path d="M149.089 138.4H145.949V142.16H149.089V138.4Z" fill="#445C77"/>
<path d="M130.35 137.75H129.85V155.67H149.83V155.13H130.35V137.75Z" fill="#8AADC1"/>
<path d="M134.269 113.55H131.129V124.61H134.269V113.55Z" fill="#445C77"/>
<path d="M134.269 108.84H131.129V112.6H134.269V108.84Z" fill="#445C77"/>
<path d="M145.309 113.55H134.899V124.61H145.309V113.55Z" fill="#445C77"/>
<path d="M145.309 108.84H134.899V112.6H145.309V108.84Z" fill="#445C77"/>
<path d="M149.089 113.55H145.949V124.61H149.089V113.55Z" fill="#445C77"/>
<path d="M149.089 108.84H145.949V112.6H149.089V108.84Z" fill="#445C77"/>
<path d="M130.35 108.19H129.85V126.11H149.83V125.57H130.35V108.19Z" fill="#8AADC1"/>
<path d="M134.269 83.99H131.129V95.05H134.269V83.99Z" fill="#445C77"/>
<path d="M134.269 79.27H131.129V83.03H134.269V79.27Z" fill="#445C77"/>
<path d="M145.309 83.99H134.899V95.05H145.309V83.99Z" fill="#445C77"/>
<path d="M145.309 79.27H134.899V83.03H145.309V79.27Z" fill="#445C77"/>
<path d="M149.089 83.99H145.949V95.05H149.089V83.99Z" fill="#445C77"/>
<path d="M149.089 79.27H145.949V83.03H149.089V79.27Z" fill="#445C77"/>
<path d="M130.35 78.63H129.85V96.55H149.83V96.01H130.35V78.63Z" fill="#8AADC1"/>
<path d="M197.69 42.09H155.57V69.85H197.69V42.09Z" fill="#D8C497"/>
<path d="M156.49 42.09H155.57V69.85H156.49V42.09Z" fill="#938569"/>
<path d="M200.3 40.29H94.29V43.89H200.3V40.29Z" fill="#303030"/>
<path d="M182.86 48.66H165.26V69.85H182.86V48.66Z" fill="white"/>
<path d="M181.91 49.8101H174.57V68.7601H181.91V49.8101Z" fill="#445C77"/>
<path d="M173.5 49.8101H166.16V68.7601H173.5V49.8101Z" fill="#445C77"/>
<path d="M155.57 44.37L96.9097 46.21V43.89H155.57V44.37Z" fill="#8E8E8E"/>
<path d="M197.69 44.75L155.57 47.26V43.89H197.69V44.75Z" fill="#938569"/>
<path d="M161.51 65.53H159.91V69.85H161.51V65.53Z" fill="white"/>
<path d="M179.999 65.53H178.399V69.85H179.999V65.53Z" fill="white"/>
<path d="M198.49 65.53H196.89V69.85H198.49V65.53Z" fill="white"/>
<path d="M189.249 65.53H187.649V69.85H189.249V65.53Z" fill="white"/>
<path d="M170.749 65.53H169.149V69.85H170.749V65.53Z" fill="white"/>
<path d="M161.51 65.53H159.91V66.39H161.51V65.53Z" fill="#8AADC1"/>
<path d="M179.999 65.53H178.399V66.39H179.999V65.53Z" fill="#8AADC1"/>
<path d="M198.49 65.53H196.89V66.39H198.49V65.53Z" fill="#8AADC1"/>
<path d="M189.249 65.53H187.649V66.39H189.249V65.53Z" fill="#8AADC1"/>
<path d="M170.749 65.53H169.149V66.39H170.749V65.53Z" fill="#8AADC1"/>
<path d="M200.31 64.74H155.57V65.52H200.31V64.74Z" fill="white"/>
<path d="M106.68 54.4299H103.54V65.4899H106.68V54.4299Z" fill="#445C77"/>
<path d="M106.68 49.71H103.54V53.47H106.68V49.71Z" fill="#445C77"/>
<path d="M117.72 54.4299H107.31V65.4899H117.72V54.4299Z" fill="#445C77"/>
<path d="M117.72 49.71H107.31V53.47H117.72V49.71Z" fill="#445C77"/>
<path d="M121.499 54.4299H118.359V65.4899H121.499V54.4299Z" fill="#445C77"/>
<path d="M121.499 49.71H118.359V53.47H121.499V49.71Z" fill="#445C77"/>
<path d="M102.76 49.0699H102.26V66.9899H122.23V66.4499H102.76V49.0699Z" fill="#8AADC1"/>
<path d="M134.269 54.4299H131.129V65.4899H134.269V54.4299Z" fill="#445C77"/>
<path d="M134.269 49.71H131.129V53.47H134.269V49.71Z" fill="#445C77"/>
<path d="M145.309 54.4299H134.899V65.4899H145.309V54.4299Z" fill="#445C77"/>
<path d="M145.309 49.71H134.899V53.47H145.309V49.71Z" fill="#445C77"/>
<path d="M149.089 54.4299H145.949V65.4899H149.089V54.4299Z" fill="#445C77"/>
<path d="M149.089 49.71H145.949V53.47H149.089V49.71Z" fill="#445C77"/>
<path d="M130.35 49.0699H129.85V66.9899H149.83V66.4499H130.35V49.0699Z" fill="#8AADC1"/>
<path d="M197.69 12.53H155.57V40.29H197.69V12.53Z" fill="#D8C497"/>
<path d="M156.49 12.53H155.57V40.29H156.49V12.53Z" fill="#938569"/>
<path d="M200.3 10.73H94.29V14.33H200.3V10.73Z" fill="#303030"/>
<path d="M182.86 19.1H165.26V40.29H182.86V19.1Z" fill="white"/>
<path d="M181.91 20.25H174.57V39.2H181.91V20.25Z" fill="#445C77"/>
<path d="M173.5 20.25H166.16V39.2H173.5V20.25Z" fill="#445C77"/>
<path d="M155.57 14.81L96.9097 16.65V14.33H155.57V14.81Z" fill="#8E8E8E"/>
<path d="M197.69 15.19L155.57 17.7V14.33H197.69V15.19Z" fill="#9B8A72"/>
<path d="M161.51 35.96H159.91V40.28H161.51V35.96Z" fill="white"/>
<path d="M179.999 35.96H178.399V40.28H179.999V35.96Z" fill="white"/>
<path d="M198.49 35.96H196.89V40.28H198.49V35.96Z" fill="white"/>
<path d="M189.249 35.96H187.649V40.28H189.249V35.96Z" fill="white"/>
<path d="M170.749 35.96H169.149V40.28H170.749V35.96Z" fill="white"/>
<path d="M161.51 35.96H159.91V36.82H161.51V35.96Z" fill="#8AADC1"/>
<path d="M179.999 35.96H178.399V36.82H179.999V35.96Z" fill="#8AADC1"/>
<path d="M198.49 35.96H196.89V36.82H198.49V35.96Z" fill="#8AADC1"/>
<path d="M189.249 35.96H187.649V36.82H189.249V35.96Z" fill="#8AADC1"/>
<path d="M170.749 35.96H169.149V36.82H170.749V35.96Z" fill="#8AADC1"/>
<path d="M200.31 35.1801H155.57V35.9601H200.31V35.1801Z" fill="white"/>
<path d="M106.68 24.87H103.54V35.93H106.68V24.87Z" fill="#445C77"/>
<path d="M106.68 20.15H103.54V23.91H106.68V20.15Z" fill="#445C77"/>
<path d="M117.72 24.87H107.31V35.93H117.72V24.87Z" fill="#445C77"/>
<path d="M117.72 20.15H107.31V23.91H117.72V20.15Z" fill="#445C77"/>
<path d="M121.499 24.87H118.359V35.93H121.499V24.87Z" fill="#445C77"/>
<path d="M121.499 20.15H118.359V23.91H121.499V20.15Z" fill="#445C77"/>
<path d="M102.76 19.51H102.26V37.43H122.23V36.89H102.76V19.51Z" fill="#8AADC1"/>
<path d="M134.269 24.87H131.129V35.93H134.269V24.87Z" fill="#445C77"/>
<path d="M134.269 20.15H131.129V23.91H134.269V20.15Z" fill="#445C77"/>
<path d="M145.309 24.87H134.899V35.93H145.309V24.87Z" fill="#445C77"/>
<path d="M145.309 20.15H134.899V23.91H145.309V20.15Z" fill="#445C77"/>
<path d="M149.089 24.87H145.949V35.93H149.089V24.87Z" fill="#445C77"/>
<path d="M149.089 20.15H145.949V23.91H149.089V20.15Z" fill="#445C77"/>
<path d="M130.35 19.51H129.85V37.43H149.83V36.89H130.35V19.51Z" fill="#8AADC1"/>
<path d="M175.03 172.49H171.33V183.55H175.03V172.49Z" fill="#445C77"/>
<path d="M175.03 167.78H171.33V171.54H175.03V167.78Z" fill="#445C77"/>
<path d="M188.09 172.49H175.79V183.55H188.09V172.49Z" fill="#445C77"/>
<path d="M188.09 167.78H175.79V171.54H188.09V167.78Z" fill="#445C77"/>
<path d="M192.539 172.49H188.839V183.55H192.539V172.49Z" fill="#445C77"/>
<path d="M192.539 167.78H188.839V171.54H192.539V167.78Z" fill="#445C77"/>
<path d="M170.42 167.13H169.83V185.06H193.42V184.52H170.42V167.13Z" fill="#8AADC1"/>
<path d="M141.41 167.13H141.08V187.17H141.41V167.13Z" fill="#8AADC1"/>
<path d="M153.47 167.13H153.14V187.17H153.47V167.13Z" fill="#8AADC1"/>
<path d="M154.42 165.62H140.13V167.13H154.42V165.62Z" fill="#D8C497"/>
<path d="M200.3 128.97H94.29V132.57H200.3V128.97Z" fill="#303030"/>
<path d="M45.3298 195.35H65.3498C65.0698 194.31 64.3398 193.49 63.5098 193.12C62.6198 192.72 61.6198 192.78 60.7098 193.08C60.8798 193.02 61.1098 192.68 61.2198 192.53C61.4998 192.18 61.7298 191.81 61.7898 191.32C61.8598 190.78 61.7198 190.23 61.4298 189.8C60.9398 189.08 60.0798 188.83 59.3098 188.92C59.2698 188.92 59.2298 188.93 59.1898 188.94C59.0398 188.97 58.8898 189.01 58.7498 189.07C58.1298 189.34 57.5898 189.83 57.1198 190.36C57.0298 190.46 56.9498 190.56 56.8698 190.67C56.8698 190.67 58.1698 189.43 58.4798 188.49C59.6098 185.82 57.2198 181.93 54.2498 183.03C53.0598 183.61 52.0798 184.79 51.4398 186.17C53.8198 182.09 49.8798 179.62 48.4698 183.29C49.3398 180.27 48.0398 177.1 45.4298 178.88C45.3898 178.9 45.3598 178.92 45.3198 178.93V195.35H45.3298Z" fill="#479DA3"/>
<path d="M45.3296 195.35H57.1296C56.9596 194.74 56.5396 194.25 56.0496 194.03C55.5196 193.79 54.9396 193.83 54.3996 194.01C54.6796 193.4 54.2996 192.57 53.7696 192.33C53.2396 192.09 52.6496 192.29 52.1396 192.59C52.5796 192.36 52.9096 191.86 53.0896 191.31C53.7596 189.73 52.3496 187.45 50.5996 188.09C49.8996 188.43 49.3196 189.12 48.9396 189.94C50.3396 187.54 48.0196 186.08 47.1896 188.24C47.9896 185.88 46.4396 184.49 45.3396 185.02V195.35H45.3296Z" fill="#7BBFBA"/>
<path d="M57.56 182.43C57.24 182.76 56.79 182.71 56.79 182.71C56.79 182.71 56.85 182.14 57.16 181.81C57.48 181.48 57.93 181.53 57.93 181.53C57.93 181.53 57.88 182.11 57.56 182.43Z" fill="#479DA3"/>
<path d="M48.4597 186.22C48.2197 186.71 47.7197 186.85 47.7197 186.85C47.7197 186.85 47.5897 186.21 47.8297 185.72C48.0697 185.23 48.5697 185.09 48.5697 185.09C48.5697 185.09 48.6997 185.73 48.4597 186.22Z" fill="#7BBFBA"/>
<path d="M56.5996 181.14C56.7296 181.83 56.4196 182.52 56.4196 182.52C56.4196 182.52 55.8896 182.09 55.7496 181.41C55.6196 180.72 55.9296 180.03 55.9296 180.03C55.9296 180.03 56.4696 180.45 56.5996 181.14Z" fill="#479DA3"/>
<path d="M229.29 195.29L228.79 187.98L232.83 183.3L232.58 183.1L230.2 185.14L229.85 183.1L229.47 183.2L229.54 185.74L228.57 186.69L228.2 179.22L230.18 176.77L229.96 176.58L227.91 178.22L227.77 174.32H227.24L226.89 179.12L226.37 183.89L223.7 180.99L223.45 181.16L224.42 182.69L222.72 182.67V182.95L224.58 183.23L226.4 186.09L225.98 195.29H229.29Z" fill="#994F61"/>
<path d="M212.03 168.87C212 167.96 212.07 167.02 212.45 166.19C212.83 165.36 213.58 164.66 214.48 164.53C215 164.46 215.58 164.6 215.91 165.02C214.89 163.76 213.96 162.37 213.56 160.8C213.16 159.23 213.36 157.43 214.4 156.19C215.41 155 217.09 154.48 218.63 154.71C220.17 154.94 221.57 155.84 222.59 157.02C222.48 154.58 221.92 152.12 222.36 149.72C222.81 147.32 224.71 144.91 227.16 145.02C228.81 145.09 230.21 146.28 231.26 147.55C233.45 150.2 234.8 153.53 235.07 156.96C235.7 156.09 236.35 155.2 237.2 154.54C238.05 153.87 239.14 153.44 240.21 153.62C241.96 153.91 243.08 155.69 243.5 157.41C243.96 159.25 243.89 161.21 243.31 163.02C242.36 166 240.12 168.37 237.95 170.63C238.95 170.19 240.2 170.79 240.69 171.76C241.35 173.09 240.72 174.62 239.81 175.68C239.04 176.57 238.03 177.21 236.98 177.74C231.1 180.69 223.94 180.27 218.01 177.7C215.81 176.75 214.27 175.17 213.1 173.06C213.1 173.05 213.09 173.04 213.09 173.04C212.38 171.77 212.08 170.31 212.03 168.87Z" fill="#479DA3"/>
<path d="M230.919 181.25C231.199 180.93 232.009 180.81 231.989 181.39C232.229 179.59 234.579 180.27 233.479 181.99C235.279 180.12 236.879 182.51 234.549 183.58C236.529 183.62 235.429 186.45 233.689 185.22C234.389 185.64 233.949 186.57 233.189 186.45C231.159 186.12 229.099 182.9 230.919 181.25Z" fill="#479DA3"/>
<path d="M234.44 175.95C234.6 175.47 234.72 174.96 234.65 174.46C234.58 173.96 234.29 173.47 233.83 173.25C233.56 173.13 233.23 173.11 232.99 173.28C233.73 172.77 234.45 172.18 234.91 171.41C235.37 170.64 235.55 169.65 235.2 168.82C234.86 168.02 234.04 167.48 233.19 167.36C232.33 167.23 231.45 167.49 230.72 167.96C231.17 166.68 231.86 165.46 232.01 164.11C232.16 162.76 231.53 161.18 230.21 160.85C229.32 160.62 228.39 161.03 227.62 161.54C226.03 162.6 224.78 164.16 224.09 165.93C223.89 165.36 223.69 164.79 223.34 164.3C223 163.81 222.48 163.41 221.89 163.33C220.91 163.2 220.04 163.97 219.53 164.82C218.99 165.73 218.72 166.78 218.73 167.83C218.76 169.57 219.57 171.19 220.37 172.73C219.91 172.33 219.15 172.45 218.73 172.9C218.17 173.5 218.26 174.42 218.57 175.13C218.84 175.73 219.27 176.23 219.75 176.68C222.41 179.19 226.28 180.11 229.85 179.69C231.17 179.53 232.24 178.94 233.2 178.01L233.21 178C233.79 177.44 234.18 176.71 234.44 175.95Z" fill="#7BBFBA"/>
<path d="M241.11 169.83C240.77 170.44 240.97 171.2 240.97 171.2C240.97 171.2 241.72 170.97 242.06 170.35C242.4 169.74 242.2 168.98 242.2 168.98C242.2 168.98 241.44 169.22 241.11 169.83Z" fill="#479DA3"/>
<path d="M243.13 171.13C242.17 171.07 241.35 171.77 241.35 171.77C241.35 171.77 242.08 172.56 243.04 172.62C244 172.68 244.82 171.98 244.82 171.98C244.82 171.98 244.09 171.18 243.13 171.13Z" fill="#479DA3"/>
<path d="M222.08 183.52C222.42 183.38 222.59 182.99 222.59 182.99C222.59 182.99 222.2 182.84 221.86 182.98C221.52 183.12 221.35 183.51 221.35 183.51C221.35 183.51 221.74 183.66 222.08 183.52Z" fill="#479DA3"/>
<path d="M221.66 182.3C222.04 182.64 222.619 182.62 222.619 182.62C222.619 182.62 222.569 182.05 222.189 181.7C221.809 181.36 221.229 181.38 221.229 181.38C221.229 181.38 221.28 181.96 221.66 182.3Z" fill="#479DA3"/>
<path d="M222.189 162.22C222.679 162.72 223.459 162.75 223.459 162.75C223.459 162.75 223.449 161.97 222.959 161.47C222.469 160.97 221.689 160.94 221.689 160.94C221.689 160.94 221.699 161.72 222.189 162.22Z" fill="#7BBFBA"/>
<path d="M233.98 166.19C233.53 166.36 233.29 166.85 233.29 166.85C233.29 166.85 233.79 167.06 234.24 166.89C234.69 166.72 234.93 166.23 234.93 166.23C234.93 166.23 234.44 166.02 233.98 166.19Z" fill="#7BBFBA"/>
<path d="M224.01 160.66C223.68 161.56 224.11 162.55 224.11 162.55C224.11 162.55 225.08 162.08 225.41 161.17C225.74 160.27 225.31 159.28 225.31 159.28C225.31 159.28 224.34 159.76 224.01 160.66Z" fill="#7BBFBA"/>
<path d="M232.09 185.39C232.27 185.41 232.45 185.42 232.61 185.4C232.85 185.37 233.09 185.26 233.25 185.08C233.38 184.92 233.45 184.67 233.38 184.47C233.27 184.18 232.89 184.25 232.72 184.03C232.62 183.91 232.62 183.74 232.64 183.59C232.66 183.44 232.7 183.28 232.66 183.13C232.62 182.98 232.48 182.84 232.33 182.88C232.22 182.91 232.15 183.02 232.07 183.09C232.02 183.14 231.96 183.18 231.9 183.18C231.62 183.17 231.55 182.75 231.25 182.8C230.94 182.85 230.76 183.18 230.68 183.45C230.53 183.93 230.6 184.45 230.93 184.85C231.22 185.19 231.65 185.33 232.09 185.39Z" fill="#7BBFBA"/>
<path d="M81.3299 195.29L80.9699 190.03L83.8799 186.66L83.6999 186.51L81.9899 187.98L81.7399 186.51L81.4599 186.58L81.5099 188.42L80.8099 189.09L80.5499 183.72L81.9699 181.95L81.8099 181.82L80.3399 183L80.2399 180.19H79.8599L79.5999 183.64L79.2299 187.08L77.3099 184.99L77.1299 185.11L77.8299 186.22L76.6099 186.2V186.4L77.9399 186.61L79.2499 188.66L78.9499 195.29H81.3299Z" fill="#994F61"/>
<path d="M68.9097 176.26C68.8897 175.6 68.9397 174.93 69.2097 174.33C69.4897 173.73 70.0197 173.23 70.6697 173.14C71.0497 173.09 71.4697 173.19 71.6997 173.49C70.9697 172.58 70.2997 171.58 70.0097 170.45C69.7197 169.32 69.8697 168.02 70.6197 167.13C71.3397 166.27 72.5597 165.9 73.6697 166.06C74.7797 166.22 75.7897 166.87 76.5197 167.73C76.4397 165.97 76.0397 164.2 76.3597 162.47C76.6797 160.74 78.0597 159.01 79.8097 159.09C80.9997 159.14 81.9997 160 82.7597 160.92C84.3397 162.83 85.3097 165.23 85.4997 167.69C85.9597 167.06 86.4197 166.42 87.0297 165.94C87.6397 165.46 88.4297 165.15 89.1897 165.27C90.4497 165.48 91.2497 166.76 91.5597 168C91.8897 169.32 91.8397 170.74 91.4197 172.04C90.7297 174.19 89.1197 175.89 87.5597 177.52C88.2797 177.2 89.1797 177.63 89.5297 178.34C89.9997 179.3 89.5497 180.4 88.8997 181.16C88.3497 181.8 87.6197 182.26 86.8597 182.64C82.6197 184.77 77.4697 184.46 73.1997 182.61C71.6097 181.92 70.5097 180.79 69.6597 179.27C69.6597 179.26 69.6497 179.26 69.6497 179.25C69.1597 178.35 68.9397 177.3 68.9097 176.26Z" fill="#479DA3"/>
<path d="M82.5097 185.18C82.7097 184.95 83.2897 184.86 83.2797 185.28C83.4497 183.99 85.1397 184.48 84.3497 185.71C85.6497 184.36 86.7997 186.09 85.1197 186.86C86.5497 186.89 85.7497 188.93 84.4997 188.04C85.0097 188.34 84.6797 189.01 84.1397 188.93C82.6797 188.68 81.1997 186.37 82.5097 185.18Z" fill="#479DA3"/>
<path d="M85.0399 181.36C85.1599 181.02 85.2399 180.65 85.1899 180.29C85.1399 179.93 84.9299 179.57 84.5999 179.42C84.4099 179.33 84.1699 179.32 83.9999 179.44C84.5299 179.07 85.0499 178.65 85.3799 178.09C85.7099 177.53 85.8399 176.82 85.5899 176.23C85.3399 175.66 84.7599 175.27 84.1399 175.18C83.5199 175.09 82.8799 175.27 82.3599 175.61C82.6799 174.69 83.1799 173.81 83.2899 172.84C83.3999 171.87 82.9399 170.73 81.9899 170.49C81.3499 170.33 80.6799 170.62 80.1299 170.99C78.9899 171.75 78.0899 172.87 77.5899 174.15C77.4499 173.74 77.2999 173.33 77.0499 172.98C76.7999 172.63 76.4299 172.34 76.0099 172.28C75.3099 172.19 74.6699 172.74 74.3099 173.35C73.9199 174 73.7199 174.76 73.7399 175.52C73.7599 176.77 74.3499 177.94 74.9199 179.05C74.5899 178.77 74.0399 178.85 73.7399 179.17C73.3399 179.6 73.3999 180.26 73.6299 180.77C73.8199 181.2 74.1399 181.56 74.4799 181.88C76.3899 183.69 79.1799 184.35 81.7499 184.05C82.6999 183.94 83.4699 183.51 84.1699 182.84L84.1799 182.83C84.5799 182.43 84.8599 181.91 85.0399 181.36Z" fill="#7BBFBA"/>
<path d="M89.8398 176.96C89.5998 177.4 89.7398 177.95 89.7398 177.95C89.7398 177.95 90.2798 177.78 90.5198 177.34C90.7598 176.9 90.6198 176.35 90.6198 176.35C90.6198 176.35 90.0898 176.52 89.8398 176.96Z" fill="#479DA3"/>
<path d="M91.2995 177.89C90.6095 177.85 90.0195 178.35 90.0195 178.35C90.0195 178.35 90.5495 178.92 91.2395 178.96C91.9295 179 92.5195 178.5 92.5195 178.5C92.5195 178.5 91.9895 177.93 91.2995 177.89Z" fill="#479DA3"/>
<path d="M76.1399 186.81C76.3899 186.71 76.5099 186.43 76.5099 186.43C76.5099 186.43 76.2299 186.32 75.9799 186.43C75.7299 186.53 75.6099 186.81 75.6099 186.81C75.6099 186.81 75.8899 186.91 76.1399 186.81Z" fill="#479DA3"/>
<path d="M75.8398 185.94C76.1198 186.19 76.5298 186.17 76.5298 186.17C76.5298 186.17 76.4998 185.76 76.2198 185.51C75.9398 185.26 75.5298 185.28 75.5298 185.28C75.5298 185.28 75.5698 185.69 75.8398 185.94Z" fill="#479DA3"/>
<path d="M76.2199 171.47C76.5699 171.83 77.1399 171.85 77.1399 171.85C77.1399 171.85 77.1299 171.29 76.7799 170.92C76.4299 170.56 75.8599 170.54 75.8599 170.54C75.8599 170.54 75.8699 171.11 76.2199 171.47Z" fill="#7BBFBA"/>
<path d="M84.7097 174.33C84.3797 174.45 84.2197 174.81 84.2197 174.81C84.2197 174.81 84.5797 174.96 84.9097 174.84C85.2397 174.72 85.3997 174.36 85.3997 174.36C85.3997 174.36 85.0397 174.21 84.7097 174.33Z" fill="#7BBFBA"/>
<path d="M77.5296 170.35C77.2896 171 77.5996 171.71 77.5996 171.71C77.5996 171.71 78.2996 171.37 78.5396 170.72C78.7796 170.07 78.4696 169.36 78.4696 169.36C78.4696 169.36 77.7696 169.7 77.5296 170.35Z" fill="#7BBFBA"/>
<path d="M83.3495 188.16C83.4795 188.18 83.6095 188.18 83.7195 188.17C83.8895 188.15 84.0695 188.07 84.1795 187.94C84.2695 187.83 84.3295 187.64 84.2695 187.5C84.1895 187.29 83.9195 187.34 83.7895 187.18C83.7195 187.09 83.7195 186.97 83.7295 186.86C83.7395 186.75 83.7695 186.64 83.7395 186.53C83.7095 186.42 83.6095 186.32 83.4995 186.35C83.4195 186.37 83.3695 186.45 83.3095 186.5C83.2795 186.54 83.2295 186.57 83.1895 186.57C82.9895 186.57 82.9395 186.26 82.7195 186.3C82.4995 186.34 82.3695 186.57 82.3095 186.77C82.1995 187.12 82.2495 187.49 82.4895 187.78C82.7195 188.02 83.0295 188.12 83.3495 188.16Z" fill="#7BBFBA"/>
<path d="M63.6699 195.29H60.9199L61.4399 188.14H63.1499L63.6699 195.29Z" fill="#0F3554"/>
<path d="M62.7496 164.36H61.8496V195.29H62.7496V164.36Z" fill="#0F3554"/>
<path d="M63.7198 164.36H60.8798L59.8398 159.22H64.7598L63.7198 164.36Z" fill="#0F3554"/>
<path d="M63.19 163.41H61.41L60.75 160.17H63.85L63.19 163.41Z" fill="white"/>
<path d="M63.7198 157.91H60.8798L59.8398 159.22H64.7598L63.7198 157.91Z" fill="#0F3554"/>
<path d="M63.9299 164.36H60.6699C60.5199 164.36 60.3999 164.24 60.3999 164.09C60.3999 163.94 60.5199 163.82 60.6699 163.82H63.9299C64.0799 163.82 64.1999 163.94 64.1999 164.09C64.1999 164.24 64.0799 164.36 63.9299 164.36Z" fill="#0F3554"/>
<path d="M63.1896 188.41H61.4096C61.2596 188.41 61.1396 188.29 61.1396 188.14C61.1396 187.99 61.2596 187.87 61.4096 187.87H63.1896C63.3396 187.87 63.4596 187.99 63.4596 188.14C63.4596 188.29 63.3396 188.41 63.1896 188.41Z" fill="#0F3554"/>
<path d="M63.0698 157.91C63.0698 158.34 62.7198 158.68 62.2998 158.68C61.8698 158.68 61.5298 158.33 61.5298 157.91C61.5298 157.48 61.8798 157.14 62.2998 157.14C62.7298 157.14 63.0698 157.48 63.0698 157.91Z" fill="#0F3554"/>
<path d="M208.74 195.29H205.99L206.51 188.14H208.21L208.74 195.29Z" fill="#0F3554"/>
<path d="M207.81 164.36H206.91V195.29H207.81V164.36Z" fill="#0F3554"/>
<path d="M208.78 164.36H205.94L204.9 159.22H209.82L208.78 164.36Z" fill="#0F3554"/>
<path d="M208.25 163.41H206.47L205.81 160.17H208.91L208.25 163.41Z" fill="white"/>
<path d="M208.78 157.91H205.94L204.9 159.22H209.82L208.78 157.91Z" fill="#0F3554"/>
<path d="M208.99 164.36H205.73C205.58 164.36 205.46 164.24 205.46 164.09C205.46 163.94 205.58 163.82 205.73 163.82H208.99C209.14 163.82 209.26 163.94 209.26 164.09C209.26 164.24 209.14 164.36 208.99 164.36Z" fill="#0F3554"/>
<path d="M208.25 188.41H206.47C206.32 188.41 206.2 188.29 206.2 188.14C206.2 187.99 206.32 187.87 206.47 187.87H208.25C208.4 187.87 208.52 187.99 208.52 188.14C208.52 188.29 208.4 188.41 208.25 188.41Z" fill="#0F3554"/>
<path d="M208.14 157.91C208.14 158.34 207.79 158.68 207.37 158.68C206.95 158.68 206.6 158.33 206.6 157.91C206.6 157.48 206.95 157.14 207.37 157.14C207.79 157.14 208.14 157.48 208.14 157.91Z" fill="#0F3554"/>
<path d="M179.99 200.45C182.58 192.21 193.21 190.91 196.72 198.87C201.11 197.67 204.63 199.23 207.51 202.43C208.92 200.64 212.28 199.94 214.78 201.4C216.79 195.02 225.02 194.01 227.74 200.18C231.86 199.05 235 201.07 237.46 204.67H209.27H204.35H166.53C170.65 201.17 175.02 199.03 179.99 200.45Z" fill="#479DA3"/>
<path d="M189.97 204.62C189.97 204.62 193.09 201.81 199.42 202.51C201.22 200.8 203.39 200.04 206.01 200.76C208.34 195.47 215.41 196.33 217.14 201.81C220.45 200.86 223.36 202.29 226.11 204.62H189.97Z" fill="#7BBFBA"/>
<path d="M157.93 204.62C159.69 202.04 162.47 202.02 165.42 202.83C167.36 198.42 174.49 198.65 175.93 203.22C181.26 201.39 183.6 204.62 183.6 204.62H157.93Z" fill="#7BBFBA"/>
<path d="M187.89 192.1C188.22 192.75 189 193.01 189 193.01C189 193.01 189.23 192.23 188.9 191.58C188.57 190.93 187.79 190.67 187.79 190.67C187.79 190.67 187.56 191.46 187.89 192.1Z" fill="#479DA3"/>
<path d="M190.19 191.1C189.58 191.9 189.71 193.02 189.71 193.02C189.71 193.02 190.82 192.84 191.43 192.04C192.04 191.24 191.91 190.12 191.91 190.12C191.91 190.12 190.8 190.31 190.19 191.1Z" fill="#479DA3"/>
<path d="M220.12 199.87C220.31 200.57 221.01 201 221.01 201C221.01 201 221.4 200.28 221.21 199.58C221.02 198.88 220.32 198.45 220.32 198.45C220.32 198.45 219.93 199.16 220.12 199.87Z" fill="#7BBFBA"/>
<path d="M222.57 199.37C221.81 200.02 221.7 201.14 221.7 201.14C221.7 201.14 222.82 201.2 223.58 200.54C224.34 199.89 224.45 198.77 224.45 198.77C224.45 198.77 223.33 198.71 222.57 199.37Z" fill="#7BBFBA"/>
<path d="M75.0699 201.63C73.1999 195.69 65.5299 194.75 62.9999 200.49C59.8399 199.62 57.2899 200.75 55.2099 203.06C54.1899 201.77 51.7699 201.27 49.9699 202.32C48.5199 197.71 42.5799 196.99 40.6199 201.44C37.6499 200.62 35.3799 202.08 33.6099 204.68H53.9499H57.4999H84.7999C81.8099 202.15 78.6599 200.6 75.0699 201.63Z" fill="#479DA3"/>
<path d="M67.8698 204.63C67.8698 204.63 65.6198 202.6 61.0498 203.11C59.7498 201.88 58.1898 201.32 56.2998 201.84C54.6198 198.02 49.5198 198.64 48.2698 202.6C45.8798 201.92 43.7898 202.94 41.7998 204.63H67.8698Z" fill="#7BBFBA"/>
<path d="M90.99 204.63C89.72 202.77 87.71 202.76 85.58 203.34C84.18 200.16 79.04 200.32 78 203.62C74.15 202.3 72.46 204.63 72.46 204.63H90.99Z" fill="#7BBFBA"/>
<path d="M69.3701 195.6C69.1301 196.07 68.5701 196.26 68.5701 196.26C68.5701 196.26 68.4001 195.69 68.6401 195.23C68.8801 194.76 69.4401 194.57 69.4401 194.57C69.4401 194.57 69.6101 195.14 69.3701 195.6Z" fill="#479DA3"/>
<path d="M67.71 194.88C68.15 195.46 68.06 196.26 68.06 196.26C68.06 196.26 67.26 196.13 66.82 195.56C66.38 194.98 66.47 194.18 66.47 194.18C66.47 194.18 67.28 194.31 67.71 194.88Z" fill="#479DA3"/>
<path d="M46.12 201.21C45.98 201.72 45.48 202.02 45.48 202.02C45.48 202.02 45.2 201.5 45.34 200.99C45.48 200.48 45.98 200.18 45.98 200.18C45.98 200.18 46.26 200.7 46.12 201.21Z" fill="#7BBFBA"/>
<path d="M44.3497 200.85C44.8997 201.32 44.9797 202.13 44.9797 202.13C44.9797 202.13 44.1697 202.17 43.6197 201.7C43.0697 201.23 42.9897 200.42 42.9897 200.42C42.9897 200.42 43.7997 200.37 44.3497 200.85Z" fill="#7BBFBA"/>
<path d="M99.7401 141.81C98.9601 141.82 98.2201 141.99 97.5501 142.28C96.1401 142.91 94.7001 142.27 94.1301 141.63C92.5601 139.9 90.3001 138.81 87.7801 138.81C84.9201 138.81 82.3801 140.21 80.8301 142.37C79.9901 143.69 78.4901 143.56 77.7101 143.56C75.6001 143.56 73.8901 145.27 73.8901 147.38V147.39H99.7401V141.81Z" fill="#F8F5EC"/>
<path d="M93.6204 144.89L93.3804 144.69C94.6404 143.22 96.8404 142.36 96.9304 142.33L97.0404 142.62C97.0304 142.62 94.8304 143.48 93.6204 144.89Z" fill="#AFCBD8"/>
<path d="M81.42 145.44C81.41 145.43 80.76 144.01 78.27 143.73L78.31 143.42C80.99 143.73 81.68 145.25 81.71 145.32L81.42 145.44Z" fill="#AFCBD8"/>
<path d="M45.3301 120.4H89.0001C88.8101 118.28 87.0201 116.62 84.8501 116.62C83.9901 116.62 83.1901 116.88 82.5301 117.32C81.8701 117.71 81.2101 117.51 81.0001 116.84C80.2001 114.32 77.8501 112.5 75.0701 112.5C74.6501 112.5 74.2301 112.54 73.8301 112.62C72.3701 112.85 71.6201 112.19 71.4101 111.18C70.2901 106.1 65.7601 102.29 60.3501 102.29C55.3501 102.29 51.1101 105.53 49.6101 110.02C49.1901 111.21 47.8901 111.26 47.1501 110.73C46.6001 110.34 45.9901 110.02 45.3401 109.79V120.4H45.3301Z" fill="#D8D8D8"/>
<path d="M51.3303 115.5C50.1403 113.35 48.7303 111.86 46.7603 110.66L46.9203 110.39C48.9403 111.62 50.3803 113.14 51.6003 115.34L51.3303 115.5Z" fill="#AFCBD8"/>
<path d="M68.49 116.36L68.23 116.19C70.36 112.9 73.5 112.51 73.64 112.5L73.67 112.81C73.64 112.8 70.54 113.19 68.49 116.36Z" fill="#AFCBD8"/>
<path d="M64.5501 117.89L64.3301 117.67C65.4401 116.55 66.9201 115.96 68.3501 116.06C69.5801 116.15 70.6601 116.72 71.3801 117.68L71.1301 117.87C70.4701 116.98 69.4701 116.45 68.3301 116.37C66.9801 116.29 65.6001 116.84 64.5501 117.89Z" fill="#AFCBD8"/>
<path d="M247.21 133.77C246.43 133.78 245.69 133.95 245.02 134.24C243.61 134.87 242.17 134.23 241.6 133.59C240.03 131.86 237.77 130.77 235.25 130.77C232.39 130.77 229.85 132.17 228.3 134.33C227.46 135.65 225.96 135.52 225.18 135.52C223.07 135.52 221.36 137.23 221.36 139.34V139.35H247.21V133.77Z" fill="#D8D8D8"/>
<path d="M241.09 136.85L240.85 136.65C242.11 135.18 244.31 134.32 244.4 134.29L244.51 134.58C244.5 134.58 242.3 135.44 241.09 136.85Z" fill="#AFCBD8"/>
<path d="M228.89 137.4C228.88 137.39 228.23 135.97 225.74 135.69L225.78 135.38C228.46 135.69 229.15 137.21 229.18 137.28L228.89 137.4Z" fill="#AFCBD8"/>
<path d="M262.06 108.82C262.02 108.81 261.96 108.79 261.88 108.76C261.8 108.73 261.72 108.7 261.62 108.67C261.44 108.61 261.21 108.54 260.95 108.45C259 107.8 254.84 106.41 249.42 104.6C248.3 104.23 247.13 103.84 245.91 103.43C244.91 103.1 243.87 102.75 242.81 102.4C242.65 102.35 242.49 102.29 242.33 102.24C242.05 102.15 241.77 102.05 241.49 101.96C239.06 101.15 236.51 100.31 233.9 99.44H233.89C227.93 97.47 221.63 95.39 215.6 93.41C215.15 93.26 214.7 93.11 214.26 92.97C212.75 92.47 211.25 91.98 209.79 91.51C203.94 89.6 198.59 87.87 194.4 86.56C194.38 86.55 194.36 86.54 194.33 86.54C189.63 85.05 186.4 84.08 185.58 83.95C171.3 81.65 167.56 93.5 151.66 96.39C151.66 96.39 131.99 96.17 134.97 102.36C135.74 103.97 138.18 105.32 140.19 105.79C135.89 106.21 132.72 106.71 132.72 106.71C118.91 98.58 111.66 97.77 108.13 98.36C105.93 98.72 105.17 99.62 105.17 99.62L133.23 113.82C133.23 113.82 170.49 113.99 171.23 113.97C171.97 113.95 184.02 97.72 184.02 97.72L204.02 105.82L205.85 106.56L209.67 108.11L219.44 112.07L224.64 114.17L225.48 114.51L225.63 114.57L225.87 114.67L229.11 115.98L232.24 117.25L243.09 121.64L245.68 122.69L250.49 124.64L251.57 125.07L251.67 125.12L252.78 125.56L256.03 126.88L256.35 127.01L256.39 126.88L257.73 122.69L258.07 121.64L258.26 121.05L262.04 109.25L262.16 108.86C262.16 108.86 262.13 108.85 262.06 108.82Z" fill="#DBB7A5"/>
<path d="M100.39 99.4699C103.78 97.2499 112.67 96.3699 127.92 109.03C127.92 109.03 140.46 107.58 151.69 113.56C151.69 113.56 182.48 86.0799 190.4 85.9299C198.32 85.7799 262.16 108.86 262.16 108.86L266.21 131.98L244.73 135.74L196.6 107.18C196.6 107.18 165.19 126.64 160.77 129.34C155.06 132.82 137.89 120.32 126.56 117.96C122.69 117.15 105.76 106.09 100.43 102.55C99.32 101.83 99.29 100.2 100.39 99.4699Z" fill="#FCD3B6"/>
<path d="M199.73 116.46L212.95 83.6799L268.58 105.43L271.47 132.77L243.42 135.74L199.73 116.46Z" fill="white"/>
<path d="M199.73 116.46L218.63 85.8999L271.47 132.77L243.42 135.74L199.73 116.46Z" fill="#90AFAF"/>
<path d="M281 108.88V155.32L280.66 155.17L257.53 144.89L256.75 144.54L254.77 143.66L253.63 143.15L252.78 142.78L251.67 142.28L251.57 142.24L250.49 141.76L249.71 141.41L245.02 139.33L243.61 138.7L243.31 138.57L241.99 137.98L234.81 134.79L233.59 134.25L218.35 127.47L215.45 126.19L212.42 124.84L211.63 124.48L210.88 124.15L204.37 121.26L205.31 118.92L207.45 113.63L209.67 108.11L215.6 93.41L215.81 92.88L218.63 85.9L219.21 84.46L249.25 96.33L249.84 96.56L250.62 96.87L256.19 99.07L257.55 99.61L259.95 100.56L281 108.88Z" fill="#8E8D8A"/>
<path d="M216.15 118.45C216.3 119.89 215.26 121.18 213.82 121.34C212.38 121.49 211.09 120.45 210.93 119.01C210.78 117.57 211.82 116.28 213.26 116.12C214.7 115.96 215.99 117.01 216.15 118.45Z" fill="#303030"/>
<path d="M224.08 122.24C224.23 123.68 223.19 124.97 221.75 125.13C220.31 125.28 219.02 124.24 218.86 122.8C218.71 121.36 219.75 120.07 221.19 119.91C222.63 119.76 223.92 120.8 224.08 122.24Z" fill="#303030"/>
<path d="M89.0103 39.41C89.0103 39.41 113.6 44.64 122.51 31.53L136.23 31.75C136.23 31.75 146.23 51.06 153.98 47.78C157.31 46.37 152.68 42.73 141.41 25.95C141.41 25.95 127.45 17.81 106.59 19.19L89.0103 39.41Z" fill="#DBB7A5"/>
<path d="M146.06 55.69C145.53 56.29 144.23 56.84 142.43 56C141.19 55.42 139.71 54.19 138.08 51.85V51.84C137.55 51.07 137 50.2 136.43 49.18C134.63 45.92 132.69 41.3 130.71 34.81L121.75 32.56L113.24 30.42L111.5 33.8C111.5 33.81 111.49 33.82 111.49 33.83L110.56 35.64L109.58 37.54L109.02 38.64C109.02 38.64 108.65 39.07 107.92 39.79L107.91 39.8C104.59 43.12 93.8601 52.41 78.5801 51.95H78.5301C76.5901 51.89 74.5701 51.67 72.4801 51.26C72.4501 51.26 72.4201 51.25 72.3901 51.25C70.9301 50.96 69.4401 50.58 67.9201 50.09L67.5801 50.48L67.3001 50.81L67.1601 50.98L63.2601 55.57L62.3301 56.66L61.4501 57.69L59.1701 60.38L17.8801 108.92L17.8401 108.96L17.7801 109.03L17.4301 109.45L16.6301 110.38L15.7901 111.37L14.5501 112.83L5.89014 123.01L3.46014 125.86L3.05014 126.35L1.00014 128.76L0.640137 129.18V75.59L30.2201 51.58L42.4801 41.62L45.8901 38.86C46.3701 38.47 46.8401 38.07 47.3001 37.63C47.9601 37.04 48.6001 36.41 49.2201 35.75C51.4601 33.4 54.3201 31.49 57.5701 30.2C72.3401 24.36 109.84 10.32 114.59 9.76996C116.1 9.59996 123.96 15.92 130.63 21.7C134.4 24.95 137.78 28.03 139.42 29.66C140.23 30.47 140.81 31.43 141.11 32.47C141.74 34.68 142.92 38.89 143.99 43.14C144.7 45.94 145.36 48.74 145.78 51V51.01C146.24 53.48 146.42 55.29 146.06 55.69Z" fill="#FCD3B6"/>
<path d="M47.5199 37.72C47.5199 37.72 55.8199 48.17 67.2999 50.81L62.4999 56.83L45.6699 39.88L47.5199 37.72Z" fill="#DBB7A5"/>
<path d="M74.1801 67.8399L69.6501 72.1499L34.4501 105.59L17.8801 108.92L17.7301 108.95L17.4601 109L15.8701 109.32L15.7201 109.35L14.5401 109.59L12.6201 109.97L12.5701 109.98L10.5501 110.39L6.16014 111.27L4.89014 111.53L4.83014 111.54L4.78014 111.55L1.21014 112.27L1.00014 112.31L0.640137 112.38V76.0399L30.2201 51.5799L42.3901 41.5199L47.2101 37.5299L47.3001 37.6299L47.4501 37.7999L63.2601 55.5699L63.3901 55.7099L74.1801 67.8399Z" fill="white"/>
<path d="M74.1801 67.84L41.9301 42.13L0.640137 113.25L34.4501 105.59L74.1801 67.84Z" fill="#90AFAF"/>
<path d="M71.7201 74.48L33.6901 109.94L33.0501 110.54L23.2501 119.67L22.2401 120.62L20.7701 121.99L19.6701 123.01L16.6101 125.86L15.4401 126.95L14.7201 127.62L14.4001 127.92L14.2801 128.03L14.0801 128.22L13.7601 128.52L10.7001 131.37L7.00014 134.82L6.61014 135.18L6.21014 135.56L5.16014 136.54L1.00014 140.41L0.640137 140.75V73.23L41.4401 40.45L42.3901 41.52L42.4801 41.6199L45.3801 44.88L45.3901 44.8899L59.1701 60.38L69.6501 72.15L71.7201 74.48Z" fill="#445C77"/>
<path d="M60.12 75.9999C60.39 77.0899 61.49 77.7699 62.58 77.4999C63.67 77.2299 64.35 76.1299 64.08 75.0399C63.81 73.9499 62.71 73.2699 61.62 73.5399C60.53 73.8099 59.86 74.9099 60.12 75.9999Z" fill="#2A3C44"/>
<path d="M55.32 80.8599C55.59 81.9499 56.69 82.6299 57.78 82.3599C58.87 82.0899 59.55 80.9899 59.28 79.8999C59.01 78.8099 57.91 78.1299 56.82 78.3999C55.72 78.6599 55.05 79.7699 55.32 80.8599Z" fill="#2A3C44"/>
<path d="M110.66 38.79L107.44 35.05C107.23 34.89 107.12 33.88 107.97 34.13C109.85 34.7 109.95 37.19 113.27 30.72L110.66 38.79Z" fill="#DBB7A5"/>
<path d="M156.23 61.7099L154.47 59.6699C154.37 59.5499 154.27 59.4399 154.16 59.3399C152.57 57.7599 150.15 57.2399 148 57.8999C147.32 58.0999 146.66 58.4199 146.07 58.8599L144.44 60.0799C143.63 60.6799 143.03 61.4299 142.66 62.2599C142.62 62.3199 142.6 62.3799 142.58 62.4399C142.55 62.4899 142.53 62.5399 142.52 62.5899C142.43 62.7899 142.37 62.9899 142.33 63.1899C142.09 64.0999 142.1 65.0599 142.39 65.9699C142.59 66.6499 142.94 67.2899 143.44 67.8699L144.67 69.3099C144.68 69.3099 144.69 69.3299 144.69 69.3299L145.2 69.9199C145.31 70.0499 145.43 70.1699 145.56 70.2899C145.68 70.4199 145.82 70.5399 145.96 70.6499C147.48 71.8799 149.58 72.2599 151.49 71.7399C151.95 71.6099 152.4 71.4399 152.82 71.2099C153.09 71.0699 153.34 70.8999 153.59 70.7199L153.88 70.4999L154.8 69.8199L155.22 69.5099C155.42 69.3599 155.61 69.1999 155.79 69.0299C156.08 68.7499 156.34 68.4499 156.55 68.1299V68.1199C157.9 66.1699 157.84 63.5899 156.23 61.7099ZM147.92 62.3899C146.98 63.0899 146.02 62.7799 145.65 62.1499C145.64 62.1499 145.64 62.1399 145.64 62.1399C145.63 62.1299 145.63 62.1299 145.63 62.1199C145.34 61.6099 145.42 60.9099 146.17 60.3499C146.55 60.0699 146.93 59.9499 147.27 59.9499C147.58 59.9499 147.87 60.0499 148.09 60.2199C148.74 60.6699 148.91 61.6599 147.92 62.3899Z" fill="#102333"/>
<path d="M152.21 63.08L160.91 73.2L162.04 72.47L162.68 73.21L162.3 74.82L162.51 75.06L163.64 74.33L164.28 75.07L163.9 76.68L164.11 76.92L165.23 76.19L165.87 76.93L165.5 78.54L166.01 79.13L165.46 83.33L161.02 82.83L147.23 66.78L152.21 63.08Z" fill="#819DA5"/>
<path d="M164.86 77.79L165.37 78.38L164.82 82.59L160.38 82.09L155.47 76.37L154.25 74.95L146.59 66.04L151.57 62.33L158.62 70.53L159.83 71.94L160.27 72.45L162.04 72.47L161.66 74.08L161.87 74.31L163.64 74.33L163.26 75.94L163.47 76.17L165.24 76.19L164.86 77.79Z" fill="#C8D6D6"/>
<path d="M159.83 71.94C158.39 73.43 156.93 74.9 155.46 76.36L154.24 74.94C155.71 73.48 157.17 72 158.61 70.52L159.83 71.94Z" fill="#D4E8E7"/>
<path d="M163.291 81.44L161.041 80.77L148.041 65.65L149.061 64.89L163.291 81.44Z" fill="#819DA5"/>
<path d="M164.2 80.76L163.99 78.58L150.99 63.45L149.98 64.2099L164.2 80.76Z" fill="#819DA5"/>
<path d="M155.31 60.68L154.16 59.34L153.55 58.64C152.21 57.08 150.13 56.39 148.13 56.65C147.08 56.77 146.05 57.17 145.16 57.83L143.52 59.05C143.42 59.12 143.32 59.2 143.23 59.29C142.38 60 141.79 60.9 141.5 61.86C141.44 62.02 141.39 62.17 141.37 62.33V62.34C141.32 62.51 141.29 62.68 141.28 62.85C141.23 63.23 141.23 63.62 141.28 64C141.28 64 141.29 64 141.28 64.01C141.3 64.26 141.35 64.5 141.41 64.74V64.75C141.58 65.4 141.89 66.03 142.33 66.6C142.35 66.4 142.37 66.19 142.39 65.97C142.49 65.03 142.61 64.09 142.6 64.01C142.6 63.94 142.58 63.63 142.56 63.3C142.55 63.04 142.53 62.77 142.52 62.59C142.51 62.48 142.51 62.41 142.51 62.41C142.53 62.42 142.56 62.43 142.58 62.44C143.53 62.82 144.59 63.64 145.57 64.99L145.58 65C146.59 66.38 147.52 68.32 148.19 70.9C148.99 70.99 149.81 70.93 150.6 70.7C151.05 70.58 151.5 70.4 151.92 70.16C152.18 70.03 152.43 69.87 152.67 69.69H152.68L152.99 69.46L153.91 68.78L154.32 68.47C154.52 68.32 154.71 68.16 154.89 67.99C155.18 67.71 155.44 67.4 155.65 67.08C156.98 65.13 156.92 62.56 155.31 60.68ZM145.61 59.74C146.24 59.27 146.92 59.3 147.44 59.6C147.71 59.74 147.94 59.96 148.09 60.22C148.46 60.81 148.45 61.6 147.69 62.16C146.97 62.7 146.19 62.57 145.65 62.15C145.64 62.15 145.64 62.14 145.64 62.14C145.63 62.14 145.62 62.14 145.62 62.13C144.9 61.56 144.64 60.46 145.61 59.74Z" fill="#1F3242"/>
<path d="M147.98 62.41C148.87 61.74 149.03 60.54 148.33 59.72C147.63 58.9 146.33 58.78 145.44 59.44" stroke="#102333" stroke-width="2.895" stroke-miterlimit="10"/>
<path d="M146.19 68.2399C145.93 66.1199 144.52 64.2399 142.56 63.2999C142.48 63.2599 142.41 63.2299 142.33 63.1899C141.99 63.0499 141.64 62.9299 141.28 62.8499C141.04 62.7799 140.8 62.7299 140.55 62.6999C140.55 62.6999 140.55 62.6999 140.54 62.6999C140.18 62.6599 139.81 62.6399 139.44 62.6599C139.25 62.6699 139.07 62.6799 138.88 62.7099C137.78 62.8499 136.77 63.2699 135.91 63.8799C135.9 63.8799 135.9 63.8899 135.89 63.8899C135.4 64.2399 134.96 64.6599 134.58 65.1199C133.78 66.0799 133.26 67.2599 133.12 68.4999C133.12 68.5099 133.12 68.5099 133.12 68.5099C133.09 68.7699 133.08 69.0399 133.09 69.3099C133.17 71.7899 134.84 73.8499 137.16 74.6999C137.47 74.8199 137.79 74.9099 138.12 74.9699C138.45 75.0399 138.8 75.0899 139.15 75.0999C139.39 75.1199 139.62 75.1199 139.86 75.1099C140.84 75.0699 141.77 74.8199 142.59 74.4299C144.22 73.6499 145.45 72.2899 145.96 70.6499C146 70.5299 146.04 70.4099 146.06 70.2799C146.19 69.7899 146.25 69.2699 146.23 68.7399C146.22 68.5699 146.21 68.4099 146.19 68.2399ZM137.49 65.5399C137.43 65.3399 137.43 65.1199 137.47 64.9099V64.8799C137.52 64.7099 137.58 64.5399 137.69 64.3999C137.98 63.9699 138.52 63.6399 139.31 63.6099C140.21 63.5699 140.8 63.9299 141.08 64.4099C141.19 64.5899 141.26 64.7799 141.27 64.9799C141.3 65.1199 141.3 65.2599 141.26 65.3999C141.26 65.4099 141.26 65.4199 141.26 65.4199C141.13 66.0799 140.52 66.6899 139.42 66.7299C138.43 66.7699 137.8 66.3299 137.56 65.7599C137.56 65.7499 137.55 65.7399 137.55 65.7299C137.52 65.6699 137.5 65.6099 137.49 65.5399Z" fill="#602812"/>
<path d="M141.53 87.0899C141.12 86.8499 141.1 86.3099 141.49 86.0299L142.94 85.0399L142.92 84.2999L141.41 83.4299C141 83.1899 140.98 82.6499 141.37 82.3699L142.82 81.3799L142.44 69.8599C142.41 68.8999 141.54 68.1599 140.5 68.1999L138.82 68.2699C137.78 68.3199 136.97 69.1299 137 70.0899L137.61 88.5399C137.62 88.9699 137.81 89.3699 138.12 89.6699L138.99 90.5099C139.76 91.2599 141.08 91.1999 141.8 90.3899L142.61 89.4799C142.9 89.1499 143.06 88.7299 143.04 88.2999L143.03 87.9399L141.53 87.0899Z" fill="#819DA5"/>
<path d="M142.41 69.04L142.47 70.72L142.57 73.81L142.67 76.85L142.75 79.43L142.79 80.56L141.34 81.55C140.95 81.82 140.96 82.37 141.38 82.6L142.88 83.47L142.91 84.21L141.46 85.21C141.07 85.48 141.09 86.03 141.5 86.26L143.01 87.12L143.02 87.48C143.03 87.9 142.88 88.32 142.59 88.66L141.78 89.57C141.06 90.39 139.74 90.44 138.97 89.69L138.1 88.85C137.78 88.55 137.6 88.14 137.59 87.72L137.49 84.72L137.41 82.18L137.14 74.14L137.05 71.26L136.98 69.27C136.95 68.31 137.76 67.49 138.8 67.45L140.47 67.38C141.51 67.34 142.38 68.08 142.41 69.04Z" fill="#C8D6D6"/>
<path d="M142.67 76.85L142.75 79.43C141.01 81.22 139.26 82.98 137.48 84.73L137.4 82.19C139.18 80.43 140.93 78.65 142.67 76.85Z" fill="#D4E8E7"/>
<path d="M142.47 70.72L142.57 73.81C140.2 74.96 137.67 74.3 137.14 74.15L137.05 71.27C137.53 71.21 138.33 71.12 139.43 70.79C141.3 70.22 141.61 70.58 142.47 70.72Z" fill="#819DA5"/>
<path d="M139.65 88.8099L138.57 87.3899L137.9 68.9699L138.93 68.9199L139.65 88.8099Z" fill="#819DA5"/>
<path d="M145.581 65L145.571 64.99C144.951 63.8 143.921 62.84 142.661 62.26C142.401 62.14 142.121 62.03 141.841 61.95C141.731 61.91 141.621 61.88 141.501 61.86C140.851 61.68 140.161 61.61 139.451 61.64C138.601 61.67 137.791 61.86 137.061 62.16C136.301 62.47 135.621 62.92 135.041 63.46C135.021 63.47 135.001 63.49 134.981 63.51C134.561 63.91 134.201 64.35 133.911 64.84C133.351 65.78 133.041 66.86 133.081 68.01C133.091 68.18 133.101 68.34 133.121 68.5C133.121 68.51 133.121 68.51 133.121 68.51C133.391 70.75 134.971 72.59 137.121 73.39C137.431 73.5 137.741 73.6 138.071 73.66C138.411 73.74 138.761 73.79 139.111 73.8C139.361 73.82 139.601 73.82 139.851 73.81C140.821 73.77 141.741 73.53 142.551 73.14C143.871 72.53 144.931 71.52 145.561 70.29C145.601 70.22 145.641 70.14 145.681 70.06C145.941 69.49 146.121 68.88 146.191 68.24C146.221 67.97 146.231 67.71 146.221 67.44C146.191 66.56 145.961 65.74 145.581 65ZM138.871 62.85C138.901 62.84 138.931 62.83 138.951 62.83C139.071 62.8 139.191 62.79 139.321 62.78H139.431C139.481 62.8 139.531 62.8 139.581 62.79C139.641 62.8 139.691 62.8 139.751 62.8C139.791 62.81 139.831 62.82 139.871 62.83C139.951 62.84 140.041 62.86 140.111 62.9C140.341 62.96 140.551 63.08 140.711 63.23C140.751 63.27 140.801 63.3 140.841 63.35C141.091 63.63 141.251 63.99 141.291 64.37C141.321 64.57 141.311 64.77 141.271 64.98C141.131 65.74 140.531 66.43 139.441 66.47C138.571 66.51 137.971 66.1 137.681 65.54C137.631 65.45 137.591 65.35 137.561 65.25C137.551 65.24 137.551 65.23 137.551 65.22C137.521 65.14 137.501 65.07 137.491 64.99C137.481 64.97 137.481 64.94 137.471 64.91V64.88C137.451 64.71 137.451 64.53 137.481 64.36V64.35C137.581 63.68 138.021 63.08 138.821 62.86H138.831C138.841 62.85 138.841 62.85 138.851 62.85H138.861H138.871Z" fill="#89351B"/>
<path d="M137.68 65.54C136.7 65.55 135.19 65.48 133.91 64.84C134.2 64.35 134.56 63.91 134.98 63.51C135.73 63.83 136.7 64.24 136.82 64.27C136.91 64.3 137.19 64.31 137.48 64.35C137.42 64.76 137.48 65.18 137.68 65.54Z" fill="#602812"/>
<path d="M143.04 73.0499C142.11 73.5199 141.02 73.8099 139.85 73.8599C138.6 73.9099 137.43 73.6899 136.42 73.2399" stroke="#602812" stroke-width="0.8836" stroke-miterlimit="10"/>
<path d="M139.53 66.6199C138.38 66.7399 137.36 65.9799 137.25 64.9199C137.14 63.8599 137.98 62.8999 139.12 62.7799" stroke="#602812" stroke-width="1.1834" stroke-miterlimit="10"/>
<path d="M145.62 62.13C148.67 59.27 149.03 54.71 146.3 51.54C143.36 48.12 137.94 47.6 134.2 50.38C130.46 53.16 129.81 58.19 132.76 61.61C134.86 64.05 138.22 65.01 141.33 64.35" stroke="#DFEDED" stroke-width="3.1975" stroke-miterlimit="10"/>
<path d="M145.431 59.4399C144.541 60.1099 144.381 61.3099 145.081 62.1299C145.781 62.9499 147.081 63.0699 147.971 62.4099" stroke="#102333" stroke-width="2.895" stroke-miterlimit="10"/>
<path d="M156.44 65.86C156.25 66.29 156.01 66.72 155.69 67.12V67.13C155.46 67.43 155.19 67.72 154.89 67.99C154.71 68.16 154.52 68.32 154.32 68.47L153.91 68.78L152.99 69.46L152.68 69.69H152.67C152.43 69.88 152.18 70.04 151.93 70.18C151.51 70.42 151.08 70.61 150.64 70.75C150.17 70.91 149.7 71.02 149.23 71.07" stroke="#102333" stroke-width="1.1768" stroke-miterlimit="10"/>
<path d="M139.13 62.7799C140.28 62.6599 141.3 63.4199 141.41 64.4799C141.52 65.5399 140.68 66.4999 139.54 66.6199" stroke="#602812" stroke-width="1.1834" stroke-miterlimit="10"/>
<path d="M63.3003 49.5899C63.3003 49.5899 77.6703 53.1899 94.0903 52.2199C103.34 51.6799 112.57 52.9499 121.26 55.7699C123.42 56.4699 125.49 57.1499 127.25 57.7299C135.01 60.2799 140.35 66.1399 142.92 60.2899C145.49 54.4399 133.35 48.0899 123.21 45.5799C113.07 43.0699 106.06 28.3099 106.06 28.3099L63.3003 49.5899Z" fill="#FCD3B6"/>
</svg>
