<svg width="281" height="220" viewBox="0 0 281 220" fill="none" xmlns="http://www.w3.org/2000/svg">
<g clip-path="url(#clip0_215_7072)">
<path d="M276 92.02H214.65C214.94 90.94 216.56 87.23 224.77 88.66C223.44 87.48 222.56 85.65 222.93 83.91C223.04 83.39 223.27 82.88 223.64 82.5C223.98 82.16 224.43 81.95 224.88 81.78C228.11 80.62 233.78 85.08 233.78 85.08C226.85 74.18 245.75 69.6 245.88 83.4C245.88 83.4 248.65 78.45 251.69 79.82C252.92 80.53 252.16 82.65 251.61 83.58C260.47 79.28 268.53 81.92 264.78 86.83C273.48 86.99 276 92.02 276 92.02Z" fill="white"/>
<path d="M50.5798 73.07H17.5498C18.5698 67.88 24.5398 63.61 31.9798 67.19C34.1498 60.32 37.6598 61.56 40.9498 69.24C45.2998 64.62 49.9898 71.37 50.5798 73.07Z" fill="white"/>
<path d="M230 55.75H76.4702V59.22H230V55.75Z" fill="white"/>
<path d="M240.71 65.12H62.3301V154.55H240.71V65.12Z" fill="white"/>
<path d="M247.48 154.55H55.54V167.85H247.48V154.55Z" fill="#7BBFBA"/>
<path d="M202.53 163.41H100.5V167.84H202.53V163.41Z" fill="white"/>
<path d="M194.95 158.98H108.07V163.41H194.95V158.98Z" fill="white"/>
<path d="M185.62 154.55H117.4V158.98H185.62V154.55Z" fill="white"/>
<path d="M185.62 158.09H117.4V158.98H185.62V158.09Z" fill="#9BB8CC"/>
<path d="M194.95 162.52H108.07V163.41H194.95V162.52Z" fill="#9BB8CC"/>
<path d="M240.7 62.17H166.15V107.64H240.7V62.17Z" fill="#D8C497"/>
<path d="M167.79 62.17H166.15V107.64H167.79V62.17Z" fill="#938569"/>
<path d="M240.7 114.33L62.3301 117.33V113.53H240.7V114.33Z" fill="#8E8E8E"/>
<path d="M166.15 65.91L62.3301 68.92V65.12H166.15V65.91Z" fill="#8E8E8E"/>
<path d="M240.7 66.54L166.15 70.65V65.12H240.7V66.54Z" fill="#938569"/>
<path d="M176.66 100.56H173.83V107.64H176.66V100.56Z" fill="white"/>
<path d="M209.39 100.56H206.56V107.64H209.39V100.56Z" fill="white"/>
<path d="M242.12 100.56H239.29V107.64H242.12V100.56Z" fill="white"/>
<path d="M225.75 100.56H222.92V107.64H225.75V100.56Z" fill="white"/>
<path d="M193.02 100.56H190.19V107.64H193.02V100.56Z" fill="white"/>
<path d="M176.66 100.56H173.83V101.97H176.66V100.56Z" fill="#9BB8CC"/>
<path d="M209.39 100.56H206.56V101.97H209.39V100.56Z" fill="#9BB8CC"/>
<path d="M242.12 100.56H239.29V101.97H242.12V100.56Z" fill="#9BB8CC"/>
<path d="M225.75 100.56H222.92V101.97H225.75V100.56Z" fill="#9BB8CC"/>
<path d="M193.02 100.56H190.19V101.97H193.02V100.56Z" fill="#9BB8CC"/>
<path d="M245.33 99.28H166.15V100.56H245.33V99.28Z" fill="white"/>
<path d="M128.64 113.53H119.83V154.54H128.64V113.53Z" fill="#D8C497"/>
<path d="M183.2 113.53H174.39V154.54H183.2V113.53Z" fill="#D8C497"/>
<path d="M128.64 113.53H119.83V115.43H128.64V113.53Z" fill="#938569"/>
<path d="M183.2 113.53H174.39V115.43H183.2V113.53Z" fill="#938569"/>
<path d="M245.33 59.22H57.7002V65.11H245.33V59.22Z" fill="#303030"/>
<path d="M245.33 107.64H57.7002V113.53H245.33V107.64Z" fill="#303030"/>
<path d="M32.0198 167.79L32.7698 156.96L26.7798 150.02L27.1498 149.72L30.6798 152.75L31.1998 149.72L31.7598 149.87L31.6598 153.64L33.0998 155.04L33.6398 143.97L30.7098 140.34L31.0398 140.06L34.0798 142.49L34.2698 136.71H35.0598L35.5898 143.82L36.3598 150.89L40.3098 146.6L40.6798 146.84L39.2398 149.11L41.7598 149.08V149.5L39.0098 149.92L36.3098 154.15L36.9198 167.79H32.0198Z" fill="#133B53"/>
<path d="M57.6002 128.62C57.6502 127.27 57.5502 125.88 56.9802 124.66C56.4102 123.43 55.3102 122.4 53.9702 122.2C53.2002 122.09 52.3302 122.31 51.8602 122.92C53.3702 121.05 54.7402 118.99 55.3402 116.66C55.9302 114.33 55.6402 111.67 54.0902 109.83C52.6002 108.06 50.1102 107.3 47.8202 107.63C45.5302 107.97 43.4602 109.3 41.9602 111.06C42.1202 107.44 42.9602 103.8 42.2902 100.24C41.6302 96.68 38.8002 93.12 35.1802 93.28C32.7302 93.39 30.6702 95.14 29.1002 97.04C25.8602 100.97 23.8602 105.9 23.4502 110.98C22.5102 109.69 21.5502 108.38 20.2902 107.39C19.0302 106.4 17.4102 105.76 15.8402 106.02C13.2402 106.44 11.5902 109.09 10.9602 111.64C10.2902 114.37 10.3802 117.28 11.2402 119.95C12.6502 124.37 15.9702 127.88 19.1902 131.23C17.7102 130.57 15.8502 131.46 15.1302 132.91C14.1602 134.88 15.0802 137.15 16.4302 138.72C17.5702 140.04 19.0702 140.99 20.6302 141.77C29.3502 146.15 39.9502 145.51 48.7502 141.71C52.0202 140.3 54.3002 137.96 56.0302 134.83C56.0402 134.82 56.0402 134.81 56.0502 134.79C57.0902 132.92 57.5302 130.76 57.6002 128.62Z" fill="#479DA3"/>
<path d="M29.6101 146.98C29.2001 146.51 28.0001 146.32 28.0201 147.18C27.6701 144.52 24.1901 145.53 25.8101 148.07C23.1401 145.29 20.7701 148.85 24.2301 150.43C21.2901 150.49 22.9301 154.68 25.5101 152.86C24.4701 153.49 25.1301 154.86 26.2601 154.68C29.2501 154.19 32.3001 149.42 29.6101 146.98Z" fill="#479DA3"/>
<path d="M24.3901 139.13C24.1501 138.42 23.9801 137.66 24.0901 136.92C24.2001 136.18 24.6201 135.45 25.3001 135.13C25.6901 134.95 26.1901 134.92 26.5401 135.18C25.4401 134.42 24.3801 133.55 23.6901 132.41C23.0001 131.27 22.7301 129.8 23.2601 128.58C23.7701 127.4 24.9701 126.6 26.2501 126.41C27.5201 126.22 28.8401 126.6 29.9201 127.3C29.2601 125.4 28.2301 123.6 28.0101 121.6C27.7901 119.6 28.7301 117.25 30.6801 116.76C32.0001 116.43 33.3801 117.03 34.5101 117.79C36.8601 119.36 38.7101 121.67 39.7401 124.3C40.0301 123.46 40.3301 122.61 40.8401 121.89C41.3501 121.16 42.1101 120.56 42.9901 120.45C44.4401 120.26 45.7401 121.4 46.4801 122.66C47.2701 124 47.6901 125.57 47.6601 127.13C47.6101 129.71 46.4101 132.1 45.2301 134.4C45.9101 133.81 47.0401 133.99 47.6601 134.65C48.4901 135.54 48.3601 136.9 47.9001 137.95C47.5101 138.83 46.8601 139.58 46.1601 140.24C42.2201 143.96 36.4801 145.32 31.2001 144.7C29.2401 144.47 27.6501 143.59 26.2301 142.2C26.2201 142.19 26.2201 142.19 26.2101 142.18C25.3501 141.33 24.7701 140.25 24.3901 139.13Z" fill="#7BBFBA"/>
<path d="M14.5098 130.06C15.0098 130.97 14.7098 132.09 14.7098 132.09C14.7098 132.09 13.5998 131.74 13.0998 130.84C12.5998 129.93 12.8998 128.81 12.8998 128.81C12.8998 128.81 14.0098 129.15 14.5098 130.06Z" fill="#479DA3"/>
<path d="M11.51 131.98C12.93 131.9 14.15 132.93 14.15 132.93C14.15 132.93 13.06 134.1 11.64 134.18C10.22 134.26 9 133.23 9 133.23C9 133.23 10.09 132.06 11.51 131.98Z" fill="#479DA3"/>
<path d="M42.7102 150.34C42.2002 150.13 41.9502 149.56 41.9502 149.56C41.9502 149.56 42.5302 149.34 43.0402 149.55C43.5502 149.76 43.8002 150.33 43.8002 150.33C43.8002 150.33 43.2202 150.55 42.7102 150.34Z" fill="#479DA3"/>
<path d="M43.3302 148.54C42.7602 149.05 41.9102 149.02 41.9102 149.02C41.9102 149.02 41.9802 148.17 42.5402 147.66C43.1102 147.15 43.9602 147.18 43.9602 147.18C43.9602 147.18 43.9002 148.03 43.3302 148.54Z" fill="#479DA3"/>
<path d="M42.5499 118.77C41.8299 119.51 40.6699 119.55 40.6699 119.55C40.6699 119.55 40.6799 118.39 41.3999 117.65C42.1199 116.91 43.2799 116.87 43.2799 116.87C43.2799 116.87 43.2799 118.03 42.5499 118.77Z" fill="#7BBFBA"/>
<path d="M25.0702 124.66C25.7402 124.92 26.0902 125.64 26.0902 125.64C26.0902 125.64 25.3502 125.95 24.6802 125.7C24.0102 125.44 23.6602 124.72 23.6602 124.72C23.6602 124.72 24.4002 124.4 25.0702 124.66Z" fill="#7BBFBA"/>
<path d="M39.8499 116.46C40.3399 117.8 39.7099 119.26 39.7099 119.26C39.7099 119.26 38.2699 118.56 37.7799 117.22C37.2899 115.88 37.9299 114.42 37.9299 114.42C37.9299 114.42 39.3599 115.12 39.8499 116.46Z" fill="#7BBFBA"/>
<path d="M27.87 153.11C27.61 153.15 27.34 153.15 27.1 153.12C26.74 153.07 26.39 152.92 26.16 152.64C25.97 152.41 25.86 152.03 25.97 151.73C26.13 151.3 26.69 151.4 26.95 151.08C27.09 150.9 27.09 150.65 27.06 150.42C27.03 150.19 26.98 149.96 27.03 149.74C27.08 149.52 27.3 149.31 27.52 149.36C27.69 149.4 27.79 149.56 27.9 149.68C27.97 149.75 28.06 149.82 28.16 149.81C28.58 149.8 28.68 149.17 29.12 149.25C29.58 149.33 29.84 149.81 29.97 150.22C30.19 150.93 30.09 151.71 29.6 152.29C29.16 152.82 28.52 153.03 27.87 153.11Z" fill="#7BBFBA"/>
<path d="M256.66 167.45H18.3999V168.24H256.66V167.45Z" fill="#133B53"/>
<path d="M134.48 150.69L134.65 146.31H134.96L135.15 150.6L134.48 150.69Z" fill="#133B53"/>
<path d="M136.07 154.55H133.59L133.11 150.69H136.55L136.07 154.55Z" fill="#F7B857"/>
<path d="M132.86 150.09L132.97 151.43L136.64 151.49L136.83 150.03L132.86 150.09Z" fill="#F7B857"/>
<path d="M133.18 151.43L136.45 151.48L136.44 151.61L133.27 151.99L133.18 151.43Z" fill="#E59933"/>
<path d="M134.42 140.19C134.31 140.44 134.04 140.55 134.04 140.55C134.04 140.55 133.94 140.27 134.04 140.02C134.15 139.77 134.42 139.66 134.42 139.66C134.42 139.66 134.53 139.94 134.42 140.19Z" fill="#7BBFBA"/>
<path d="M133.56 139.88C133.8 140.16 133.78 140.57 133.78 140.57C133.78 140.57 133.37 140.53 133.13 140.26C132.89 139.98 132.91 139.57 132.91 139.57C132.91 139.57 133.31 139.61 133.56 139.88Z" fill="#7BBFBA"/>
<path d="M137.84 146.32C137.57 146.34 137.34 146.15 137.34 146.15C137.34 146.15 137.54 145.93 137.81 145.91C138.08 145.89 138.31 146.08 138.31 146.08C138.31 146.08 138.11 146.3 137.84 146.32Z" fill="#7BBFBA"/>
<path d="M137.71 145.41C137.58 145.75 137.21 145.93 137.21 145.93C137.21 145.93 137.05 145.55 137.18 145.21C137.31 144.87 137.68 144.69 137.68 144.69C137.68 144.69 137.84 145.07 137.71 145.41Z" fill="#7BBFBA"/>
<path d="M139.16 143.73C138.89 142.65 138.22 141.72 137.1 141.11C136.13 140.59 134.96 140.54 133.89 140.73C132.25 141.03 130.88 141.83 130.47 143.54C130.2 144.65 130.25 146.14 130.69 147.2C131.11 148.21 132.05 148.99 133.12 149.22C134.44 149.49 136.08 149.44 137.23 148.68C137.65 148.41 138.05 148.11 138.39 147.75C138.88 147.22 139.08 146.59 139.2 145.89C139.34 145.14 139.33 144.41 139.16 143.73Z" fill="#7BBFBA"/>
<path d="M133.56 146.63L132.63 145.59L131.63 145.53V145.44L132.44 145.38L131.63 144.39L131.81 144.19L133.91 146.03L133.56 146.63Z" fill="#133B53"/>
<path d="M135.29 144.15L136.32 143.46L136.49 142.8L136.54 142.82L136.53 143.31L136.76 143.14L136.83 143.27L135.6 144.58L135.29 144.15Z" fill="#133B53"/>
<path d="M167.78 150.69L167.94 146.31H168.25L168.45 150.6L167.78 150.69Z" fill="#133B53"/>
<path d="M169.36 154.55H166.89L166.41 150.69H169.85L169.36 154.55Z" fill="#F7B857"/>
<path d="M166.15 150.09L166.27 151.43L169.93 151.49L170.12 150.03L166.15 150.09Z" fill="#F7B857"/>
<path d="M166.47 151.43L169.75 151.48L169.73 151.61L166.57 151.99L166.47 151.43Z" fill="#E59933"/>
<path d="M167.71 140.19C167.6 140.44 167.33 140.55 167.33 140.55C167.33 140.55 167.23 140.27 167.33 140.02C167.44 139.77 167.71 139.66 167.71 139.66C167.71 139.66 167.82 139.94 167.71 140.19Z" fill="#7BBFBA"/>
<path d="M166.85 139.88C167.09 140.16 167.07 140.57 167.07 140.57C167.07 140.57 166.66 140.53 166.42 140.26C166.18 139.98 166.2 139.57 166.2 139.57C166.2 139.57 166.61 139.61 166.85 139.88Z" fill="#7BBFBA"/>
<path d="M171.14 146.32C170.87 146.34 170.64 146.15 170.64 146.15C170.64 146.15 170.84 145.93 171.11 145.91C171.38 145.89 171.61 146.08 171.61 146.08C171.61 146.08 171.4 146.3 171.14 146.32Z" fill="#7BBFBA"/>
<path d="M171.01 145.41C170.88 145.75 170.51 145.93 170.51 145.93C170.51 145.93 170.35 145.55 170.48 145.21C170.61 144.87 170.98 144.69 170.98 144.69C170.98 144.69 171.14 145.07 171.01 145.41Z" fill="#7BBFBA"/>
<path d="M172.45 143.73C172.18 142.65 171.51 141.72 170.39 141.11C169.42 140.59 168.25 140.54 167.18 140.73C165.54 141.03 164.17 141.83 163.76 143.54C163.49 144.65 163.54 146.14 163.98 147.2C164.4 148.21 165.34 148.99 166.41 149.22C167.73 149.49 169.37 149.44 170.52 148.68C170.94 148.41 171.34 148.11 171.68 147.75C172.17 147.22 172.37 146.59 172.5 145.89C172.63 145.14 172.62 144.41 172.45 143.73Z" fill="#7BBFBA"/>
<path d="M166.86 146.63L165.92 145.59L164.93 145.53V145.44L165.73 145.38L164.93 144.39L165.1 144.19L167.2 146.03L166.86 146.63Z" fill="#133B53"/>
<path d="M168.59 144.15L169.62 143.46L169.79 142.8L169.84 142.82L169.83 143.31L170.05 143.14L170.12 143.27L168.9 144.58L168.59 144.15Z" fill="#133B53"/>
<path d="M214.45 72.94H183.3V107.64H214.45V72.94Z" fill="white"/>
<path d="M212.78 74.82H199.78V105.86H212.78V74.82Z" fill="#133B53"/>
<path d="M197.88 74.82H184.88V105.86H197.88V74.82Z" fill="#133B53"/>
<path d="M77.82 130.51H71.27V148.63H77.82V130.51Z" fill="#133B53"/>
<path d="M77.82 122.79H71.27V128.95H77.82V122.79Z" fill="#133B53"/>
<path d="M100.92 130.51H79.1602V148.63H100.92V130.51Z" fill="#133B53"/>
<path d="M100.92 122.79H79.1602V128.95H100.92V122.79Z" fill="#133B53"/>
<path d="M108.81 130.51H102.26V148.63H108.81V130.51Z" fill="#133B53"/>
<path d="M108.81 122.79H102.26V128.95H108.81V122.79Z" fill="#133B53"/>
<path d="M69.6401 121.73H68.6001V151.08H110.35V150.2H69.6401V121.73Z" fill="#9BB8CC"/>
<path d="M77.82 82.38H71.27V100.5H77.82V82.38Z" fill="#133B53"/>
<path d="M77.82 74.66H71.27V80.82H77.82V74.66Z" fill="#133B53"/>
<path d="M100.92 82.38H79.1602V100.5H100.92V82.38Z" fill="#133B53"/>
<path d="M100.92 74.66H79.1602V80.82H100.92V74.66Z" fill="#133B53"/>
<path d="M108.81 82.38H102.26V100.5H108.81V82.38Z" fill="#133B53"/>
<path d="M108.81 74.66H102.26V80.82H108.81V74.66Z" fill="#133B53"/>
<path d="M69.6401 73.6H68.6001V102.96H110.35V102.07H69.6401V73.6Z" fill="#9BB8CC"/>
<path d="M128.79 82.38H122.24V100.5H128.79V82.38Z" fill="#133B53"/>
<path d="M128.79 74.66H122.24V80.82H128.79V74.66Z" fill="#133B53"/>
<path d="M151.89 82.38H130.13V100.5H151.89V82.38Z" fill="#133B53"/>
<path d="M151.89 74.66H130.13V80.82H151.89V74.66Z" fill="#133B53"/>
<path d="M159.78 82.38H153.23V100.5H159.78V82.38Z" fill="#133B53"/>
<path d="M159.78 74.66H153.23V80.82H159.78V74.66Z" fill="#133B53"/>
<path d="M120.62 73.6H119.57V102.96H161.32V102.07H120.62V73.6Z" fill="#9BB8CC"/>
<path d="M200.6 130.51H194.05V148.63H200.6V130.51Z" fill="#133B53"/>
<path d="M200.6 122.79H194.05V128.95H200.6V122.79Z" fill="#133B53"/>
<path d="M223.7 130.51H201.94V148.63H223.7V130.51Z" fill="#133B53"/>
<path d="M223.7 122.79H201.94V128.95H223.7V122.79Z" fill="#133B53"/>
<path d="M231.59 130.51H225.04V148.63H231.59V130.51Z" fill="#133B53"/>
<path d="M231.59 122.79H225.04V128.95H231.59V122.79Z" fill="#133B53"/>
<path d="M192.43 121.73H191.38V151.08H233.13V150.2H192.43V121.73Z" fill="#9BB8CC"/>
<path d="M160.52 121.73H142.41V154.55H160.52V121.73Z" fill="#133B53"/>
<path d="M141.08 121.73H140.5V154.55H141.08V121.73Z" fill="#9BB8CC"/>
<path d="M162.43 121.73H161.85V154.55H162.43V121.73Z" fill="#9BB8CC"/>
<path d="M164.11 119.25H138.82V121.73H164.11V119.25Z" fill="#606060"/>
<path d="M75.29 160.42L100.66 142.96C103.17 141.22 106.24 141.34 107.55 143.21C108.86 145.1 107.9 148.03 105.39 149.77L104.52 150.38L87.85 161.97C88.06 162.2 88.28 162.47 88.49 162.71L99.93 154.53L108.77 152.71C113.05 152.22 114.61 151.4 115.91 153.27C117.22 155.15 116 157.77 113.49 159.51L103.84 161.89L93.58 169.25C93.63 169.32 93.67 169.38 93.72 169.44C93.83 169.59 93.91 169.73 94.02 169.88L111.68 161.48C115.31 160.59 117.28 160.32 118.2 162.41C118.9 164.01 118.84 165.86 116.35 167.6L98.45 176.89C98.55 177.07 98.66 177.26 98.76 177.44L111.47 172.84C113.65 172.23 114.32 172.2 115.38 173.53C116.81 175.33 116.48 177.82 114.91 178.91L99.96 186.82L91.15 193.04C91.05 193.11 83.35 199.23 83.25 199.28C78.48 201.68 74.77 202.49 74.77 202.49C72.06 203.11 69.15 198.8 63.36 191C57.96 183.72 56.08 181.53 56.88 179.08C56.88 179.08 58.07 176.72 59.79 172.85C66.3 165.92 68.11 164.91 75.29 160.42Z" fill="#EDC9A9"/>
<path d="M50.96 180.25L72 207.8L75.85 204.85L54.82 177.31L50.96 180.25Z" fill="white"/>
<path d="M74.4902 209.34L60.4102 220H31.4302V193.51L51.2002 178.84L51.7902 179.62L72.8302 207.16L74.4902 209.34Z" fill="#272728"/>
<path d="M189.46 119C191.19 119 192.61 120.65 192.61 122.67L192.56 190.44C192.56 192.46 191.14 194.11 189.41 194.11L89.4903 194.12C87.7603 194.12 86.3403 192.47 86.3403 190.45L86.3903 122.68C86.3903 120.66 87.8103 119.01 89.5403 119.01L189.46 119Z" fill="#48474A"/>
<path d="M182.77 123.55H96.4702V189.57H182.77V123.55Z" fill="white"/>
<path d="M182.76 123.55H96.1104V189.57H182.76V123.55Z" fill="white"/>
<path opacity="0.42" d="M91.8902 144.83C92.2802 144.83 92.6002 145.07 92.6002 145.36L92.5802 167.78C92.5802 168.07 92.2602 168.31 91.8702 168.31C91.4802 168.31 91.1602 168.07 91.1602 167.78L91.1802 145.35C91.1802 145.07 91.5002 144.83 91.8902 144.83Z" fill="#FAFDFF"/>
<path opacity="0.42" d="M188.53 154.32C188.84 154.32 189.1 154.56 189.1 154.86V158.24C189.1 158.53 188.85 158.78 188.54 158.78H186.23C185.92 158.78 185.66 158.54 185.66 158.24V154.86C185.66 154.56 185.92 154.32 186.23 154.32H188.53Z" fill="#FAFDFF"/>
<path opacity="0.42" d="M91.7702 129.17C92.4602 129.17 93.0202 129.82 93.0202 130.63C93.0202 131.44 92.4602 132.09 91.7702 132.09C91.0802 132.09 90.5202 131.44 90.5202 130.63C90.5102 129.82 91.0702 129.17 91.7702 129.17Z" fill="#FAFDFF"/>
<path d="M180.6 147.94V146.41C180.6 145.54 180.84 144.69 181.26 143.95C179.72 140.45 173.87 142.45 176.46 146.52C176.46 146.52 174.04 144.62 172.66 145.11C172.47 145.18 172.28 145.27 172.13 145.42C171.97 145.58 171.87 145.8 171.83 146.02C171.67 146.76 172.05 147.54 172.62 148.05C169.12 147.44 168.43 149.02 168.3 149.49H180.87C180.69 148.98 180.6 148.46 180.6 147.94Z" fill="white"/>
<path d="M174.83 134H109.32V135.48H174.83V134Z" fill="white"/>
<path d="M179.401 138H103.291V176.16H179.401V138Z" fill="white"/>
<path d="M182.3 176.16H100.4V181.83H182.3V176.16Z" fill="#7BBFBA"/>
<path d="M163.121 179.94H119.581V181.83H163.121V179.94Z" fill="white"/>
<path d="M159.881 178.05H122.811V179.94H159.881V178.05Z" fill="white"/>
<path d="M155.901 176.16H126.791V178.05H155.901V176.16Z" fill="white"/>
<path d="M155.901 177.67H126.791V178.05H155.901V177.67Z" fill="#9BB8CC"/>
<path d="M159.881 179.56H122.811V179.94H159.881V179.56Z" fill="#9BB8CC"/>
<path d="M179.4 136.74H147.59V156.14H179.4V136.74Z" fill="#D8C497"/>
<path d="M148.29 136.74H147.59V156.14H148.29V136.74Z" fill="#938569"/>
<path d="M179.401 158.99L103.291 160.28V158.66H179.401V158.99Z" fill="#8E8E8E"/>
<path d="M147.591 138.34L103.291 139.62V138H147.591V138.34Z" fill="#8E8E8E"/>
<path d="M179.4 138.6L147.59 140.36V138H179.4V138.6Z" fill="#938569"/>
<path d="M152.08 153.12H150.87V156.14H152.08V153.12Z" fill="white"/>
<path d="M166.04 153.12H164.83V156.14H166.04V153.12Z" fill="white"/>
<path d="M180.01 153.12H178.8V156.14H180.01V153.12Z" fill="white"/>
<path d="M173.03 153.12H171.82V156.14H173.03V153.12Z" fill="white"/>
<path d="M159.06 153.12H157.85V156.14H159.06V153.12Z" fill="white"/>
<path d="M152.08 153.12H150.87V153.72H152.08V153.12Z" fill="#9BB8CC"/>
<path d="M166.04 153.12H164.83V153.72H166.04V153.12Z" fill="#9BB8CC"/>
<path d="M180.01 153.12H178.8V153.72H180.01V153.12Z" fill="#9BB8CC"/>
<path d="M173.03 153.12H171.82V153.72H173.03V153.12Z" fill="#9BB8CC"/>
<path d="M159.06 153.12H157.85V153.72H159.06V153.12Z" fill="#9BB8CC"/>
<path d="M181.38 152.57H147.59V153.12H181.38V152.57Z" fill="white"/>
<path d="M131.591 158.66H127.831V176.16H131.591V158.66Z" fill="#D8C497"/>
<path d="M154.87 158.66H151.11V176.16H154.87V158.66Z" fill="#D8C497"/>
<path d="M131.591 158.66H127.831V159.47H131.591V158.66Z" fill="#938569"/>
<path d="M154.87 158.66H151.11V159.47H154.87V158.66Z" fill="#938569"/>
<path d="M181.38 135.48H101.32V137.99H181.38V135.48Z" fill="#303030"/>
<path d="M181.38 156.14H101.32V158.65H181.38V156.14Z" fill="#303030"/>
<path d="M99.77 157.08C99.32 156.55 98.65 156.24 97.96 156.15C98.23 158.26 98.68 160.35 98.98 162.46C99.56 161.72 100.07 160.91 100.3 160C100.56 159 100.44 157.86 99.77 157.08Z" fill="#479DA3"/>
<path d="M97.7302 181.66C97.7202 181.77 97.7202 181.89 97.7002 182H186.21V181.66H97.7302Z" fill="#133B53"/>
<path d="M134.08 174.51L134.15 172.64H134.28L134.37 174.47L134.08 174.51Z" fill="#133B53"/>
<path d="M134.76 176.16H133.7L133.49 174.51H134.96L134.76 176.16Z" fill="#F7B857"/>
<path d="M133.39 174.25L133.43 174.83L135 174.85L135.08 174.23L133.39 174.25Z" fill="#F7B857"/>
<path d="M133.52 174.83L134.92 174.85L134.91 174.9L133.56 175.07L133.52 174.83Z" fill="#E59933"/>
<path d="M134.05 170.03C134 170.13 133.89 170.18 133.89 170.18C133.89 170.18 133.85 170.06 133.89 169.96C133.94 169.86 134.05 169.81 134.05 169.81C134.05 169.81 134.1 169.93 134.05 170.03Z" fill="#7BBFBA"/>
<path d="M133.68 169.9C133.78 170.02 133.78 170.19 133.78 170.19C133.78 170.19 133.61 170.17 133.5 170.06C133.4 169.94 133.4 169.77 133.4 169.77C133.4 169.77 133.58 169.78 133.68 169.9Z" fill="#7BBFBA"/>
<path d="M135.51 172.65C135.4 172.66 135.3 172.58 135.3 172.58C135.3 172.58 135.38 172.48 135.5 172.48C135.61 172.47 135.71 172.55 135.71 172.55C135.71 172.55 135.63 172.64 135.51 172.65Z" fill="#7BBFBA"/>
<path d="M135.46 172.26C135.4 172.41 135.25 172.48 135.25 172.48C135.25 172.48 135.18 172.32 135.24 172.17C135.3 172.02 135.45 171.95 135.45 171.95C135.45 171.95 135.51 172.11 135.46 172.26Z" fill="#7BBFBA"/>
<path d="M136.07 171.54C135.96 171.08 135.67 170.68 135.19 170.42C134.77 170.2 134.28 170.18 133.82 170.26C133.12 170.39 132.53 170.73 132.36 171.46C132.25 171.94 132.27 172.57 132.45 173.02C132.63 173.45 133.03 173.78 133.49 173.88C134.05 174 134.75 173.97 135.24 173.65C135.42 173.53 135.59 173.41 135.73 173.25C135.94 173.02 136.03 172.76 136.08 172.46C136.15 172.14 136.15 171.83 136.07 171.54Z" fill="#7BBFBA"/>
<path d="M133.69 172.78L133.29 172.33L132.86 172.31V172.27L133.21 172.24L132.86 171.82L132.94 171.74L133.84 172.52L133.69 172.78Z" fill="#133B53"/>
<path d="M134.42 171.72L134.86 171.43L134.94 171.14L134.96 171.15L134.95 171.36L135.05 171.29L135.08 171.34L134.56 171.9L134.42 171.72Z" fill="#133B53"/>
<path d="M148.29 174.51L148.36 172.64H148.49L148.57 174.47L148.29 174.51Z" fill="#133B53"/>
<path d="M148.96 176.16H147.91L147.7 174.51H149.17L148.96 176.16Z" fill="#F7B857"/>
<path d="M147.59 174.25L147.64 174.83L149.2 174.85L149.29 174.23L147.59 174.25Z" fill="#F7B857"/>
<path d="M147.73 174.83L149.13 174.85L149.12 174.9L147.77 175.07L147.73 174.83Z" fill="#E59933"/>
<path d="M148.26 170.03C148.21 170.13 148.1 170.18 148.1 170.18C148.1 170.18 148.06 170.06 148.1 169.96C148.15 169.86 148.26 169.81 148.26 169.81C148.26 169.81 148.3 169.93 148.26 170.03Z" fill="#7BBFBA"/>
<path d="M147.89 169.9C147.99 170.02 147.99 170.19 147.99 170.19C147.99 170.19 147.82 170.17 147.71 170.06C147.61 169.94 147.61 169.77 147.61 169.77C147.61 169.77 147.79 169.78 147.89 169.9Z" fill="#7BBFBA"/>
<path d="M149.72 172.65C149.61 172.66 149.51 172.58 149.51 172.58C149.51 172.58 149.59 172.48 149.71 172.48C149.82 172.47 149.92 172.55 149.92 172.55C149.92 172.55 149.83 172.64 149.72 172.65Z" fill="#7BBFBA"/>
<path d="M149.66 172.26C149.6 172.41 149.45 172.48 149.45 172.48C149.45 172.48 149.38 172.32 149.44 172.17C149.5 172.02 149.65 171.95 149.65 171.95C149.65 171.95 149.72 172.11 149.66 172.26Z" fill="#7BBFBA"/>
<path d="M150.28 171.54C150.17 171.08 149.88 170.68 149.4 170.42C148.98 170.2 148.49 170.18 148.03 170.26C147.33 170.39 146.74 170.73 146.57 171.46C146.46 171.94 146.48 172.57 146.66 173.02C146.84 173.45 147.24 173.78 147.7 173.88C148.26 174 148.96 173.97 149.45 173.65C149.63 173.53 149.8 173.41 149.94 173.25C150.15 173.02 150.24 172.76 150.29 172.46C150.36 172.14 150.35 171.83 150.28 171.54Z" fill="#7BBFBA"/>
<path d="M147.89 172.78L147.49 172.33L147.07 172.31V172.27L147.41 172.24L147.07 171.82L147.15 171.74L148.04 172.52L147.89 172.78Z" fill="#133B53"/>
<path d="M148.63 171.72L149.07 171.43L149.14 171.14L149.17 171.15L149.16 171.36L149.26 171.29L149.29 171.34L148.76 171.9L148.63 171.72Z" fill="#133B53"/>
<path d="M168.2 141.33H154.91V156.14H168.2V141.33Z" fill="white"/>
<path d="M167.49 142.14H161.94V155.38H167.49V142.14Z" fill="#133B53"/>
<path d="M161.14 142.14H155.59V155.38H161.14V142.14Z" fill="#133B53"/>
<path d="M109.9 165.9H107.1V173.63H109.9V165.9Z" fill="#133B53"/>
<path d="M109.9 162.61H107.1V165.24H109.9V162.61Z" fill="#133B53"/>
<path d="M119.76 165.9H110.47V173.63H119.76V165.9Z" fill="#133B53"/>
<path d="M119.76 162.61H110.47V165.24H119.76V162.61Z" fill="#133B53"/>
<path d="M123.13 165.9H120.33V173.63H123.13V165.9Z" fill="#133B53"/>
<path d="M123.13 162.61H120.33V165.24H123.13V162.61Z" fill="#133B53"/>
<path d="M106.41 162.15H105.97V174.68H123.78V174.3H106.41V162.15Z" fill="#9BB8CC"/>
<path d="M109.9 145.36H107.1V153.09H109.9V145.36Z" fill="#133B53"/>
<path d="M109.9 142.07H107.1V144.7H109.9V142.07Z" fill="#133B53"/>
<path d="M119.76 145.36H110.47V153.09H119.76V145.36Z" fill="#133B53"/>
<path d="M119.76 142.07H110.47V144.7H119.76V142.07Z" fill="#133B53"/>
<path d="M123.13 145.36H120.33V153.09H123.13V145.36Z" fill="#133B53"/>
<path d="M123.13 142.07H120.33V144.7H123.13V142.07Z" fill="#133B53"/>
<path d="M106.41 141.62H105.97V154.14H123.78V153.77H106.41V141.62Z" fill="#9BB8CC"/>
<path d="M131.65 145.36H128.85V153.09H131.65V145.36Z" fill="#133B53"/>
<path d="M131.65 142.07H128.85V144.7H131.65V142.07Z" fill="#133B53"/>
<path d="M141.51 145.36H132.22V153.09H141.51V145.36Z" fill="#133B53"/>
<path d="M141.51 142.07H132.22V144.7H141.51V142.07Z" fill="#133B53"/>
<path d="M144.88 145.36H142.08V153.09H144.88V145.36Z" fill="#133B53"/>
<path d="M144.88 142.07H142.08V144.7H144.88V142.07Z" fill="#133B53"/>
<path d="M128.16 141.62H127.72V154.14H145.53V153.77H128.16V141.62Z" fill="#9BB8CC"/>
<path d="M162.3 165.9H159.5V173.63H162.3V165.9Z" fill="#133B53"/>
<path d="M162.3 162.61H159.5V165.24H162.3V162.61Z" fill="#133B53"/>
<path d="M172.15 165.9H162.86V173.63H172.15V165.9Z" fill="#133B53"/>
<path d="M172.15 162.61H162.86V165.24H172.15V162.61Z" fill="#133B53"/>
<path d="M175.521 165.9H172.721V173.63H175.521V165.9Z" fill="#133B53"/>
<path d="M175.521 162.61H172.721V165.24H175.521V162.61Z" fill="#133B53"/>
<path d="M158.8 162.15H158.36V174.68H176.17V174.3H158.8V162.15Z" fill="#9BB8CC"/>
<path d="M145.19 162.15H137.46V176.15H145.19V162.15Z" fill="#133B53"/>
<path d="M136.9 162.15H136.65V176.15H136.9V162.15Z" fill="#9BB8CC"/>
<path d="M146.01 162.15H145.76V176.15H146.01V162.15Z" fill="#9BB8CC"/>
<path d="M146.72 161.1H135.93V162.16H146.72V161.1Z" fill="#606060"/>
<path d="M182.79 204.67C178.81 204.45 174.52 199.24 171.81 196.85C168.76 194.17 168.25 190.26 165.05 187.66C162.53 185.62 161.91 183.15 165.53 182.21C168.33 181.47 171.55 184.11 173.72 185.56C176.34 187.32 179.66 194.12 182.84 195.1C186 196.08 189.84 193.59 192.8 192.84C197.17 191.74 201.07 195.61 203.03 198.79C205.51 202.78 202.1 206.66 201.33 207.26C198.18 209.76 186.06 204.85 182.79 204.67Z" fill="#EDC6A4"/>
<path opacity="0.54" d="M164.93 187.63C165.45 188.06 165.91 188.51 166.41 188.95C166.55 188.79 166.75 188.65 166.84 188.43C167.59 186.78 166.32 184.72 164 183.83C163.73 183.73 163.47 183.65 163.2 183.59C163.17 183.59 163.15 183.6 163.12 183.61C162.47 184.76 163.27 186.28 164.93 187.63Z" fill="#FFD8C7"/>
<path opacity="0.16" d="M163.04 184.05C163.45 183.73 163.99 183.45 164.76 183.25C167.56 182.51 170.78 185.14 172.95 186.6C175.57 188.36 178.89 195.16 182.07 196.14C185.23 197.12 189.07 194.63 192.03 193.88C196.4 192.78 204.98 202.04 202.99 198.83C201.02 195.65 197.13 191.78 192.76 192.87C189.8 193.62 185.96 196.11 182.79 195.13C179.61 194.15 176.3 187.35 173.67 185.59C171.5 184.13 168.28 181.5 165.48 182.24C164 182.63 163.25 183.28 163.04 184.05Z" fill="#EEC29D"/>
<path d="M175.53 192.1L153.84 166.44C150.16 162.24 150.07 159.54 151.81 158.07C153.56 156.61 154.82 155.97 158.87 159.91L160.85 161.94L175.87 179.59C176.08 179.36 176.33 179.12 176.55 178.89L170.19 169.45L168.17 166.57C167.28 162.4 173.41 160.45 175.38 162.76L177.56 165.43L182.58 173.24C182.64 173.18 182.7 173.13 182.76 173.08C182.9 172.96 183.03 172.87 183.17 172.75L177.64 163.26C176.42 159.77 182.5 157.46 184.47 159.76L189.73 167.74C189.9 167.63 190.07 167.5 190.24 167.39L186.62 160.04C185.8 157.95 190.83 155.45 192.65 157.31L199.47 165.32L206.49 173.42C206.57 173.51 211.94 180.94 212.01 181.03C214.85 185.5 216.01 189.08 216.01 189.08C216.88 191.68 214.31 194.55 207.09 200.98C200.36 206.97 198.35 209.03 195.84 208.47C195.84 208.47 193.37 207.52 189.36 206.18C181.86 200.44 180.68 198.75 175.53 192.1Z" fill="#F2D2B5"/>
<path d="M197.57 214.21L223.01 190.92L219.71 187.4L194.28 210.68L197.57 214.21Z" fill="white"/>
<path d="M235.06 199.75V220H201.93L196.14 214.1L196.86 213.44L222.3 190.17L224.32 188.32L235.06 199.75Z" fill="#272728"/>
<path opacity="0.54" d="M155.19 157.6C154.06 157.4 152.93 157.65 152.12 158.41C151.23 159.24 150.96 160.48 151.21 161.72C151.34 161.92 151.49 162.12 151.65 162.32C153.09 163.98 155.26 164.46 156.5 163.39C157.75 162.32 157.59 160.11 156.16 158.46C155.86 158.11 155.54 157.84 155.19 157.6Z" fill="#FCECDC"/>
<path d="M73.2002 164.16C75.6002 160.97 82.3702 160.28 85.9002 159.34C89.8502 158.28 93.4402 160.02 97.4102 158.79C100.53 157.82 102.96 158.66 101.74 162.21C100.81 164.95 96.8002 166.18 94.3602 167.18C91.4202 168.39 83.8402 167.39 81.2502 169.5C78.6702 171.6 78.6402 176.18 77.6302 179.06C76.1302 183.31 70.7002 184.42 66.9302 184.3C62.1902 184.15 60.8102 179.17 60.7202 178.19C60.3602 174.17 71.2402 166.78 73.2002 164.16Z" fill="#F3D1B5"/>
<path opacity="0.54" d="M97.5001 158.7C96.8501 158.9 96.2101 159.03 95.5601 159.21C95.6201 159.42 95.6301 159.67 95.7601 159.85C96.7301 161.39 99.1801 161.47 101.22 160.03C101.46 159.86 101.66 159.69 101.87 159.49C101.88 159.47 101.89 159.44 101.9 159.42C101.29 158.24 99.5601 158.06 97.5001 158.7Z" fill="#FCECDC"/>
<path opacity="0.25" d="M101.57 159.11C101.61 159.63 101.55 160.23 101.29 160.99C100.36 163.73 96.3502 164.96 93.9102 165.97C90.9702 167.18 83.3902 166.18 80.8002 168.29C78.2202 170.39 78.1902 174.96 77.1802 177.85C75.6802 182.1 63.1002 184.13 66.9302 184.25C70.7102 184.38 76.1302 183.27 77.6302 179.02C78.6402 176.14 78.6602 171.56 81.2502 169.46C83.8402 167.35 91.4202 168.35 94.3602 167.14C96.8002 166.14 100.8 164.91 101.74 162.16C102.24 160.69 102.1 159.71 101.57 159.11Z" fill="#F9A673"/>
<path d="M104.39 20.45C99.0299 20.45 94.6699 16.09 94.6699 10.73C94.6699 5.37 99.0299 1 104.39 1C109.75 1 114.11 5.36 114.11 10.72C114.11 16.08 109.75 20.45 104.39 20.45ZM104.39 1.96C99.5599 1.96 95.6199 5.89 95.6199 10.73C95.6199 15.56 99.5499 19.5 104.39 19.5C109.22 19.5 113.16 15.57 113.16 10.73C113.16 5.89 109.23 1.96 104.39 1.96Z" fill="#D8C497" stroke="#D8C497" stroke-miterlimit="10"/>
<path d="M81.3899 35.19C76.0299 35.19 71.6699 30.83 71.6699 25.47C71.6699 20.11 76.0299 15.75 81.3899 15.75C86.7499 15.75 91.1099 20.11 91.1099 25.47C91.1099 30.83 86.7599 35.19 81.3899 35.19ZM81.3899 16.7C76.5599 16.7 72.6199 20.63 72.6199 25.47C72.6199 30.3 76.5499 34.24 81.3899 34.24C86.2199 34.24 90.1599 30.31 90.1599 25.47C90.1599 20.63 86.2299 16.7 81.3899 16.7Z" fill="#D8C497" stroke="#D8C497" stroke-miterlimit="10"/>
<path d="M54.2102 53.68C48.8502 53.68 44.4902 49.32 44.4902 43.96C44.4902 38.6 48.8502 34.24 54.2102 34.24C59.5702 34.24 63.9302 38.6 63.9302 43.96C63.9302 49.32 59.5702 53.68 54.2102 53.68ZM54.2102 35.19C49.3802 35.19 45.4402 39.12 45.4402 43.96C45.4402 48.79 49.3702 52.73 54.2102 52.73C59.0402 52.73 62.9802 48.8 62.9802 43.96C62.9802 39.12 59.0402 35.19 54.2102 35.19Z" fill="#D8C497" stroke="#D8C497" stroke-miterlimit="10"/>
<path d="M13.9602 99.23C8.60023 99.23 4.24023 94.87 4.24023 89.51C4.24023 84.15 8.60023 79.79 13.9602 79.79C19.3202 79.79 23.6802 84.15 23.6802 89.51C23.6802 94.87 19.3202 99.23 13.9602 99.23ZM13.9602 80.74C9.13023 80.74 5.19023 84.67 5.19023 89.51C5.19023 94.34 9.12023 98.28 13.9602 98.28C18.7902 98.28 22.7302 94.35 22.7302 89.51C22.7202 84.67 18.7902 80.74 13.9602 80.74Z" fill="#D8C497" stroke="#D8C497" stroke-miterlimit="10"/>
<path d="M10.6302 72.03C5.27016 72.03 0.910156 67.67 0.910156 62.31C0.910156 56.95 5.27016 52.59 10.6302 52.59C15.9902 52.59 20.3502 56.95 20.3502 62.31C20.3502 67.67 15.9902 72.03 10.6302 72.03ZM10.6302 53.54C5.80016 53.54 1.86016 57.47 1.86016 62.31C1.86016 67.14 5.79016 71.08 10.6302 71.08C15.4602 71.08 19.4002 67.15 19.4002 62.31C19.4002 57.47 15.4602 53.54 10.6302 53.54Z" fill="#D8C497" stroke="#D8C497" stroke-miterlimit="10"/>
<path d="M176.61 20.45C171.25 20.45 166.89 16.09 166.89 10.73C166.89 5.37 171.25 1 176.61 1C181.97 1 186.33 5.36 186.33 10.72C186.33 16.08 181.97 20.45 176.61 20.45ZM176.61 1.96C171.78 1.96 167.84 5.89 167.84 10.73C167.84 15.56 171.77 19.5 176.61 19.5C181.44 19.5 185.38 15.57 185.38 10.73C185.37 5.89 181.44 1.96 176.61 1.96Z" fill="#D8C497" stroke="#D8C497" stroke-miterlimit="10"/>
<path d="M199.61 35.19C194.25 35.19 189.89 30.83 189.89 25.47C189.89 20.11 194.25 15.75 199.61 15.75C204.97 15.75 209.33 20.11 209.33 25.47C209.33 30.83 204.97 35.19 199.61 35.19ZM199.61 16.7C194.78 16.7 190.84 20.63 190.84 25.47C190.84 30.3 194.77 34.24 199.61 34.24C204.44 34.24 208.38 30.31 208.38 25.47C208.37 20.63 204.44 16.7 199.61 16.7Z" fill="#D8C497" stroke="#D8C497" stroke-miterlimit="10"/>
<path d="M226.79 53.68C221.43 53.68 217.07 49.32 217.07 43.96C217.07 38.6 221.43 34.24 226.79 34.24C232.15 34.24 236.51 38.6 236.51 43.96C236.51 49.32 232.15 53.68 226.79 53.68ZM226.79 35.19C221.96 35.19 218.02 39.12 218.02 43.96C218.02 48.79 221.95 52.73 226.79 52.73C231.62 52.73 235.56 48.8 235.56 43.96C235.55 39.12 231.62 35.19 226.79 35.19Z" fill="#D8C497" stroke="#D8C497" stroke-miterlimit="10"/>
<path d="M267.04 99.23C261.68 99.23 257.32 94.87 257.32 89.51C257.32 84.15 261.68 79.79 267.04 79.79C272.4 79.79 276.76 84.15 276.76 89.51C276.76 94.87 272.41 99.23 267.04 99.23ZM267.04 80.74C262.21 80.74 258.27 84.67 258.27 89.51C258.27 94.34 262.2 98.28 267.04 98.28C271.87 98.28 275.81 94.35 275.81 89.51C275.81 84.67 271.88 80.74 267.04 80.74Z" fill="#D8C497" stroke="#D8C497" stroke-miterlimit="10"/>
<path d="M270.37 72.03C265.01 72.03 260.65 67.67 260.65 62.31C260.65 56.95 265.01 52.59 270.37 52.59C275.73 52.59 280.09 56.95 280.09 62.31C280.09 67.67 275.73 72.03 270.37 72.03ZM270.37 53.54C265.54 53.54 261.6 57.47 261.6 62.31C261.6 67.14 265.53 71.08 270.37 71.08C275.2 71.08 279.14 67.15 279.14 62.31C279.14 57.47 275.2 53.54 270.37 53.54Z" fill="#D8C497" stroke="#D8C497" stroke-miterlimit="10"/>
<path d="M104.39 19.97V65.69H120.24" stroke="#D8C497" stroke-width="1.5" stroke-miterlimit="10"/>
<path d="M81.3899 34.71V62.3H74.6299V78.93H88.4299" stroke="#D8C497" stroke-width="1.5" stroke-miterlimit="10"/>
<path d="M54.21 53.2V81.85H69V91.93" stroke="#D8C497" stroke-width="1.5" stroke-miterlimit="10"/>
<path d="M19.8701 62.3H47.7901V110H58.0001" stroke="#D8C497" stroke-width="1.5" stroke-miterlimit="10"/>
<path d="M13.96 98.75V160.43H59" stroke="#D8C497" stroke-width="1.5" stroke-miterlimit="10"/>
<path d="M176.61 19.97V77.86H160.76" stroke="#D8C497" stroke-width="1.5" stroke-miterlimit="10"/>
<path d="M199.61 34.71V62.3H206.37V96.35H192.57" stroke="#D8C497" stroke-width="1.5" stroke-miterlimit="10"/>
<path d="M226.79 53.2V81.85H216.42V91.93" stroke="#D8C497" stroke-width="1.5" stroke-miterlimit="10"/>
<path d="M261.13 62.3H240.6V103.13H233.09" stroke="#D8C497" stroke-width="1.5" stroke-miterlimit="10"/>
<path d="M267.04 98.75V146H233" stroke="#D8C497" stroke-width="1.5" stroke-miterlimit="10"/>
<path d="M104.41 17.65C102.89 17.65 101.65 16.41 101.65 14.88C101.65 13.92 102.14 13.04 102.95 12.53V5.25C102.95 4.44 103.61 3.79 104.41 3.79C105.22 3.79 105.87 4.45 105.87 5.25V12.54C106.68 13.04 107.17 13.93 107.17 14.89C107.18 16.41 105.94 17.65 104.41 17.65ZM104.41 4.43C103.96 4.43 103.59 4.8 103.59 5.25V12.91L103.42 13C102.72 13.37 102.29 14.09 102.29 14.88C102.29 16.05 103.24 17.01 104.42 17.01C105.59 17.01 106.55 16.06 106.55 14.88C106.55 14.09 106.12 13.37 105.42 13L105.25 12.91V5.25C105.24 4.8 104.87 4.43 104.41 4.43Z" fill="#D8C497" stroke="#D8C497" stroke-miterlimit="10"/>
<path d="M84.1402 22.96V21.37C84.1402 19.85 82.9102 18.62 81.3902 18.62C79.8702 18.62 78.6402 19.85 78.6402 21.37V22.96H77.2402V31.16H85.5402V22.96H84.1402ZM80.1502 21.38C80.1502 20.69 80.7102 20.13 81.4002 20.13C82.0902 20.13 82.6502 20.69 82.6502 21.38V22.97H80.1602V21.38H80.1502Z" fill="#D8C497"/>
<path d="M58.94 40.37C58.94 39.31 56.82 38.45 54.21 38.45C51.6 38.45 49.48 39.31 49.48 40.37V48.21L54.21 50.79L58.94 48.21V40.37Z" fill="#D8C497"/>
<path d="M14.9004 60.41C14.7904 60.41 14.6904 60.42 14.5904 60.44C14.7804 60.18 14.9004 59.86 14.9004 59.51C14.9004 58.64 14.1904 57.93 13.3204 57.93C13.1304 57.93 12.9504 57.97 12.7804 58.03C12.8004 57.91 12.8204 57.8 12.8204 57.67C12.8204 56.56 11.9204 55.65 10.8004 55.65C9.68035 55.65 8.78035 56.55 8.78035 57.67C8.78035 57.86 8.81035 58.03 8.86035 58.2C8.68035 58.14 8.50035 58.1 8.30035 58.1C7.35035 58.1 6.58035 58.87 6.58035 59.82C6.58035 60.04 6.63035 60.25 6.70035 60.44C6.59035 60.41 6.47035 60.4 6.35035 60.4C5.53035 60.4 4.86035 61.07 4.86035 61.89C4.86035 62.71 5.53035 63.38 6.35035 63.38C7.17035 63.38 14.0604 63.38 14.8904 63.38C15.7104 63.38 16.3804 62.71 16.3804 61.89C16.3904 61.08 15.7204 60.41 14.9004 60.41Z" fill="#D8C497"/>
<path d="M18.8401 92.68V90.98H18.0601C17.9901 90.72 17.8801 90.47 17.7501 90.24L18.3001 89.69L17.1001 88.49L16.5501 89.04C16.3201 88.91 16.0701 88.8 15.8101 88.73V87.95H14.1101V88.73C13.8501 88.8 13.6001 88.91 13.3701 89.04L12.8201 88.49L11.6201 89.69L12.1701 90.24C12.0401 90.47 11.9301 90.72 11.8601 90.98H11.0801V92.68H11.8601C11.9301 92.94 12.0401 93.19 12.1701 93.42L11.6201 93.97L12.8201 95.17L13.3701 94.62C13.6001 94.75 13.8501 94.86 14.1101 94.93V95.71H15.8101V94.93C16.0701 94.86 16.3201 94.75 16.5501 94.62L17.1001 95.17L18.3001 93.97L17.7501 93.42C17.8801 93.19 17.9901 92.94 18.0601 92.68H18.8401ZM14.9601 93.34C14.1201 93.34 13.4401 92.66 13.4401 91.82C13.4401 90.98 14.1201 90.3 14.9601 90.3C15.8001 90.3 16.4801 90.98 16.4801 91.82C16.4701 92.66 15.7901 93.34 14.9601 93.34Z" fill="#D8C497"/>
<path d="M12.1703 88.38V87.87C12.3403 87.82 12.5003 87.75 12.6503 87.67L13.0103 88.03L13.8003 87.24L13.4403 86.88C13.5303 86.73 13.5903 86.57 13.6403 86.4H14.1503V85.29H13.6403C13.5903 85.12 13.5203 84.96 13.4403 84.81L13.8003 84.45L13.0103 83.66L12.6503 84.02C12.5003 83.93 12.3403 83.87 12.1703 83.82V83.31H11.0603V83.82C10.8903 83.87 10.7303 83.93 10.5803 84.02L10.2203 83.66L9.43031 84.45L9.79031 84.81C9.70031 84.96 9.64031 85.12 9.59031 85.29H9.07031V86.4H9.58031C9.63031 86.57 9.70031 86.73 9.78031 86.88L9.42031 87.24L10.2103 88.03L10.5703 87.67C10.7203 87.76 10.8803 87.82 11.0503 87.87V88.38H12.1703ZM10.6203 85.84C10.6203 85.29 11.0603 84.85 11.6103 84.85C12.1603 84.85 12.6003 85.29 12.6003 85.84C12.6003 86.39 12.1603 86.83 11.6103 86.83C11.0703 86.83 10.6203 86.39 10.6203 85.84Z" fill="#D8C497"/>
<path d="M203.26 31.6C203.26 31.97 201.56 32.27 199.47 32.27C197.38 32.27 195.68 31.97 195.68 31.6C195.68 31.23 197.38 30.93 199.47 30.93C201.56 30.93 203.26 31.23 203.26 31.6Z" fill="#D8C497"/>
<path d="M199.47 18.94C197.38 18.94 195.68 20.64 195.68 22.73C195.68 23.26 195.79 23.77 195.99 24.22C196.02 24.3 196.06 24.37 196.1 24.44L199.48 31.59L202.83 24.49C203.11 23.96 203.27 23.35 203.27 22.71C203.26 20.63 201.56 18.94 199.47 18.94ZM199.47 25.28C198.06 25.28 196.92 24.14 196.92 22.73C196.92 21.32 198.06 20.18 199.47 20.18C200.88 20.18 202.02 21.32 202.02 22.73C202.02 24.14 200.88 25.28 199.47 25.28Z" fill="#D8C497"/>
<path d="M201.38 22.73C201.38 23.79 200.52 24.64 199.47 24.64C198.42 24.64 197.56 23.78 197.56 22.73C197.56 21.67 198.42 20.82 199.47 20.82C200.52 20.82 201.38 21.67 201.38 22.73Z" fill="#D8C497"/>
<path d="M264.33 93.53C264.33 93.94 264 94.27 263.59 94.27C263.18 94.27 262.85 93.94 262.85 93.53C262.85 93.12 263.18 92.79 263.59 92.79C264 92.79 264.33 93.12 264.33 93.53Z" fill="#D8C497"/>
<path d="M262.86 91.19C264.55 91.19 265.93 92.57 265.93 94.26H266.94C266.94 92.01 265.11 90.18 262.86 90.18V91.19Z" fill="#D8C497"/>
<path d="M262.86 88.57C266 88.57 268.55 91.12 268.55 94.26H269.7C269.7 90.49 266.63 87.42 262.86 87.42V88.57Z" fill="#D8C497"/>
<path d="M262.86 85.98C267.43 85.98 271.14 89.7 271.14 94.26H272.38C272.38 89.01 268.11 84.74 262.86 84.74V85.98Z" fill="#D8C497"/>
<path d="M272.35 66.41C272.15 66.5 271.95 66.57 271.75 66.64C271.95 66.46 272.14 66.27 272.31 66.06L272.2 65.22C271.8 65.83 271.28 66.34 270.66 66.72V64.42C271.17 64.45 271.67 64.56 272.14 64.74L272.06 64.12C271.61 63.97 271.14 63.88 270.66 63.86V62.26H273.15C273.13 62.72 273.06 63.16 272.94 63.58L273.43 63.99C273.61 63.44 273.71 62.86 273.73 62.26H275.21C275.16 63.18 274.85 64.03 274.35 64.75L274.78 65.11C275.41 64.23 275.78 63.15 275.78 61.99C275.78 60.59 275.25 59.32 274.37 58.35L274.38 58.34L274.18 58.14C273.3 57.26 272.16 56.73 270.94 56.6C270.93 56.6 270.92 56.6 270.91 56.6C270.84 56.59 270.76 56.59 270.69 56.58C270.67 56.58 270.66 56.58 270.64 56.58C270.61 56.58 270.58 56.58 270.54 56.58C270.42 56.57 270.29 56.56 270.17 56.56C270.13 56.56 270.09 56.57 270.06 56.58C270.05 56.58 270.05 56.58 270.04 56.58C269.96 56.58 269.89 56.59 269.82 56.6C269.81 56.6 269.8 56.6 269.79 56.6C268.57 56.73 267.43 57.27 266.55 58.14L266.35 58.34L266.36 58.35C265.49 59.31 264.95 60.59 264.95 61.99C264.95 63.39 265.48 64.66 266.36 65.63L266.35 65.64L266.55 65.84C267.43 66.72 268.57 67.25 269.79 67.38C269.8 67.38 269.81 67.38 269.82 67.38C269.89 67.39 269.97 67.39 270.04 67.4C270.05 67.4 270.05 67.4 270.06 67.4C270.09 67.41 270.13 67.42 270.17 67.42C270.3 67.42 270.42 67.41 270.54 67.4C270.57 67.4 270.6 67.4 270.64 67.4C270.66 67.4 270.67 67.4 270.69 67.4C270.77 67.4 270.84 67.39 270.91 67.38C270.92 67.38 270.93 67.38 270.94 67.38C271.45 67.33 271.95 67.2 272.42 67.01L272.35 66.41ZM275.22 61.7H273.74C273.71 60.86 273.51 60.05 273.19 59.32C273.47 59.15 273.73 58.95 273.98 58.73C274.7 59.53 275.15 60.56 275.22 61.7ZM273.58 58.34C273.38 58.52 273.16 58.68 272.94 58.82C272.62 58.26 272.22 57.75 271.75 57.33C272.44 57.52 273.06 57.88 273.58 58.34ZM270.66 57.24C271.39 57.69 271.99 58.34 272.42 59.1C271.87 59.36 271.28 59.51 270.66 59.54V57.24ZM270.66 60.1C271.36 60.06 272.04 59.89 272.67 59.6C272.95 60.25 273.12 60.96 273.15 61.7H270.66V60.1ZM268.99 57.32C268.52 57.74 268.12 58.25 267.8 58.81C267.58 58.67 267.36 58.51 267.16 58.33C267.68 57.88 268.31 57.53 268.99 57.32ZM266.76 58.73C267.01 58.95 267.27 59.15 267.55 59.32C267.23 60.05 267.04 60.86 267 61.7H265.52C265.59 60.56 266.05 59.53 266.76 58.73ZM265.52 62.26H267C267.03 63.1 267.23 63.91 267.55 64.64C267.27 64.81 267.01 65.01 266.76 65.23C266.05 64.43 265.59 63.39 265.52 62.26ZM267.16 65.62C267.36 65.44 267.58 65.28 267.8 65.14C268.11 65.7 268.52 66.21 268.99 66.63C268.31 66.43 267.68 66.08 267.16 65.62ZM270.08 66.72C269.35 66.27 268.75 65.63 268.32 64.86C268.87 64.6 269.46 64.45 270.08 64.42V66.72ZM270.08 63.86C269.38 63.9 268.7 64.07 268.07 64.36C267.79 63.72 267.62 63 267.59 62.26H270.08V63.86ZM270.08 61.7H267.59C267.62 60.96 267.79 60.24 268.07 59.6C268.69 59.89 269.37 60.06 270.08 60.1V61.7ZM270.08 59.54C269.46 59.5 268.87 59.35 268.32 59.1C268.75 58.34 269.34 57.7 270.08 57.24V59.54Z" fill="#D8C497"/>
<path d="M275.13 65.86L272.37 63.59L272.82 67.13L273.63 66.69L274.39 68.06L275.07 67.68L274.32 66.31L275.13 65.86Z" fill="#D8C497"/>
<path d="M231.5 41.6C230.63 39.87 228.85 38.68 226.79 38.68C224.1 38.68 221.87 40.71 221.56 43.31H222.87C223.18 41.42 224.82 39.97 226.79 39.97C228.5 39.97 229.96 41.06 230.52 42.58L229.79 43.31H230.72H232.03H232.27V40.84L231.5 41.6Z" fill="#D8C497"/>
<path d="M226.78 47.93C225.07 47.93 223.61 46.85 223.05 45.33L223.79 44.59H222.86H221.55H221.31V47.06L222.07 46.3C222.94 48.03 224.72 49.22 226.78 49.22C229.47 49.22 231.7 47.19 232.01 44.59H230.7C230.4 46.48 228.76 47.93 226.78 47.93Z" fill="#D8C497"/>
<path d="M54.21 38.45V50.79L58.94 48.21V40.37C58.94 39.31 56.83 38.45 54.21 38.45Z" fill="#D8C497"/>
<path d="M104.41 18.12H103.27V18.76H104.41V18.12Z" fill="#D8C497"/>
<path d="M104.41 16.48H103.27V17.12H104.41V16.48Z" fill="#D8C497"/>
<path d="M104.41 14.85H103.27V15.49H104.41V14.85Z" fill="#D8C497"/>
<path d="M104.41 13.21H103.27V13.85H104.41V13.21Z" fill="#D8C497"/>
<path d="M7.38022 65.65C7.38022 65.97 7.12022 66.23 6.80022 66.23C6.48022 66.23 6.22021 65.97 6.22021 65.65C6.22021 65.33 6.48022 64.3 6.80022 64.3C7.12022 64.3 7.38022 65.33 7.38022 65.65Z" fill="#D8C497"/>
<path d="M9.93002 65.65C9.93002 65.97 9.67002 66.23 9.35002 66.23C9.03002 66.23 8.77002 65.97 8.77002 65.65C8.77002 65.33 9.03002 64.3 9.35002 64.3C9.67002 64.3 9.93002 65.33 9.93002 65.65Z" fill="#D8C497"/>
<path d="M12.4901 65.65C12.4901 65.97 12.2301 66.23 11.9101 66.23C11.5901 66.23 11.3301 65.97 11.3301 65.65C11.3301 65.33 11.5901 64.3 11.9101 64.3C12.2301 64.3 12.4901 65.33 12.4901 65.65Z" fill="#D8C497"/>
<path d="M15.0404 65.65C15.0404 65.97 14.7804 66.23 14.4604 66.23C14.1404 66.23 13.8804 65.97 13.8804 65.65C13.8804 65.33 14.1404 64.3 14.4604 64.3C14.7804 64.3 15.0404 65.33 15.0404 65.65Z" fill="#D8C497"/>
<path d="M8.66 68.05C8.66 68.37 8.4 68.63 8.08 68.63C7.76 68.63 7.5 68.37 7.5 68.05C7.5 67.73 7.76 66.7 8.08 66.7C8.4 66.7 8.66 67.73 8.66 68.05Z" fill="#D8C497"/>
<path d="M11.2098 68.05C11.2098 68.37 10.9498 68.63 10.6298 68.63C10.3098 68.63 10.0498 68.37 10.0498 68.05C10.0498 67.73 10.3098 66.7 10.6298 66.7C10.9498 66.7 11.2098 67.73 11.2098 68.05Z" fill="#D8C497"/>
<path d="M13.7699 68.05C13.7699 68.37 13.5099 68.63 13.1899 68.63C12.8699 68.63 12.6099 68.37 12.6099 68.05C12.6099 67.73 12.8699 66.7 13.1899 66.7C13.5099 66.7 13.7699 67.73 13.7699 68.05Z" fill="#D8C497"/>
<path d="M181.55 14.52C181.31 15.12 180.23 15.66 179.76 15.69C179.28 15.72 179.27 16.06 176.68 14.92C174.09 13.78 172.53 11.02 172.41 10.84C172.29 10.66 171.41 9.4 171.45 8.12C171.5 6.84 172.19 6.24 172.44 5.99C172.69 5.74 172.97 5.69 173.14 5.69C173.31 5.7 173.48 5.72 173.64 5.73C173.79 5.74 174.01 5.66 174.21 6.18C174.41 6.71 174.88 8 174.94 8.13C175 8.26 175.04 8.41 174.94 8.58C174.85 8.75 174.8 8.86 174.67 9C174.53 9.15 174.39 9.33 174.26 9.44C174.13 9.56 173.99 9.7 174.13 9.96C174.27 10.22 174.76 11.09 175.5 11.81C176.46 12.73 177.28 13.04 177.53 13.17C177.78 13.31 177.94 13.29 178.09 13.13C178.25 12.96 178.76 12.4 178.95 12.15C179.13 11.9 179.3 11.95 179.54 12.04C179.77 12.13 181.02 12.81 181.28 12.95C181.53 13.09 181.7 13.16 181.76 13.27C181.8 13.4 181.78 13.92 181.55 14.52Z" fill="#D8C497"/>
</g>
<defs>
<clipPath id="clip0_215_7072">
<rect width="281" height="220" fill="white"/>
</clipPath>
</defs>
</svg>
