<svg width="281" height="220" viewBox="0 0 281 220" fill="none" xmlns="http://www.w3.org/2000/svg">
<path d="M269.99 131.74H258.1C252.91 131.74 248.7 127.53 248.7 122.34V116.4C248.7 111.21 252.91 107 258.1 107H269.99C271.9 107 273.44 108.54 273.44 110.45V128.29C273.44 130.2 271.9 131.74 269.99 131.74Z" fill="#E1E1E1"/>
<path d="M264.95 131.74H248.31C246.07 131.74 244.26 129.93 244.26 127.69V111.05C244.26 108.81 246.07 107 248.31 107H264.95C267.19 107 269 108.81 269 111.05V127.69C269 129.93 267.18 131.74 264.95 131.74Z" fill="#ECECEC"/>
<path d="M257.7 125.64L250.2 120.63L251.95 118.01L256.98 121.38L263.23 113.1L265.74 115L257.7 125.64Z" fill="#E1E1E1"/>
<path d="M162.92 21.34C163.04 28.61 157.25 34.61 150.01 34.73C142.78 34.85 136.8 29.03 136.68 21.76C136.56 14.49 142.35 8.49 149.59 8.37C156.82 8.26 162.8 14.08 162.92 21.34ZM143.53 21.65C143.59 25.12 146.44 27.9 149.9 27.85C153.36 27.79 156.13 24.92 156.07 21.45C156.01 17.98 153.16 15.2 149.7 15.25C146.24 15.31 143.48 18.18 143.53 21.65Z" fill="#ECECEC"/>
<path d="M162.92 21.34C163.04 28.61 157.25 34.61 150.01 34.73L149.9 27.85C153.36 27.79 156.13 24.92 156.07 21.45C156.01 17.98 153.16 15.2 149.7 15.25L149.59 8.37C156.82 8.26 162.8 14.08 162.92 21.34Z" fill="#E1E1E1"/>
<path d="M151.19 35.79C142.73 35.93 135.98 29.36 135.84 20.86L143.85 20.73C143.91 24.79 147.01 27.35 151.05 27.29L151.19 35.79Z" fill="#F5F5F5"/>
<path d="M183.59 128.39C183.74 137.57 176.42 145.17 167.28 145.31C158.14 145.46 150.58 138.11 150.43 128.92C150.28 119.74 157.6 112.14 166.74 112C175.88 111.85 183.44 119.21 183.59 128.39ZM159.08 128.79C159.15 133.18 162.76 136.7 167.13 136.63C171.5 136.56 175 132.93 174.93 128.54C174.86 124.15 171.25 120.63 166.88 120.7C162.51 120.77 159.01 124.4 159.08 128.79Z" fill="#ECECEC"/>
<path d="M183.59 128.39C183.74 137.57 176.42 145.17 167.28 145.31L167.14 136.62C171.51 136.55 175.01 132.92 174.94 128.53C174.87 124.14 171.26 120.62 166.89 120.69L166.75 112C175.88 111.85 183.44 119.21 183.59 128.39Z" fill="#E1E1E1"/>
<path d="M168.76 146.65C158.06 146.82 149.53 138.52 149.36 127.78L159.48 127.62C159.56 132.76 163.47 135.99 168.59 135.91L168.76 146.65Z" fill="#F5F5F5"/>
<path d="M224.32 214.4H230.64V198.57H235.05L235.52 193.27H230.64C230.64 193.27 230.64 191.29 230.64 190.25C230.64 189 230.89 188.51 232.1 188.51C233.07 188.51 235.52 188.51 235.52 188.51V183C235.52 183 231.91 183 231.14 183C226.43 183 224.31 185.07 224.31 189.04C224.31 192.5 224.31 193.27 224.31 193.27H221.02V198.64H224.31V214.4H224.32Z" fill="#ECECEC"/>
<path d="M35.2001 65.76L50.7801 63.38C52.0901 71.93 46.1301 80.03 37.5801 81.34C29.0301 82.65 20.9301 76.69 19.6201 68.14C18.3101 59.59 24.2701 51.49 32.8201 50.18C34.1801 49.97 35.5601 49.94 36.9301 50.09L35.2001 65.76Z" fill="#F5F5F5"/>
<path d="M40.2601 50.15L38.3701 62.23L50.2201 60C50.2201 60 48.4801 53.23 40.2601 50.15Z" fill="#E1E1E1"/>
<path d="M61.1702 166.72H39.8502C36.7202 166.72 34.1802 169.26 34.1802 172.39V185.27C34.1802 188.4 36.7202 190.94 39.8502 190.94H47.6702L50.5102 195.03L53.3502 190.94H61.1702C64.3002 190.94 66.8402 188.4 66.8402 185.27V172.39C66.8302 169.26 64.2902 166.72 61.1702 166.72Z" fill="white"/>
<path d="M61.1701 166.72C61.1701 166.72 61.4201 166.7 61.9101 166.75C62.3901 166.8 63.1101 166.95 63.9401 167.4C64.3501 167.63 64.7801 167.93 65.1901 168.33C65.5901 168.74 65.9801 169.24 66.2901 169.84C66.5901 170.44 66.8101 171.15 66.8801 171.92C66.9301 172.69 66.9001 173.5 66.9101 174.35C66.9101 176.06 66.9201 177.94 66.9201 179.97C66.9201 180.99 66.9201 182.05 66.9301 183.14C66.9301 183.69 66.9301 184.24 66.9301 184.81C66.9401 185.37 66.9101 185.96 66.7901 186.54C66.5301 187.69 65.9001 188.81 64.9501 189.62C64.0101 190.44 62.7601 190.98 61.4401 191.02C58.8501 191.05 56.1601 191.03 53.3601 191.04L53.4501 190.99C52.5501 192.28 51.5901 193.67 50.6101 195.08L50.5201 195.21L50.4301 195.08C49.5301 193.78 48.5701 192.4 47.5901 190.99L47.6801 191.04C45.8701 191.04 43.9501 191.04 42.0101 191.04C41.5401 191.04 41.0801 191.04 40.6101 191.04C40.1501 191.04 39.6801 191.05 39.2101 191C38.2801 190.89 37.3701 190.55 36.6101 190.03C35.8501 189.5 35.2201 188.8 34.7801 188C34.3501 187.19 34.1201 186.29 34.1001 185.39C34.1001 181.87 34.1001 178.47 34.1001 175.23C34.1001 174.42 34.1001 173.62 34.1001 172.83C34.0801 172.04 34.1601 171.23 34.4201 170.5C34.9301 169.02 36.0401 167.83 37.3601 167.2C38.0201 166.88 38.7301 166.7 39.4301 166.65C40.1401 166.61 40.8101 166.64 41.4801 166.63C42.8201 166.63 44.1001 166.63 45.3201 166.64C50.2101 166.66 54.1701 166.67 56.9201 166.68C58.2801 166.69 59.3401 166.7 60.0701 166.7C60.4201 166.7 60.7001 166.71 60.8901 166.71C61.0701 166.72 61.1701 166.72 61.1701 166.72C61.1701 166.72 61.0801 166.73 60.8901 166.73C60.7001 166.73 60.4201 166.74 60.0701 166.74C59.3401 166.74 58.2801 166.75 56.9201 166.76C54.1701 166.77 50.2101 166.78 45.3201 166.8C44.1001 166.8 42.8101 166.8 41.4801 166.81C40.8101 166.82 40.1201 166.79 39.4401 166.83C38.7601 166.88 38.0701 167.06 37.4401 167.37C36.1701 167.98 35.0901 169.14 34.6001 170.57C34.3401 171.29 34.2801 172.05 34.2901 172.84C34.2901 173.63 34.2901 174.43 34.2901 175.24C34.2901 178.48 34.3001 181.88 34.3001 185.4C34.3201 186.26 34.5501 187.13 34.9601 187.9C35.3801 188.67 35.9901 189.35 36.7201 189.85C37.4601 190.35 38.3201 190.67 39.2201 190.78C39.6701 190.82 40.1301 190.82 40.5901 190.82C41.0501 190.82 41.5201 190.82 41.9901 190.82C43.9301 190.82 45.8501 190.82 47.6601 190.82H47.7201L47.7501 190.87C48.7301 192.28 49.6901 193.67 50.5901 194.96H50.4101C51.3901 193.55 52.3601 192.16 53.2501 190.87L53.2801 190.82H53.3401C56.1301 190.82 58.8401 190.84 61.4101 190.81C62.6801 190.77 63.8801 190.25 64.8001 189.47C65.7201 188.68 66.3401 187.61 66.5901 186.5C66.7101 185.94 66.7401 185.38 66.7301 184.81C66.7301 184.25 66.7301 183.69 66.7301 183.14C66.7301 182.05 66.7301 180.99 66.7401 179.97C66.7401 177.93 66.7501 176.05 66.7501 174.35C66.7401 173.5 66.7801 172.68 66.7301 171.93C66.6701 171.18 66.4601 170.48 66.1701 169.89C65.8801 169.3 65.5001 168.8 65.1101 168.4C64.7101 168 64.2801 167.7 63.8801 167.47C63.0701 167.02 62.3601 166.86 61.8801 166.8C61.6401 166.75 61.4601 166.76 61.3301 166.75C61.2301 166.73 61.1701 166.72 61.1701 166.72Z" fill="#E1E1E1"/>
<path d="M46.1102 179.16C46.1102 180.17 45.2902 180.99 44.2802 180.99C43.2702 180.99 42.4502 180.17 42.4502 179.16C42.4502 178.15 43.2702 177.33 44.2802 177.33C45.2902 177.32 46.1102 178.15 46.1102 179.16Z" fill="#E1E1E1"/>
<path d="M52.1502 179.16C52.1502 180.17 51.3302 180.99 50.3202 180.99C49.3102 180.99 48.4902 180.17 48.4902 179.16C48.4902 178.15 49.3102 177.33 50.3202 177.33C51.3302 177.33 52.1502 178.15 52.1502 179.16Z" fill="#E1E1E1"/>
<path d="M58.18 179.16C58.18 180.17 57.36 180.99 56.35 180.99C55.34 180.99 54.52 180.17 54.52 179.16C54.52 178.15 55.34 177.33 56.35 177.33C57.36 177.32 58.18 178.15 58.18 179.16Z" fill="#E1E1E1"/>
<path d="M249.56 72.09H228.25C225.12 72.09 222.59 74.63 222.59 77.75V90.63C222.59 93.76 225.13 96.29 228.25 96.29H236.07L238.91 100.38L241.75 96.29H249.57C252.7 96.29 255.23 93.75 255.23 90.63V77.76C255.22 74.63 252.69 72.09 249.56 72.09Z" fill="white"/>
<path d="M249.56 72.09C249.56 72.09 249.81 72.07 250.3 72.12C250.78 72.17 251.5 72.32 252.33 72.77C252.74 73 253.17 73.3 253.58 73.7C253.98 74.11 254.37 74.61 254.68 75.21C254.98 75.81 255.2 76.52 255.27 77.29C255.32 78.06 255.29 78.87 255.3 79.72C255.3 81.43 255.31 83.31 255.31 85.34C255.31 86.36 255.31 87.42 255.32 88.51C255.32 89.06 255.32 89.61 255.32 90.18C255.33 90.74 255.3 91.33 255.18 91.91C254.92 93.06 254.29 94.17 253.34 94.99C252.4 95.81 251.15 96.35 249.84 96.39C247.25 96.42 244.56 96.4 241.76 96.41L241.85 96.36C240.95 97.65 239.99 99.04 239.01 100.45L238.92 100.58L238.83 100.45C237.93 99.15 236.97 97.77 235.99 96.36L236.08 96.41C234.27 96.41 232.35 96.41 230.41 96.41C229.94 96.41 229.48 96.41 229.01 96.41C228.55 96.41 228.08 96.42 227.61 96.37C226.68 96.26 225.77 95.92 225.01 95.4C224.25 94.87 223.62 94.17 223.18 93.37C222.75 92.56 222.52 91.66 222.5 90.76C222.5 87.24 222.5 83.84 222.5 80.6C222.5 79.79 222.5 78.99 222.5 78.2C222.48 77.41 222.56 76.6 222.82 75.87C223.33 74.39 224.44 73.2 225.76 72.57C226.42 72.25 227.13 72.07 227.83 72.02C228.54 71.98 229.21 72.01 229.88 72C231.22 72 232.5 72 233.72 72.01C238.61 72.03 242.57 72.04 245.32 72.05C246.68 72.06 247.74 72.07 248.47 72.07C248.82 72.07 249.1 72.08 249.29 72.08C249.46 72.08 249.56 72.09 249.56 72.09C249.56 72.09 249.47 72.1 249.28 72.1C249.09 72.1 248.81 72.11 248.46 72.11C247.73 72.11 246.67 72.12 245.31 72.13C242.56 72.14 238.6 72.15 233.71 72.17C232.49 72.17 231.2 72.17 229.87 72.18C229.21 72.19 228.51 72.16 227.83 72.2C227.15 72.25 226.46 72.43 225.83 72.74C224.56 73.35 223.48 74.5 223 75.93C222.74 76.65 222.68 77.41 222.69 78.2C222.69 78.99 222.69 79.79 222.69 80.6C222.69 83.84 222.7 87.23 222.7 90.76C222.72 91.62 222.95 92.49 223.36 93.26C223.78 94.03 224.39 94.7 225.12 95.21C225.86 95.71 226.72 96.03 227.62 96.14C228.07 96.18 228.53 96.18 228.99 96.18C229.45 96.18 229.92 96.18 230.39 96.18C232.33 96.18 234.25 96.18 236.06 96.18H236.12L236.15 96.23C237.13 97.64 238.09 99.02 238.99 100.32H238.81C239.79 98.91 240.75 97.52 241.65 96.23L241.68 96.18H241.74C244.53 96.18 247.24 96.2 249.81 96.17C251.08 96.13 252.28 95.61 253.2 94.83C254.12 94.04 254.74 92.97 254.99 91.86C255.11 91.3 255.14 90.74 255.13 90.17C255.13 89.61 255.13 89.05 255.13 88.5C255.13 87.41 255.13 86.35 255.14 85.33C255.14 83.29 255.15 81.41 255.15 79.71C255.14 78.86 255.18 78.04 255.13 77.29C255.07 76.54 254.86 75.84 254.57 75.25C254.28 74.66 253.9 74.16 253.51 73.76C253.11 73.36 252.68 73.06 252.29 72.83C251.48 72.38 250.77 72.22 250.29 72.16C250.05 72.11 249.87 72.12 249.74 72.11C249.62 72.1 249.56 72.09 249.56 72.09Z" fill="#E1E1E1"/>
<path d="M234.51 84.52C234.51 85.53 233.69 86.35 232.68 86.35C231.67 86.35 230.85 85.53 230.85 84.52C230.85 83.51 231.67 82.69 232.68 82.69C233.69 82.69 234.51 83.51 234.51 84.52Z" fill="#E1E1E1"/>
<path d="M240.54 84.52C240.54 85.53 239.72 86.35 238.71 86.35C237.7 86.35 236.88 85.53 236.88 84.52C236.88 83.51 237.7 82.69 238.71 82.69C239.72 82.69 240.54 83.51 240.54 84.52Z" fill="#E1E1E1"/>
<path d="M246.57 84.52C246.57 85.53 245.75 86.35 244.74 86.35C243.73 86.35 242.91 85.53 242.91 84.52C242.91 83.51 243.73 82.69 244.74 82.69C245.75 82.69 246.57 83.51 246.57 84.52Z" fill="#E1E1E1"/>
<path d="M76.91 124.82C73.08 124.82 69.96 121.7 69.96 117.87V31.89C69.96 28.06 73.08 24.94 76.91 24.94H207.21C207.39 24.94 207.57 24.95 207.75 24.96C211.36 25.26 214.15 28.3 214.15 31.89V117.87C214.15 121.7 211.04 124.82 207.21 124.82H76.91Z" fill="#B2CCCA"/>
<path d="M207.21 25.45C207.39 25.45 207.57 25.46 207.75 25.47C211.05 25.75 213.65 28.52 213.65 31.9V117.88C213.65 121.43 210.77 124.33 207.21 124.33H157.83C157.83 124.33 157.83 124.33 157.82 124.33H76.91C73.34 124.33 70.46 121.44 70.46 117.88V31.89C70.46 28.32 73.34 25.44 76.91 25.44H207.21M207.21 24.45H76.91C72.8 24.45 69.46 27.79 69.46 31.9V117.88C69.46 121.99 72.8 125.33 76.91 125.33H157.82H158.82H207.21C211.31 125.33 214.65 121.99 214.65 117.88V31.89C214.65 28.05 211.66 24.78 207.84 24.47H207.83H207.79C207.59 24.46 207.41 24.45 207.21 24.45Z" fill="#3A3A3A"/>
<path d="M100.27 30.15H191.05" stroke="white" stroke-width="3" stroke-miterlimit="10" stroke-linecap="round"/>
<path d="M213.65 33.92V117.87C213.65 121.42 210.77 124.32 207.21 124.32H157.9L158.14 124.72H115.32L115.62 124.32H76.9099C73.3399 124.32 70.4599 121.43 70.4599 117.87V103.94L70.4199 103.97V33.92H213.65Z" fill="#F8FAFC"/>
<path d="M200.77 33.92L153.97 90.56L144.84 80.23L131.89 85.99L115.51 69.62L70.4697 103.94V117.87C70.4697 121.42 73.3497 124.32 76.9197 124.32H115.63L115.33 124.72H158.15L157.91 124.32H207.22C210.77 124.32 213.66 121.43 213.66 117.87V33.92H200.77Z" fill="#D8C497"/>
<path d="M103.3 97H98.7197V100.47H103.3V97Z" fill="#FEFEFE"/>
<path d="M109.76 97H105.18V100.47H109.76V97Z" fill="#FEFEFE"/>
<path d="M116.22 97H111.64V100.47H116.22V97Z" fill="#FD425F"/>
<path d="M122.67 97H118.09V100.47H122.67V97Z" fill="#FEFEFE"/>
<path d="M129.13 97H124.55V100.47H129.13V97Z" fill="#FEFEFE"/>
<path d="M135.59 97H131.01V100.47H135.59V97Z" fill="#FD425F"/>
<path d="M103.3 102.93H98.7197V106.4H103.3V102.93Z" fill="#FEFEFE"/>
<path d="M109.76 102.93H105.18V106.4H109.76V102.93Z" fill="#FEFEFE"/>
<path d="M116.22 102.93H111.64V106.4H116.22V102.93Z" fill="#FEFEFE"/>
<path d="M122.67 102.93H118.09V106.4H122.67V102.93Z" fill="#FEFEFE"/>
<path d="M129.13 102.93H124.55V106.4H129.13V102.93Z" fill="#FD425F"/>
<path d="M135.59 102.93H131.01V106.4H135.59V102.93Z" fill="#FEFEFE"/>
<path d="M103.3 108.86H98.7197V112.33H103.3V108.86Z" fill="#FEFEFE"/>
<path d="M109.76 108.86H105.18V112.33H109.76V108.86Z" fill="#FD425F"/>
<path d="M116.22 108.86H111.64V112.33H116.22V108.86Z" fill="#FEFEFE"/>
<path d="M122.67 108.86H118.09V112.33H122.67V108.86Z" fill="#FEFEFE"/>
<path d="M129.13 108.86H124.55V112.33H129.13V108.86Z" fill="#FEFEFE"/>
<path d="M135.59 108.86H131.01V112.33H135.59V108.86Z" fill="#FEFEFE"/>
<path d="M103.3 114.79H98.7197V118.26H103.3V114.79Z" fill="#FEFEFE"/>
<path d="M109.76 114.79H105.18V118.26H109.76V114.79Z" fill="#FEFEFE"/>
<path d="M116.22 114.79H111.64V118.26H116.22V114.79Z" fill="#FD425F"/>
<path d="M122.67 114.79H118.09V118.26H122.67V114.79Z" fill="#FEFEFE"/>
<path d="M146.38 87.18L145.92 86.73L145.34 86.97L144.97 86.07L146.11 85.59L147.02 86.49L146.38 87.18Z" fill="white"/>
<path d="M143.41 86.73L141.85 87.39L142.22 88.29L143.78 87.63L143.41 86.73ZM140.28 88.04L138.72 88.7L139.09 89.6L140.66 88.95L140.28 88.04ZM137.15 89.36L135.57 90.01L135.95 90.92L137.52 90.26L137.15 89.36Z" fill="white"/>
<path d="M133.24 92.06L132.29 91.23L132.89 90.49L133.4 90.93L134.01 90.68L134.38 91.58L133.24 92.06Z" fill="white"/>
<path d="M119.01 78.37L118.39 79.1L119.79 80.31L120.4 79.58L119.01 78.37ZM121.78 80.8L121.17 81.53L122.57 82.74L123.18 82.01L121.78 80.8ZM124.56 83.22L123.95 83.95L125.34 85.16L125.95 84.43L124.56 83.22ZM127.34 85.65L126.73 86.38L128.12 87.59L128.73 86.86L127.34 85.65ZM130.12 88.07L129.52 88.8L130.91 90.01L131.52 89.28L130.12 88.07Z" fill="white"/>
<path d="M117.01 77.89L116.56 77.5L116.08 77.84L115.53 77.03L116.61 76.27L117.62 77.16L117.01 77.89Z" fill="white"/>
<path d="M113.93 78.15L112.33 79.27L112.88 80.07L114.48 78.95L113.93 78.15ZM110.73 80.4L109.13 81.52L109.68 82.32L111.28 81.2L110.73 80.4ZM107.52 82.65L105.91 83.78L106.46 84.58L108.07 83.45L107.52 82.65ZM104.3 84.91L102.68 86.04L103.23 86.85L104.85 85.71L104.3 84.91ZM101.06 87.18L99.4401 88.32L99.9901 89.12L101.61 87.98L101.06 87.18ZM97.8201 89.46L96.2001 90.61L96.7501 91.41L98.3801 90.27L97.8201 89.46ZM94.5601 91.75L92.9301 92.89L93.4901 93.7L95.1201 92.56L94.5601 91.75ZM91.3001 94.04L89.6601 95.19L90.2101 96L91.8501 94.85L91.3001 94.04ZM88.0201 96.34L86.3701 97.5L86.9201 98.31L88.5701 97.15L88.0201 96.34ZM84.7201 98.65L83.0701 99.81L83.6301 100.62L85.2801 99.46L84.7201 98.65ZM81.4201 100.98L79.7601 102.14L80.3201 102.95L81.9701 101.79L81.4201 100.98ZM78.1001 103.3L76.4401 104.47L77.0001 105.3L78.6601 104.13L78.1001 103.3ZM74.7601 105.64L73.1001 106.81L73.6501 107.62L75.3201 106.45L74.7601 105.64Z" fill="white"/>
<path d="M205.55 36.12L204.4 37.45L205.08 38.08L206.23 36.75L205.55 36.12ZM203.26 38.8L202.1 40.13L202.78 40.77L203.93 39.43L203.26 38.8ZM200.95 41.48L199.8 42.82L200.48 43.46L201.63 42.12L200.95 41.48ZM198.64 44.18L197.48 45.52L198.16 46.16L199.32 44.81L198.64 44.18ZM196.31 46.88L195.15 48.23L195.83 48.87L196.99 47.52L196.31 46.88ZM193.98 49.59L192.82 50.95L193.5 51.59L194.67 50.23L193.98 49.59ZM191.65 52.32L190.48 53.67L191.16 54.31L192.33 52.95L191.65 52.32ZM189.3 55.05L188.13 56.41L188.81 57.05L189.99 55.67L189.3 55.05ZM186.94 57.79L185.76 59.17L186.45 59.8L187.63 58.42L186.94 57.79ZM184.58 60.54L183.4 61.92L184.09 62.56L185.27 61.18L184.58 60.54ZM182.22 63.3L181.03 64.68L181.72 65.32L182.9 63.94L182.22 63.3ZM179.83 66.06L178.64 67.46L179.33 68.1L180.52 66.7L179.83 66.06ZM177.45 68.84L176.25 70.24L176.94 70.88L178.14 69.48L177.45 68.84ZM175.06 71.63L173.86 73.03L174.55 73.68L175.75 72.27L175.06 71.63ZM172.65 74.42L171.44 75.83L172.14 76.48L173.34 75.07L172.65 74.42ZM170.24 77.23L169.03 78.64L169.73 79.29L170.93 77.88L170.24 77.23ZM167.81 80.05L166.6 81.46L167.3 82.11L168.51 80.7L167.81 80.05ZM165.39 82.88L164.17 84.3L164.87 84.95L166.08 83.53L165.39 82.88ZM162.95 85.72L161.73 87.15L162.43 87.8L163.65 86.37L162.95 85.72ZM160.5 88.56L159.28 90L159.98 90.65L161.2 89.22L160.5 88.56ZM158.05 91.42L156.82 92.86L157.53 93.51L158.75 92.07L158.05 91.42Z" fill="white"/>
<path d="M155.36 96.03L154.32 95.01L154.95 94.31L155.29 94.64L155.58 94.29L156.29 94.94L155.36 96.03Z" fill="white"/>
<path d="M148.61 88.05L147.97 88.74L149.55 90.31L150.19 89.62L148.61 88.05ZM151.78 91.18L151.14 91.88L152.73 93.44L153.37 92.75L151.78 91.18Z" fill="white"/>
<path d="M210.1 7.42001L154.17 78.32L145.12 67.4L131.87 73.68L115.04 55.72L70.4199 92V96.36L114.87 60.22L131.45 77.91L144.62 71.66L154.2 83.22L212.25 9.64001C211.49 8.94001 210.75 8.21001 210.1 7.42001Z" fill="#0F3554"/>
<path d="M218.76 1L205.56 5.47L214.29 14.2L218.76 1Z" fill="#0F3554"/>
<g opacity="0.15">
<path d="M124.6 137.43C123.29 137.44 121.96 137.05 120.82 136.21C118.05 134.16 117.07 130.37 119.12 127.6L135.06 106.45C138.49 101.81 144.78 100.2 150.02 102.61L156.34 105.52C160.61 107.49 163.41 111.8 163.46 116.51L163.54 124.31C163.54 124.31 160.89 124.27 157.44 124.31C153.99 124.35 151.09 127.3 151.05 123.85L150.97 116.8L144.98 114.04L129.55 134.9C128.35 136.53 126.49 137.41 124.6 137.43Z" fill="#640917"/>
</g>
<path d="M157.9 123.27C157.9 123.6 157.88 123.91 157.83 124.22V124.25C157.83 124.27 157.83 124.29 157.82 124.3C157.83 124.31 157.83 124.31 157.82 124.32C157.8 124.45 157.78 124.58 157.75 124.72C157.72 124.85 157.69 124.98 157.65 125.11C157.43 125.89 157.04 126.62 156.54 127.25C155.41 128.66 153.68 129.57 151.73 129.59C148.73 129.62 146.2 127.53 145.57 124.72C145.56 124.68 145.55 124.64 145.55 124.61C145.53 124.52 145.51 124.42 145.5 124.32C145.45 124.02 145.42 123.72 145.42 123.41L145.4 121.66L145.35 116.35L143.8 115.64L140.44 114.09L139.35 113.59L139.05 114L138.56 114.66L134.91 119.58L131.41 124.32L131.12 124.72L129.18 127.33L128.42 128.37L127.78 129.24L126.37 131.14L125.91 131.76L123.9 134.47C123.21 135.42 122.29 136.1 121.27 136.52C120.54 136.83 119.74 136.99 118.95 137C118.22 137.01 117.49 136.9 116.79 136.63C116.22 136.44 115.68 136.15 115.17 135.77C114.98 135.63 114.78 135.46 114.61 135.3C114.06 134.81 113.6 134.24 113.26 133.63C113.17 133.48 113.09 133.32 113.02 133.16C112.88 132.88 112.77 132.59 112.67 132.3C112.13 130.59 112.32 128.71 113.47 127.16L114.34 126.01L115.32 124.72L115.62 124.32L120.19 118.26L122.67 114.97L124.66 112.33L127.28 108.86L129.13 106.41V106.4L129.43 106.01C129.91 105.37 130.44 104.78 131.02 104.26C131.57 103.76 132.16 103.31 132.78 102.94C135.81 101.05 139.57 100.54 143.05 101.66C143.51 101.8 143.96 101.98 144.39 102.18L150.71 105.09C154.99 107.06 157.79 111.37 157.84 116.08L157.9 123.27Z" fill="#FCD3B6"/>
<path opacity="0.13" d="M127.56 123.05L138.75 109.66L147.9 114.57L150.53 121.56L145.4 118.59L145.34 116.36L139.05 114L136.11 119.03L127.56 123.05Z" fill="#640917"/>
<path d="M155.21 173.12C154.75 174.09 154.41 174.61 154.41 174.61V185.79H121.45V175.94L111.92 132.88C111.92 132.88 122.11 125.1 123.68 125.27C130.36 126.02 143.92 137.41 151.34 147.28C153.42 150.05 155.02 152.7 155.85 154.96C158.93 163.36 156.58 170.21 155.21 173.12Z" fill="#FCD3B6"/>
<path d="M160.65 130.55C160.65 130.67 160.65 130.8 160.64 130.94C160.6 131.49 160.5 132.02 160.32 132.53C159.94 133.68 159.23 134.72 158.21 135.48C158.04 135.62 157.86 135.74 157.68 135.86C157.32 136.08 156.96 136.26 156.57 136.4C154.99 136.99 153.27 136.9 151.79 136.23C150.71 135.74 149.75 134.93 149.08 133.84L148.71 133.25L144.87 127.04C144.44 126.35 143.56 126.08 142.81 126.43L134.09 130.49L133.9 130.58L132.6 130.77L127.75 131.49L125.91 131.77L118.54 132.86L118.37 132.89L113.36 133.63L113.27 133.64L112.24 133.79C112.2 133.7 112.16 133.61 112.13 133.5C112.04 133.3 111.97 133.09 111.92 132.89C111.77 132.4 111.69 131.89 111.68 131.39C111.67 131.38 111.67 131.36 111.68 131.35C111.6 129.26 112.59 127.22 114.36 126.01C114.65 125.81 114.95 125.63 115.28 125.48L116.92 124.72L117.77 124.32L123.7 121.56L132.11 117.63L137.56 115.08C137.9 114.93 138.24 114.78 138.58 114.66V114.65C138.63 114.63 138.67 114.62 138.71 114.61C139.06 114.48 139.41 114.37 139.76 114.26C139.77 114.26 139.77 114.26 139.77 114.26C140 114.2 140.23 114.14 140.45 114.09C142.8 113.57 145.22 113.66 147.47 114.32C150.72 115.26 153.62 117.38 155.53 120.44L156.68 122.3L157.85 124.19V124.2L157.9 124.28L157.92 124.3L158.16 124.7L159.11 126.24L159.73 127.25C160.24 128.06 160.53 128.96 160.63 129.87C160.64 129.9 160.64 129.93 160.64 129.97C160.64 130.17 160.65 130.36 160.65 130.55Z" fill="#FCD3B6"/>
<path opacity="0.13" d="M123.43 130.37L143.86 122.16C148 120.5 152.72 121.19 156.21 123.96L160.04 127.01C160.04 127.01 162 132.36 158.9 135.67C155.81 138.99 123.43 130.37 123.43 130.37Z" fill="#640917"/>
<path opacity="0.13" d="M155.21 173.12L148.9 169.07C141.41 164.56 140.32 158.72 138.82 152.13L149.85 149.08C149.85 149.08 150.44 148.28 151.34 147.28C153.42 150.05 155.02 152.7 155.85 154.96C158.93 163.36 156.58 170.21 155.21 173.12Z" fill="#640917"/>
<path d="M116.95 138.51C116.04 135.18 118.56 131.68 121.89 130.77L144.98 124.75C148.38 123.82 152.04 124.34 155.05 126.18C158.05 128.01 160.19 131.04 160.92 134.48L162.15 140.28C162.86 143.65 160.71 146.97 157.33 147.68C156.89 147.77 156.46 147.82 156.03 147.82C153.14 147.82 150.55 145.81 149.93 142.87L148.7 137.06C148.69 137.02 148.67 136.91 148.54 136.83C148.41 136.75 148.31 136.78 148.27 136.79L127.8 142.37L116.95 138.51Z" fill="#FCD3B6"/>
<path opacity="0.13" d="M128.9 141.53L146.59 133.9C150.27 132.31 154.51 132.78 157.76 135.14L161.67 137.98C161.67 137.98 163.63 143.33 160.53 146.64C157.43 149.96 128.9 141.53 128.9 141.53Z" fill="#640917"/>
<path d="M139.05 152.12L141.97 151.24C140.98 153.05 140.9 155.3 141.96 157.24C143.18 159.48 145.58 160.67 147.98 160.47C148.82 160.4 149.65 160.16 150.44 159.73L154.77 157.37C158.64 155.25 160.91 151.04 160.53 146.64C160.24 143.28 158.48 140.27 155.69 138.38C152.9 136.49 149.45 135.95 146.22 136.92L129.8 141.22C126.19 142.17 124.11 145.95 125.24 149.5L139.05 152.12Z" fill="#FCD3B6"/>
<path opacity="0.13" d="M111.66 131.34L125.24 149.51L130.22 177.15V185.79H121.44V176.34L111.66 131.34Z" fill="#640917"/>
<path opacity="0.13" d="M141.41 155.85L148.48 153.76C150.51 153.16 151.23 150.67 149.84 149.08L141.4 151.41V155.85H141.41Z" fill="#640917"/>
<path d="M158.05 184.12H118.42V194.93H158.05V184.12Z" fill="white"/>
<path d="M161.29 191.41H115.32V220H161.29V191.41Z" fill="#D8C497"/>
<path d="M155.64 200.33C156.59 200.33 157.36 199.56 157.36 198.61C157.36 197.66 156.59 196.89 155.64 196.89C154.69 196.89 153.92 197.66 153.92 198.61C153.92 199.56 154.69 200.33 155.64 200.33Z" fill="#640917"/>
<path opacity="0.13" d="M127.55 191.41H115.32V220H127.55V191.41Z" fill="#640917"/>
<path opacity="0.13" d="M130.22 184.12H118.42V191.41H130.22V184.12Z" fill="#640917"/>
<path d="M154.38 176.34V171.66C154.38 171.66 155.38 163.77 150.54 160.49C144.57 156.44 141.95 151.23 141.95 151.23C141.95 151.23 136.98 151.16 136.7 151.23C136.42 151.3 135.89 154.62 136.33 157.55C136.77 160.48 139.1 166.89 140 167.74C140.9 168.59 144.89 172.58 146.45 173.29C148.01 174.02 154.38 176.34 154.38 176.34Z" fill="#FCD3B6"/>
<path d="M141.97 151.24C141.97 151.24 144.7 153.51 149.85 158.57C159.28 167.83 154.4 179.45 154.4 179.45V184.13L141.97 151.24Z" fill="#FCD3B6"/>
<path d="M198.99 30.1H207.59" stroke="white" stroke-width="3" stroke-miterlimit="10" stroke-linecap="round"/>
<path d="M76.6899 32.36C77.9326 32.36 78.9399 31.3526 78.9399 30.11C78.9399 28.8673 77.9326 27.86 76.6899 27.86C75.4473 27.86 74.4399 28.8673 74.4399 30.11C74.4399 31.3526 75.4473 32.36 76.6899 32.36Z" fill="#FF5C5C"/>
<path d="M84.0103 32.36C85.2529 32.36 86.2603 31.3526 86.2603 30.11C86.2603 28.8673 85.2529 27.86 84.0103 27.86C82.7676 27.86 81.7603 28.8673 81.7603 30.11C81.7603 31.3526 82.7676 32.36 84.0103 32.36Z" fill="#FFD671"/>
<path d="M91.3398 32.36C92.5825 32.36 93.5898 31.3526 93.5898 30.11C93.5898 28.8673 92.5825 27.86 91.3398 27.86C90.0972 27.86 89.0898 28.8673 89.0898 30.11C89.0898 31.3526 90.0972 32.36 91.3398 32.36Z" fill="#79E017"/>
<path d="M252.12 57.04C241.99 57.04 233.78 48.83 233.78 38.7C233.78 28.57 241.99 20.36 252.12 20.36C262.25 20.36 270.46 28.57 270.46 38.7C270.46 48.83 262.25 57.04 252.12 57.04Z" fill="#C4302B"/>
<path d="M262.76 36.76C262.76 36.31 262.68 35.78 262.68 35.17C262.6 34.56 262.53 33.96 262.45 33.43C262.3 32.82 262.07 32.37 261.62 31.99C261.24 31.61 260.71 31.38 260.18 31.31C258.44 31.08 255.86 31.01 252.38 31.01C248.9 31.01 246.24 31.09 244.58 31.31C244.05 31.39 243.52 31.61 243.14 31.99C242.76 32.37 242.46 32.82 242.31 33.43C242.16 33.96 242.08 34.49 242.08 35.17C242 35.77 242 36.3 242 36.76C242 37.21 242 37.74 242 38.5C242 39.26 242 39.86 242 40.24C242 40.69 242.08 41.22 242.08 41.83C242.16 42.44 242.23 43.04 242.31 43.57C242.46 44.18 242.69 44.63 243.14 45.01C243.52 45.39 244.05 45.62 244.58 45.69C246.32 45.92 248.9 45.99 252.38 45.99C255.86 45.99 258.52 45.91 260.18 45.69C260.71 45.61 261.24 45.39 261.62 45.01C262 44.63 262.3 44.18 262.45 43.57C262.6 43.04 262.68 42.51 262.68 41.83C262.76 41.22 262.76 40.69 262.76 40.24C262.76 39.79 262.76 39.26 262.76 38.5C262.76 37.74 262.76 37.14 262.76 36.76ZM256.4 39.11L250.42 42.82C250.34 42.9 250.19 42.97 250.04 42.97C249.89 42.97 249.81 42.97 249.66 42.89C249.43 42.74 249.28 42.51 249.28 42.21V34.71C249.28 34.41 249.43 34.18 249.66 34.03C249.89 33.88 250.19 33.88 250.42 34.03L256.4 37.74C256.63 37.89 256.78 38.12 256.78 38.35C256.78 38.58 256.63 38.95 256.4 39.11Z" fill="white"/>
<path d="M211.64 38.7824L211.633 39.3024L235.96 39.6454L235.968 39.1255L211.64 38.7824Z" fill="#C4302B"/>
<path d="M212.65 37.69C213.4 38.25 213.55 39.32 212.99 40.07C212.43 40.82 211.36 40.97 210.61 40.41C209.86 39.85 209.71 38.78 210.27 38.03C210.84 37.27 211.9 37.12 212.65 37.69Z" fill="#FF735D"/>
<path d="M216.42 173C206.29 173 198.08 164.79 198.08 154.66C198.08 144.53 206.29 136.32 216.42 136.32C226.55 136.32 234.76 144.53 234.76 154.66C234.76 164.79 226.55 173 216.42 173Z" fill="#37BBFE"/>
<path d="M223.98 148.95C224.12 148.04 223.26 147.33 222.45 147.68L206.4 154.73C205.82 154.98 205.86 155.86 206.46 156.05L209.77 157.1C210.4 157.3 211.09 157.2 211.64 156.82L219.1 151.67C219.32 151.51 219.57 151.83 219.38 152.03L214.01 157.57C213.49 158.11 213.59 159.02 214.22 159.41L220.23 163.18C220.9 163.6 221.77 163.18 221.9 162.36L223.98 148.95Z" fill="white"/>
<path d="M210.058 122.911L209.56 123.058L214.401 139.489L214.899 139.342L210.058 122.911Z" fill="#37BBFE"/>
<path d="M211.52 122.62C211.52 123.56 210.76 124.32 209.82 124.32C208.88 124.32 208.12 123.56 208.12 122.62C208.12 121.68 208.88 120.92 209.82 120.92C210.76 120.92 211.52 121.68 211.52 122.62Z" fill="#37BBFE"/>
<path d="M42.2099 136.19C31.8399 136.19 23.4199 127.78 23.4199 117.4C23.4199 107.03 31.8299 98.61 42.2099 98.61C52.5899 98.61 60.9999 107.02 60.9999 117.4C60.9899 127.77 52.5799 136.19 42.2099 136.19Z" fill="#597DA3"/>
<path d="M48.6701 119.54C48.4501 119.23 48.3901 118.93 48.5201 118.61C48.8301 117.78 53.2901 112.47 51.4301 112.47C50.1501 112.49 48.6101 112.47 47.3901 112.47C47.1601 112.53 47.0201 112.64 46.9201 112.89C46.2001 114.54 45.3301 116.56 44.0401 117.86C43.8701 118 43.7701 117.99 43.5701 117.94C42.6701 116.99 43.6301 113.74 43.0801 112.45C42.9701 112.2 42.7401 112.08 42.4901 112.02C41.2701 111.73 38.4701 111.9 38.0101 112.49C37.8801 112.66 37.8601 112.75 37.9601 112.76C38.3901 112.83 38.7001 112.99 38.8801 113.25C39.2201 114 39.4701 118.01 38.4701 118.01C37.4601 118.01 35.8401 114.08 35.4001 112.99C35.2801 112.66 34.9801 112.47 34.6601 112.42L31.6801 112.44C31.1601 112.44 30.8601 112.7 31.0501 113.22C32.6001 117.07 35.9901 124.53 41.2001 124.34C41.7201 124.34 42.6201 124.54 43.0301 124.09C43.5901 123.35 42.9101 122.03 43.8701 121.52C44.1101 121.39 44.3601 121.5 44.5701 121.66C45.6401 122.47 46.2001 123.9 47.5201 124.33C47.7501 124.41 47.9501 124.43 48.1301 124.39L50.9101 124.34C51.4301 124.34 51.9301 124.11 51.8301 123.49C51.4201 122.17 49.8001 120.81 48.6701 119.54Z" fill="white"/>
<path d="M73.0313 95.8274L55.6147 109.284L55.9327 109.696L73.3492 96.2389L73.0313 95.8274Z" fill="#597DA3"/>
<path d="M74.5801 97.17C73.7201 97.54 72.7201 97.14 72.3401 96.28C71.9701 95.42 72.3701 94.42 73.2301 94.04C74.0901 93.66 75.0901 94.07 75.4701 94.93C75.8401 95.79 75.4401 96.79 74.5801 97.17Z" fill="#597DA3"/>
<path d="M53.2399 45.35C43.1099 45.35 34.8999 37.14 34.8999 27.01C34.8999 16.88 43.1099 8.67001 53.2399 8.67001C63.3699 8.67001 71.5799 16.88 71.5799 27.01C71.5799 37.14 63.3699 45.35 53.2399 45.35Z" fill="#43D854"/>
<path fill-rule="evenodd" clip-rule="evenodd" d="M63.2197 26.27C63.0897 20.97 58.7197 16.72 53.3497 16.72C48.0397 16.72 43.7097 20.88 43.4797 26.09C43.4797 26.23 43.4697 26.38 43.4697 26.52C43.4697 28.37 43.9897 30.1 44.8797 31.58L43.7697 34.85C43.4897 35.68 44.2697 36.47 45.0997 36.2L48.5697 35.1C49.9797 35.88 51.6097 36.32 53.3397 36.32C58.7997 36.32 63.2197 31.93 63.2197 26.52C63.2197 26.43 63.2197 26.35 63.2197 26.27ZM53.3497 34.76C51.6597 34.76 50.0997 34.26 48.7797 33.4L45.5897 34.42L46.6297 31.36C45.6397 30 45.0497 28.33 45.0497 26.53C45.0497 26.26 45.0597 25.99 45.0897 25.73C45.4997 21.56 49.0497 18.29 53.3497 18.29C57.7097 18.29 61.2897 21.64 61.6297 25.89C61.6497 26.1 61.6597 26.32 61.6597 26.53C61.6497 31.06 57.9197 34.76 53.3497 34.76Z" fill="white"/>
<path fill-rule="evenodd" clip-rule="evenodd" d="M57.8695 28.5C57.6295 28.38 56.4395 27.8 56.2095 27.72C55.9895 27.64 55.8295 27.6 55.6595 27.84C55.4995 28.08 55.0295 28.62 54.8895 28.78C54.7495 28.94 54.6095 28.96 54.3595 28.84C54.1195 28.72 53.3395 28.47 52.4095 27.65C51.6895 27.02 51.1995 26.23 51.0595 25.99C50.9195 25.75 51.0495 25.62 51.1695 25.5C51.2795 25.39 51.4095 25.22 51.5395 25.08C51.5695 25.04 51.5995 25 51.6295 24.96C51.6895 24.87 51.7295 24.79 51.7795 24.67C51.8595 24.51 51.8195 24.37 51.7595 24.25C51.6995 24.13 51.2095 22.95 51.0095 22.47C50.8095 21.99 50.6095 22.07 50.4595 22.07C50.3195 22.07 50.1595 22.05 49.9995 22.05C49.8395 22.05 49.5695 22.11 49.3495 22.35C49.1295 22.59 48.4995 23.17 48.4995 24.36C48.4995 24.64 48.5495 24.91 48.6195 25.18C48.8695 26.03 49.3895 26.72 49.4795 26.84C49.5995 27 51.1495 29.5 53.6095 30.47C56.0695 31.43 56.0695 31.11 56.5195 31.07C56.9595 31.03 57.9495 30.49 58.1495 29.93C58.3495 29.37 58.3495 28.89 58.2895 28.79C58.2795 28.68 58.1095 28.62 57.8695 28.5Z" fill="white"/>
<path d="M61.2832 36.4749L60.8901 36.8153L72.1034 49.7639L72.4965 49.4235L61.2832 36.4749Z" fill="#43D854"/>
<path d="M70.9098 50.63C70.5198 49.77 70.8998 48.77 71.7498 48.38C72.6098 47.99 73.6098 48.37 73.9998 49.22C74.3898 50.07 74.0098 51.08 73.1598 51.47C72.3098 51.86 71.2998 51.48 70.9098 50.63Z" fill="#43D854"/>
<path d="M87.8401 145.65C87.6601 145.45 87.5801 145.18 87.5801 144.85C87.5801 144.52 87.6701 144.25 87.8401 144.05C88.0201 143.85 88.2501 143.74 88.5401 143.74C88.8301 143.74 89.0601 143.84 89.2401 144.04C89.4201 144.24 89.5101 144.51 89.5101 144.84C89.5101 145.17 89.4201 145.44 89.2401 145.64C89.0601 145.84 88.8301 145.94 88.5401 145.94C88.2401 145.95 88.0101 145.85 87.8401 145.65ZM88.9001 145.37C88.9901 145.25 89.0301 145.07 89.0301 144.85C89.0301 144.63 88.9901 144.45 88.9001 144.33C88.8101 144.21 88.6901 144.15 88.5301 144.15C88.3801 144.15 88.2601 144.21 88.1701 144.34C88.0801 144.47 88.0301 144.64 88.0301 144.86C88.0301 145.08 88.0801 145.25 88.1701 145.38C88.2601 145.5 88.3801 145.57 88.5301 145.57C88.6901 145.55 88.8101 145.49 88.9001 145.37ZM90.9501 143.78H91.5101L88.7601 147.81H88.2001L90.9501 143.78ZM90.4801 147.55C90.3001 147.35 90.2201 147.08 90.2201 146.75C90.2201 146.42 90.3101 146.15 90.4801 145.95C90.6601 145.75 90.8901 145.64 91.1801 145.64C91.4701 145.64 91.7001 145.74 91.8801 145.95C92.0601 146.15 92.1501 146.42 92.1501 146.75C92.1501 147.08 92.0601 147.35 91.8801 147.55C91.7001 147.75 91.4701 147.85 91.1801 147.85C90.8901 147.85 90.6501 147.75 90.4801 147.55ZM91.5401 147.26C91.6301 147.14 91.6701 146.96 91.6701 146.74C91.6701 146.52 91.6301 146.35 91.5401 146.22C91.4501 146.1 91.3301 146.03 91.1801 146.03C91.0301 146.03 90.9101 146.09 90.8201 146.21C90.7301 146.33 90.6901 146.51 90.6901 146.73C90.6901 146.95 90.7301 147.13 90.8201 147.25C90.9101 147.37 91.0301 147.43 91.1801 147.43C91.3301 147.45 91.4501 147.39 91.5401 147.26Z" fill="#FCBE4F"/>
<path d="M49.18 144.68H63.56C64.15 144.68 64.45 143.97 64.04 143.54L56.85 136.2C56.59 135.93 56.16 135.93 55.89 136.2L48.7 143.54C48.29 143.97 48.59 144.68 49.18 144.68Z" fill="#D8D8D8"/>
<path d="M61.18 143.31H51.96V157.93H61.18V143.31Z" fill="#D8D8D8"/>
<path d="M73.6798 144.31V156.77H69.4799V147.47H67.3398V144.3H73.6798V144.31Z" fill="#FCBE4F"/>
<path d="M77.92 156.29C77.07 155.77 76.41 155.03 75.93 154.05C75.45 153.07 75.21 151.9 75.21 150.55C75.21 149.2 75.45 148.03 75.93 147.05C76.41 146.07 77.08 145.32 77.92 144.81C78.77 144.29 79.75 144.04 80.85 144.04C81.95 144.04 82.93 144.3 83.78 144.81C84.63 145.33 85.29 146.07 85.77 147.05C86.25 148.03 86.49 149.2 86.49 150.55C86.49 151.9 86.25 153.07 85.77 154.05C85.29 155.03 84.62 155.78 83.78 156.29C82.93 156.81 81.95 157.06 80.85 157.06C79.75 157.06 78.77 156.8 77.92 156.29ZM82.28 150.54C82.28 148.44 81.81 147.39 80.86 147.39C79.91 147.39 79.44 148.44 79.44 150.54C79.44 152.64 79.91 153.69 80.86 153.69C81.8 153.69 82.28 152.64 82.28 150.54Z" fill="#FCBE4F"/>
<path d="M203.25 182.4C203.07 182.19 202.98 181.92 202.98 181.58C202.98 181.24 203.07 180.97 203.25 180.76C203.43 180.55 203.67 180.45 203.96 180.45C204.26 180.45 204.49 180.55 204.68 180.76C204.86 180.97 204.95 181.24 204.95 181.58C204.95 181.92 204.86 182.2 204.68 182.4C204.5 182.61 204.26 182.71 203.96 182.71C203.67 182.71 203.43 182.61 203.25 182.4ZM204.34 182.11C204.43 181.98 204.47 181.81 204.47 181.58C204.47 181.35 204.42 181.18 204.34 181.05C204.25 180.92 204.13 180.86 203.97 180.86C203.82 180.86 203.69 180.92 203.6 181.05C203.51 181.18 203.46 181.35 203.46 181.58C203.46 181.8 203.51 181.98 203.6 182.11C203.69 182.24 203.82 182.3 203.97 182.3C204.13 182.3 204.25 182.24 204.34 182.11ZM206.44 180.49H207.02L204.2 184.62H203.62L206.44 180.49ZM205.96 184.35C205.78 184.14 205.69 183.87 205.69 183.53C205.69 183.19 205.78 182.92 205.96 182.71C206.14 182.5 206.38 182.4 206.67 182.4C206.97 182.4 207.2 182.5 207.39 182.71C207.57 182.92 207.67 183.19 207.67 183.53C207.67 183.87 207.58 184.14 207.39 184.35C207.21 184.56 206.97 184.66 206.67 184.66C206.38 184.66 206.14 184.56 205.96 184.35ZM207.05 184.06C207.14 183.93 207.19 183.76 207.19 183.53C207.19 183.31 207.14 183.13 207.05 183C206.96 182.87 206.84 182.81 206.68 182.81C206.52 182.81 206.4 182.87 206.31 183C206.22 183.13 206.17 183.3 206.17 183.53C206.17 183.76 206.22 183.94 206.31 184.06C206.4 184.19 206.52 184.25 206.68 184.25C206.84 184.25 206.96 184.18 207.05 184.06Z" fill="#FCBE4F"/>
<path d="M179.21 161.73H195.32C195.98 161.73 196.32 160.93 195.86 160.46L187.81 152.23C187.52 151.93 187.03 151.93 186.74 152.23L178.69 160.46C178.21 160.93 178.55 161.73 179.21 161.73Z" fill="#D8D8D8"/>
<path d="M192.66 160.19H182.33V176.57H192.66V160.19Z" fill="#D8D8D8"/>
<path d="M189.21 190.3V193.64H178.97V191L183.59 186.73C183.99 186.35 184.26 186.03 184.39 185.76C184.52 185.49 184.59 185.23 184.59 184.98C184.59 184.66 184.48 184.42 184.27 184.24C184.06 184.06 183.75 183.98 183.35 183.98C182.96 183.98 182.6 184.08 182.25 184.29C181.91 184.5 181.65 184.79 181.47 185.17L178.22 183.55C178.71 182.64 179.42 181.92 180.36 181.39C181.3 180.86 182.43 180.6 183.75 180.6C184.76 180.6 185.65 180.76 186.43 181.09C187.21 181.42 187.82 181.89 188.26 182.5C188.7 183.11 188.92 183.81 188.92 184.6C188.92 185.31 188.77 185.97 188.47 186.58C188.17 187.19 187.59 187.89 186.73 188.67L184.9 190.33H189.21V190.3Z" fill="#FCBE4F"/>
<path d="M192.87 193.14C192 192.61 191.32 191.84 190.83 190.84C190.34 189.84 190.09 188.64 190.09 187.25C190.09 185.86 190.34 184.67 190.83 183.66C191.32 182.66 192 181.89 192.87 181.36C193.74 180.83 194.74 180.57 195.87 180.57C197 180.57 198 180.83 198.87 181.36C199.74 181.89 200.42 182.66 200.91 183.66C201.4 184.66 201.65 185.86 201.65 187.25C201.65 188.64 201.4 189.83 200.91 190.84C200.42 191.84 199.74 192.61 198.87 193.14C198 193.67 197 193.93 195.87 193.93C194.74 193.94 193.74 193.67 192.87 193.14ZM197.33 187.26C197.33 185.11 196.84 184.03 195.87 184.03C194.9 184.03 194.41 185.11 194.41 187.26C194.41 189.41 194.9 190.49 195.87 190.49C196.84 190.49 197.33 189.41 197.33 187.26Z" fill="#FCBE4F"/>
<path d="M91.7201 42.62H84.5201V51.42H82.1201V53.02H84.5201V55.42H82.1201V57.02H84.5201V61.82H86.1201V57.02H93.3201V55.42H86.1201V53.02H91.7201C94.3701 53.02 96.5201 50.87 96.5201 48.22V47.42C96.5101 44.77 94.3701 42.63 91.7201 42.62ZM94.9201 48.22C94.9201 49.99 93.4901 51.42 91.7201 51.42H86.1201V44.22H91.7201C93.4901 44.22 94.9201 45.65 94.9201 47.42V48.22Z" fill="#FCBE4F"/>
</svg>
