<svg width="281" height="220" viewBox="0 0 281 220" fill="none" xmlns="http://www.w3.org/2000/svg">
<path d="M102.8 21.75C100.49 17.01 102.48 11.29 107.23 8.98002C111.98 6.67002 117.71 8.64003 120.01 13.38C122.32 18.12 120.33 23.84 115.58 26.15C110.83 28.46 105.11 26.49 102.8 21.75Z" fill="#F5F5F5"/>
<path d="M104.85 20.75C103.09 17.14 104.6 12.78 108.23 11.02C111.85 9.26001 116.21 10.76 117.97 14.37C119.73 17.98 118.22 22.34 114.6 24.11C110.97 25.87 106.61 24.37 104.85 20.75Z" fill="#ECECEC"/>
<path d="M104.95 20.96C104.99 20.94 105.16 21.21 105.51 21.66C105.86 22.11 106.41 22.73 107.24 23.3C107.66 23.58 108.14 23.85 108.69 24.07C109.24 24.28 109.85 24.45 110.51 24.52C110.84 24.56 111.18 24.58 111.52 24.57C111.87 24.56 112.22 24.53 112.57 24.47C112.92 24.41 113.28 24.32 113.63 24.2C113.98 24.08 114.33 23.93 114.66 23.76C115 23.58 115.31 23.38 115.61 23.16C115.91 22.94 116.18 22.69 116.43 22.44C116.68 22.19 116.91 21.91 117.11 21.63C117.32 21.35 117.49 21.06 117.65 20.77C117.96 20.19 118.17 19.59 118.3 19.01C118.43 18.43 118.48 17.88 118.49 17.38C118.49 16.37 118.29 15.56 118.12 15.02C117.95 14.48 117.82 14.18 117.86 14.16C117.89 14.14 118.09 14.4 118.33 14.94C118.57 15.47 118.84 16.3 118.89 17.37C118.91 17.9 118.88 18.49 118.76 19.1C118.64 19.71 118.43 20.36 118.11 20.99C117.95 21.31 117.77 21.62 117.55 21.92C117.34 22.22 117.1 22.52 116.83 22.8C116.56 23.08 116.27 23.34 115.95 23.58C115.63 23.82 115.29 24.04 114.92 24.23C114.56 24.42 114.18 24.58 113.8 24.71C113.42 24.84 113.04 24.93 112.66 24.99C112.28 25.06 111.9 25.08 111.53 25.09C111.16 25.1 110.79 25.07 110.44 25.02C109.74 24.93 109.09 24.73 108.51 24.48C107.93 24.23 107.43 23.92 107.01 23.6C106.16 22.96 105.63 22.26 105.33 21.76C105.03 21.28 104.92 20.97 104.95 20.96Z" fill="#E1E1E1"/>
<path d="M110.56 12.15L107.22 14.01L109.5 18.09L108.39 18.71L108.8 19.45L109.91 18.83L110.53 19.94L109.42 20.56L109.83 21.3L110.94 20.68L112.18 22.91L112.92 22.5L111.68 20.27L115.02 18.41L114.61 17.67L111.27 19.53L110.65 18.42L113.25 16.97C114.48 16.28 114.92 14.73 114.23 13.5L114.02 13.13C113.34 11.9 111.79 11.46 110.56 12.15ZM113.49 13.92C113.95 14.74 113.65 15.78 112.83 16.23L110.23 17.68L108.37 14.34L110.97 12.89C111.79 12.43 112.83 12.73 113.28 13.55L113.49 13.92Z" fill="#E1E1E1"/>
<path d="M196.05 175.63C200.42 172.68 206.36 173.83 209.32 178.21C212.28 182.59 211.14 188.53 206.77 191.49C202.4 194.44 196.46 193.29 193.5 188.91C190.54 184.53 191.68 178.58 196.05 175.63Z" fill="#F5F5F5"/>
<path d="M197.32 177.52C200.65 175.27 205.18 176.15 207.43 179.49C209.69 182.83 208.82 187.36 205.49 189.61C202.16 191.86 197.63 190.98 195.38 187.64C193.12 184.3 193.99 179.77 197.32 177.52Z" fill="#ECECEC"/>
<path d="M197.14 177.65C197.17 177.69 196.92 177.89 196.52 178.3C196.13 178.71 195.59 179.34 195.14 180.25C194.92 180.7 194.72 181.22 194.58 181.79C194.45 182.36 194.37 182.99 194.39 183.65C194.4 183.98 194.43 184.32 194.49 184.66C194.55 185 194.63 185.35 194.74 185.69C194.85 186.03 194.99 186.37 195.16 186.7C195.33 187.03 195.52 187.35 195.75 187.66C195.98 187.97 196.22 188.25 196.48 188.52C196.74 188.78 197.02 189.02 197.31 189.23C197.6 189.45 197.9 189.63 198.2 189.79C198.5 189.95 198.82 190.09 199.13 190.2C199.75 190.43 200.37 190.55 200.96 190.6C201.55 190.65 202.1 190.62 202.6 190.55C203.6 190.41 204.37 190.09 204.88 189.85C205.39 189.6 205.67 189.43 205.69 189.47C205.71 189.5 205.48 189.73 204.98 190.04C204.48 190.35 203.7 190.74 202.66 190.94C202.14 191.04 201.55 191.09 200.92 191.06C200.29 191.02 199.62 190.91 198.95 190.68C198.61 190.57 198.28 190.43 197.95 190.26C197.62 190.09 197.29 189.9 196.98 189.67C196.67 189.44 196.36 189.19 196.08 188.91C195.8 188.63 195.53 188.32 195.29 187.99C195.05 187.66 194.84 187.31 194.66 186.95C194.48 186.59 194.34 186.22 194.22 185.86C194.1 185.49 194.02 185.12 193.96 184.75C193.9 184.38 193.88 184.02 193.87 183.66C193.86 182.95 193.97 182.28 194.13 181.67C194.3 181.06 194.53 180.52 194.79 180.06C195.31 179.13 195.92 178.51 196.37 178.14C196.83 177.77 197.12 177.62 197.14 177.65Z" fill="#E1E1E1"/>
<path d="M206.65 181.95L204.33 178.9L200.61 181.73L199.84 180.71L199.16 181.22L199.93 182.23L198.91 183L198.14 181.99L197.46 182.5L198.23 183.52L196.2 185.06L196.71 185.74L198.74 184.2L201.06 187.25L201.74 186.74L199.42 183.69L200.44 182.92L202.24 185.29C203.09 186.41 204.69 186.63 205.81 185.78L206.15 185.52C207.28 184.67 207.5 183.08 206.65 181.95ZM205.31 185.11C204.56 185.68 203.5 185.53 202.93 184.79L201.13 182.42L204.18 180.1L205.98 182.47C206.55 183.22 206.4 184.28 205.66 184.85L205.31 185.11Z" fill="#E1E1E1"/>
<path d="M243.86 43.9699H239.96V31.5599H243.86V43.9699ZM240.34 43.5999H243.49V31.9399H240.34V43.5999Z" fill="#FCBE4F"/>
<path d="M237.86 43.97H233.96V27.21H237.86V43.97ZM234.34 43.6H237.49V27.58H234.34V43.6Z" fill="#FCBE4F"/>
<path d="M231.86 43.97H227.96V22.65H231.86V43.97ZM228.34 43.6H231.49V23.03H228.34V43.6Z" fill="#FCBE4F"/>
<path d="M249.87 43.97H245.97V27.11H249.87V43.97ZM246.34 43.6H249.49V27.48H246.34V43.6Z" fill="#FCBE4F"/>
<path d="M255.87 43.97H251.97V23.49H255.87V43.97ZM252.35 43.6H255.5V23.86H252.35V43.6Z" fill="#FCBE4F"/>
<path d="M242.68 24.16C242.66 24.16 242.65 24.16 242.63 24.15L229.15 20.3C229.05 20.27 228.99 20.17 229.02 20.07C229.05 19.97 229.15 19.91 229.25 19.94L242.66 23.77L255.97 16.56C256.06 16.51 256.18 16.54 256.22 16.64C256.27 16.73 256.24 16.84 256.14 16.89L242.76 24.14C242.74 24.16 242.71 24.16 242.68 24.16Z" fill="#FCBE4F"/>
<path d="M255.53 19.53C255.51 19.53 255.48 19.53 255.46 19.52C255.36 19.48 255.32 19.37 255.36 19.27L256.56 16.37H253.34C253.24 16.37 253.15 16.29 253.15 16.18C253.15 16.08 253.23 15.99 253.34 15.99H256.84C256.9 15.99 256.96 16.02 257 16.07C257.03 16.12 257.04 16.19 257.02 16.25L255.71 19.41C255.67 19.49 255.6 19.53 255.53 19.53Z" fill="#FCBE4F"/>
<path d="M178.08 28.06C171.17 28.06 165.55 22.44 165.55 15.53C165.55 8.62 171.17 3 178.08 3C184.99 3 190.61 8.62 190.61 15.53C190.61 22.44 184.99 28.06 178.08 28.06ZM178.08 4C171.72 4 166.55 9.17 166.55 15.53C166.55 21.89 171.72 27.06 178.08 27.06C184.44 27.06 189.61 21.89 189.61 15.53C189.61 9.17 184.44 4 178.08 4Z" fill="#D8C497"/>
<path d="M178.08 10.14C174.98 10.14 172.01 8.99995 169.71 6.93995L170.38 6.19995C172.5 8.09995 175.23 9.14995 178.08 9.14995C180.92 9.14995 183.65 8.10995 185.76 6.21995L186.42 6.95995C184.13 9.00995 181.16 10.14 178.08 10.14Z" fill="#D8C497"/>
<path d="M170.55 25.04L169.9 24.29C172.17 22.33 175.08 21.25 178.08 21.25C181.07 21.25 183.96 22.32 186.23 24.26L185.58 25.02C183.49 23.23 180.83 22.25 178.08 22.25C175.31 22.24 172.64 23.24 170.55 25.04Z" fill="#D8C497"/>
<path d="M178.08 28.06C174.45 28.06 171.61 22.56 171.61 15.53C171.61 8.5 174.45 3 178.08 3C181.71 3 184.55 8.5 184.55 15.53C184.55 22.56 181.71 28.06 178.08 28.06ZM178.08 4C175.11 4 172.61 9.28 172.61 15.53C172.61 21.78 175.12 27.06 178.08 27.06C181.04 27.06 183.55 21.78 183.55 15.53C183.55 9.28 181.05 4 178.08 4Z" fill="#D8C497"/>
<path d="M178.58 3.5H177.58V27.56H178.58V3.5Z" fill="#D8C497"/>
<path d="M190.11 15.03H166.05V16.03H190.11V15.03Z" fill="#D8C497"/>
<path d="M42.6699 141.77H15.8599C15.7599 141.77 15.6699 141.69 15.6699 141.58V121.18C15.6699 121.08 15.7499 120.99 15.8599 120.99H42.6699C42.7699 120.99 42.8599 121.07 42.8599 121.18V141.58C42.8499 141.69 42.7699 141.77 42.6699 141.77ZM16.0399 141.4H42.4799V121.38H16.0399V141.4Z" fill="#D8D8D8"/>
<path d="M43.5001 144.1H15.0201C14.9201 144.1 14.8301 144.02 14.8301 143.91V141.58C14.8301 141.48 14.9101 141.39 15.0201 141.39H43.5001C43.6001 141.39 43.6901 141.47 43.6901 141.58V143.91C43.6901 144.02 43.6101 144.1 43.5001 144.1ZM15.2101 143.73H43.3201V141.77H15.2101V143.73Z" fill="#D8D8D8"/>
<path d="M29.2602 148.14C28.5102 148.14 27.9102 147.53 27.9102 146.79C27.9102 146.04 28.5202 145.44 29.2602 145.44C30.0002 145.44 30.6102 146.05 30.6102 146.79C30.6102 147.54 30.0102 148.14 29.2602 148.14ZM29.2602 145.81C28.7202 145.81 28.2802 146.25 28.2802 146.79C28.2802 147.33 28.7202 147.77 29.2602 147.77C29.8002 147.77 30.2402 147.33 30.2402 146.79C30.2402 146.25 29.8002 145.81 29.2602 145.81Z" fill="#D8D8D8"/>
<path d="M29.2603 145.76C29.1603 145.76 29.0703 145.68 29.0703 145.57L29.0803 143.98C29.0803 143.88 29.1603 143.78 29.2703 143.79C29.3703 143.79 29.4603 143.87 29.4603 143.98L29.4503 145.57C29.4503 145.67 29.3603 145.76 29.2603 145.76Z" fill="#D8D8D8"/>
<path d="M22.7499 139.83H18.8199C18.7199 139.83 18.6299 139.75 18.6299 139.64V129.99C18.6299 129.89 18.7099 129.8 18.8199 129.8H22.7499C22.8499 129.8 22.9399 129.88 22.9399 129.99V139.64C22.9399 139.74 22.8499 139.83 22.7499 139.83ZM19.0099 139.45H22.5699V130.17H19.0099V139.45Z" fill="#D8D8D8"/>
<path d="M30.5101 139.83H26.5801C26.4801 139.83 26.3901 139.75 26.3901 139.64V126.12C26.3901 126.02 26.4701 125.93 26.5801 125.93H30.5101C30.6101 125.93 30.7001 126.01 30.7001 126.12V139.64C30.7001 139.74 30.6201 139.83 30.5101 139.83ZM26.7701 139.45H30.3301V126.3H26.7701V139.45Z" fill="#D8D8D8"/>
<path d="M38.7299 139.83H34.7999C34.6999 139.83 34.6099 139.75 34.6099 139.64V123.32C34.6099 123.22 34.6899 123.13 34.7999 123.13H38.7299C38.8299 123.13 38.9199 123.21 38.9199 123.32V139.64C38.9199 139.74 38.8299 139.83 38.7299 139.83ZM34.9899 139.45H38.5499V123.5H34.9899V139.45Z" fill="#D8D8D8"/>
<path d="M247.02 186.58C239.07 186.58 232.61 180.12 232.61 172.17C232.61 164.24 239.06 157.78 246.99 157.76C247.06 157.76 247.17 157.8 247.23 157.86C247.29 157.92 247.33 158.01 247.33 158.1L247.16 172.02H261.07C261.16 172.02 261.25 172.06 261.31 172.12C261.37 172.18 261.41 172.27 261.41 172.36C261.31 180.21 254.85 186.58 247.02 186.58ZM246.64 158.45C239.25 158.65 233.29 164.73 233.29 172.17C233.29 179.74 239.45 185.9 247.02 185.9C254.36 185.9 260.44 180.02 260.73 172.72H246.82C246.73 172.72 246.64 172.68 246.58 172.62C246.52 172.56 246.48 172.47 246.48 172.38L246.64 158.45Z" fill="#92B5F2"/>
<path d="M263.75 170.24H249.49C249.4 170.24 249.31 170.2 249.25 170.14C249.19 170.08 249.15 169.99 249.15 169.9L249.32 155.63C249.32 155.44 249.48 155.28 249.66 155.29C257.63 155.29 264.1 161.75 264.1 169.7C264.1 169.74 264.1 169.79 264.09 169.83V169.9C264.09 170.09 263.93 170.24 263.75 170.24ZM249.84 169.56H263.42C263.35 162.16 257.38 156.14 250 155.98L249.84 169.56Z" fill="#92B5F2"/>
<path d="M54.9297 12.3101L33.7197 33.5301C33.9197 34.0901 34.1397 34.6401 34.3997 35.1701L56.5797 12.9901C56.0397 12.7401 55.4897 12.5101 54.9297 12.3101Z" fill="#7BBFBA"/>
<path d="M51.0396 11.4401L32.8496 29.6301C32.9096 30.2301 32.9996 30.8101 33.1196 31.3901L52.7996 11.7101C52.2196 11.5901 51.6296 11.5001 51.0396 11.4401Z" fill="#7BBFBA"/>
<path d="M66.01 27.9801C66.01 27.8401 66 27.7001 66 27.5601L48.96 44.5901C49.1 44.5901 49.24 44.6001 49.38 44.6001C49.97 44.6001 50.55 44.5701 51.12 44.5101L65.91 29.7201C65.97 29.1501 66.01 28.5701 66.01 27.9801Z" fill="#7BBFBA"/>
<path d="M59.6399 14.91C59.2199 14.58 58.7799 14.27 58.3299 13.98L35.3799 36.93C35.6699 37.38 35.9799 37.82 36.3099 38.24L59.6399 14.91Z" fill="#7BBFBA"/>
<path d="M32.7998 26.93L48.3398 11.4C47.8898 11.43 47.4498 11.47 47.0098 11.54L32.9398 25.6C32.8798 26.04 32.8298 26.49 32.7998 26.93Z" fill="#7BBFBA"/>
<path d="M61.0996 16.1901L37.5996 39.6901C38.0496 40.1401 38.5196 40.5601 39.0096 40.9501L62.3596 17.6001C61.9696 17.1101 61.5496 16.6401 61.0996 16.1901Z" fill="#7BBFBA"/>
<path d="M64.4096 20.8701C64.1396 20.3001 63.8296 19.7401 63.4996 19.2101L40.6196 42.1001C41.1496 42.4301 41.7096 42.7401 42.2796 43.0101L64.4096 20.8701Z" fill="#7BBFBA"/>
<path d="M43.2697 12.53C39.0097 14.22 35.6197 17.61 33.9297 21.87L43.2697 12.53Z" fill="#7BBFBA"/>
<path d="M54.6196 43.7501C59.5896 42.1001 63.5096 38.1801 65.1596 33.2101L54.6196 43.7501Z" fill="#7BBFBA"/>
<path d="M65.1897 22.8301L44.2397 43.7801C44.9597 44.0201 45.7097 44.2001 46.4697 44.3401L65.7497 25.0601C65.6097 24.3001 65.4197 23.5601 65.1897 22.8301Z" fill="#7BBFBA"/>
<path d="M20.2802 94.44C9.84023 91.58 3.70023 80.77 6.57023 70.3C9.44023 59.83 20.2302 53.67 30.6802 56.53C41.1202 59.39 47.2602 70.2 44.3902 80.67C41.5202 91.14 30.7302 97.31 20.2802 94.44Z" fill="#F5F5F5"/>
<path d="M21.5204 89.9299C13.5604 87.7499 8.88037 79.5099 11.0704 71.5299C13.2604 63.5499 21.4804 58.8599 29.4404 61.0399C37.4004 63.2199 42.0804 71.4599 39.8904 79.4399C37.7004 87.4199 29.4804 92.1199 21.5204 89.9299Z" fill="#ECECEC"/>
<path d="M21.9703 90.05C21.9903 89.96 22.6403 90.07 23.8103 90.14C24.9703 90.2 26.6903 90.2 28.6903 89.69C29.6903 89.43 30.7603 89.05 31.8403 88.5C32.9103 87.94 34.0003 87.23 35.0003 86.31C35.5003 85.86 35.9903 85.36 36.4403 84.81C36.8903 84.26 37.3203 83.68 37.7003 83.05C38.0803 82.42 38.4303 81.75 38.7203 81.05C39.0103 80.35 39.2503 79.61 39.4403 78.85C39.6203 78.09 39.7403 77.32 39.8003 76.57C39.8703 75.81 39.8503 75.06 39.8103 74.33C39.7603 73.59 39.6403 72.88 39.4903 72.19C39.3403 71.5 39.1303 70.83 38.8903 70.2C38.4103 68.93 37.7703 67.8 37.0703 66.81C36.3603 65.83 35.5803 65 34.8103 64.31C33.2603 62.94 31.7303 62.16 30.6703 61.69C29.6003 61.22 28.9703 61.03 28.9903 60.94C29.0003 60.87 29.6703 60.92 30.8303 61.28C31.9803 61.64 33.6303 62.33 35.3403 63.7C36.1903 64.38 37.0503 65.23 37.8403 66.25C38.6203 67.27 39.3403 68.47 39.8803 69.82C40.1503 70.49 40.3903 71.2 40.5703 71.95C40.7503 72.69 40.8903 73.46 40.9503 74.26C41.0103 75.05 41.0303 75.86 40.9603 76.68C40.9003 77.5 40.7703 78.32 40.5703 79.14C40.3703 79.96 40.1103 80.75 39.7903 81.51C39.4803 82.27 39.0903 82.98 38.6803 83.66C38.2703 84.34 37.7903 84.96 37.3003 85.54C36.8103 86.12 36.2703 86.65 35.7203 87.12C34.6203 88.08 33.4403 88.81 32.2803 89.37C31.1103 89.92 29.9603 90.28 28.8903 90.5C26.7403 90.94 24.9603 90.81 23.7803 90.6C22.5703 90.38 21.9603 90.12 21.9703 90.05Z" fill="#E1E1E1"/>
<path d="M234.13 28H47.7902C44.5802 28 41.9702 30.6 41.9702 33.82V165.44C41.9702 168.65 44.5702 171.26 47.7902 171.26H119.31C119.31 171.26 123.86 185.33 109.76 192.61H176.63C176.63 192.61 160.71 187.15 164.8 171.26H234.13C237.34 171.26 239.95 168.66 239.95 165.44V33.82C239.94 30.6 237.34 28 234.13 28Z" fill="#303030"/>
<path d="M143.45 157.41C145.98 161.03 142.02 165 138.39 162.47C138.27 162.39 138.16 162.28 138.08 162.16C135.55 158.54 139.51 154.58 143.14 157.1C143.25 157.18 143.36 157.29 143.45 157.41Z" fill="white"/>
<path d="M236.59 147.19H45.0303V35.4701C45.0303 32.6901 47.2803 30.4301 50.0703 30.4301H231.56C234.34 30.4301 236.6 32.6801 236.6 35.4701V147.19H236.59Z" fill="white"/>
<path d="M236.59 40.11H45.1802V35.21C45.1802 32.56 47.3302 30.41 49.9802 30.41H233.42C235.17 30.41 236.58 31.83 236.58 33.57V40.11H236.59Z" fill="#ECECEC"/>
<path d="M52.6204 35.47C52.6204 36.21 52.0204 36.82 51.2704 36.82C50.5304 36.82 49.9204 36.22 49.9204 35.47C49.9204 34.73 50.5204 34.12 51.2704 34.12C52.0204 34.12 52.6204 34.72 52.6204 35.47Z" fill="#1A2E35"/>
<path d="M56.6404 35.47C56.6404 36.21 56.0404 36.82 55.2904 36.82C54.5504 36.82 53.9404 36.22 53.9404 35.47C53.9404 34.73 54.5404 34.12 55.2904 34.12C56.0304 34.12 56.6404 34.72 56.6404 35.47Z" fill="#1A2E35"/>
<path d="M60.4505 35.47C60.4505 36.21 59.8505 36.82 59.1005 36.82C58.3605 36.82 57.7505 36.22 57.7505 35.47C57.7505 34.73 58.3505 34.12 59.1005 34.12C59.8505 34.12 60.4505 34.72 60.4505 35.47Z" fill="#1A2E35"/>
<path d="M200.81 171.27C200.81 171.33 174.29 171.38 141.59 171.38C108.88 171.38 82.3701 171.33 82.3701 171.27C82.3701 171.21 108.88 171.16 141.59 171.16C174.3 171.16 200.81 171.21 200.81 171.27Z" fill="#1A2E35"/>
<path d="M278 192.68C278 192.82 216.66 192.94 141.01 192.94C65.33 192.94 4 192.82 4 192.68C4 192.54 65.33 192.42 141.01 192.42C216.66 192.42 278 192.54 278 192.68Z" fill="#1A2E35" stroke="black" stroke-width="2" stroke-miterlimit="10"/>
<path d="M119.75 137.9H110.04C107.85 137.9 106.07 136.12 106.07 133.93V124.22C106.07 122.03 107.85 120.25 110.04 120.25H119.75C121.94 120.25 123.72 122.03 123.72 124.22V133.93C123.72 136.12 121.94 137.9 119.75 137.9Z" fill="#938569"/>
<path d="M118.37 136.23H108.66C106.47 136.23 104.69 134.45 104.69 132.26V122.55C104.69 120.36 106.47 118.58 108.66 118.58H118.37C120.56 118.58 122.34 120.36 122.34 122.55V132.26C122.35 134.45 120.57 136.23 118.37 136.23Z" fill="#D8C497"/>
<path d="M142.5 137.9H132.79C130.6 137.9 128.82 136.12 128.82 133.93V124.22C128.82 122.03 130.6 120.25 132.79 120.25H142.5C144.69 120.25 146.47 122.03 146.47 124.22V133.93C146.48 136.12 144.7 137.9 142.5 137.9Z" fill="#938569"/>
<path d="M141.13 136.23H131.42C129.23 136.23 127.45 134.45 127.45 132.26V122.55C127.45 120.36 129.23 118.58 131.42 118.58H141.13C143.32 118.58 145.1 120.36 145.1 122.55V132.26C145.1 134.45 143.32 136.23 141.13 136.23Z" fill="#D8C497"/>
<path d="M73.7498 137.9H64.0398C61.8498 137.9 60.0698 136.12 60.0698 133.93V124.22C60.0698 122.03 61.8498 120.25 64.0398 120.25H73.7498C75.9398 120.25 77.7198 122.03 77.7198 124.22V133.93C77.7198 136.12 75.9398 137.9 73.7498 137.9Z" fill="#938569"/>
<path d="M72.3699 136.23H62.6599C60.4699 136.23 58.6899 134.45 58.6899 132.26V122.55C58.6899 120.36 60.4699 118.58 62.6599 118.58H72.3699C74.5599 118.58 76.3399 120.36 76.3399 122.55V132.26C76.3499 134.45 74.5699 136.23 72.3699 136.23Z" fill="#D8C497"/>
<path d="M96.5003 137.9H86.7903C84.6003 137.9 82.8203 136.12 82.8203 133.93V124.22C82.8203 122.03 84.6003 120.25 86.7903 120.25H96.5003C98.6903 120.25 100.47 122.03 100.47 124.22V133.93C100.48 136.12 98.7003 137.9 96.5003 137.9Z" fill="#938569"/>
<path d="M95.1302 136.23H85.4202C83.2302 136.23 81.4502 134.45 81.4502 132.26V122.55C81.4502 120.36 83.2302 118.58 85.4202 118.58H95.1302C97.3202 118.58 99.1002 120.36 99.1002 122.55V132.26C99.1002 134.45 97.3202 136.23 95.1302 136.23Z" fill="#D8C497"/>
<path d="M131.39 101.38C131.39 104.47 128.89 106.97 125.8 106.97H66.9499C63.8599 106.97 61.3599 104.47 61.3599 101.38V62.72C61.3599 59.63 63.8599 57.13 66.9499 57.13H125.8C128.89 57.13 131.39 59.63 131.39 62.72" fill="#8E8E8E"/>
<path d="M122.44 103.3H63.59C60.5 103.3 58 100.8 58 97.71V59.05C58 55.96 60.5 53.46 63.59 53.46H122.44C125.53 53.46 128.03 55.96 128.03 59.05V97.72C128.02 100.8 125.52 103.3 122.44 103.3Z" fill="#F8F5EC"/>
<path d="M122.44 53.46H63.59C60.5 53.46 58 55.96 58 59.05V60.57H128.02V59.05C128.02 55.96 125.52 53.46 122.44 53.46Z" fill="#D8D8D8"/>
<path d="M63.6951 57.3029C63.7811 56.7742 63.4222 56.2758 62.8935 56.1897C62.3647 56.1037 61.8663 56.4626 61.7803 56.9913C61.6943 57.5201 62.0532 58.0185 62.5819 58.1045C63.1107 58.1905 63.609 57.8317 63.6951 57.3029Z" fill="white"/>
<path d="M67.2898 58.1099C67.8255 58.1099 68.2598 57.6756 68.2598 57.1399C68.2598 56.6042 67.8255 56.1699 67.2898 56.1699C66.7541 56.1699 66.3198 56.6042 66.3198 57.1399C66.3198 57.6756 66.7541 58.1099 67.2898 58.1099Z" fill="white"/>
<path d="M71.8299 58.1099C72.3656 58.1099 72.7999 57.6756 72.7999 57.1399C72.7999 56.6042 72.3656 56.1699 71.8299 56.1699C71.2941 56.1699 70.8599 56.6042 70.8599 57.1399C70.8599 57.6756 71.2941 58.1099 71.8299 58.1099Z" fill="white"/>
<path d="M70.8698 82.81C75.857 82.81 79.8998 78.7671 79.8998 73.78C79.8998 68.7929 75.857 64.75 70.8698 64.75C65.8827 64.75 61.8398 68.7929 61.8398 73.78C61.8398 78.7671 65.8827 82.81 70.8698 82.81Z" fill="#B6BDD4"/>
<path d="M69.5202 81.91C74.5074 81.91 78.5502 77.8671 78.5502 72.88C78.5502 67.8928 74.5074 63.85 69.5202 63.85C64.5331 63.85 60.4902 67.8928 60.4902 72.88C60.4902 77.8671 64.5331 81.91 69.5202 81.91Z" fill="#445C77"/>
<path d="M101.14 70.31H87.2505C85.9905 70.31 84.9604 69.29 84.9604 68.02C84.9604 66.76 85.9805 65.73 87.2505 65.73H101.14C102.4 65.73 103.43 66.75 103.43 68.02C103.43 69.29 102.4 70.31 101.14 70.31Z" fill="#B6BDD4"/>
<path d="M100.42 69.3799H86.5302C85.2702 69.3799 84.2402 68.3599 84.2402 67.0899C84.2402 65.8299 85.2602 64.7999 86.5302 64.7999H100.42C101.68 64.7999 102.71 65.8199 102.71 67.0899C102.71 68.3599 101.68 69.3799 100.42 69.3799Z" fill="white"/>
<path d="M118.45 79.18H87.2505C85.9905 79.18 84.9604 78.16 84.9604 76.89C84.9604 75.63 85.9805 74.6 87.2505 74.6H118.45C119.71 74.6 120.74 75.62 120.74 76.89C120.74 78.16 119.71 79.18 118.45 79.18Z" fill="#B6BDD4"/>
<path d="M117.73 78.2499H86.5302C85.2702 78.2499 84.2402 77.2299 84.2402 75.9599C84.2402 74.6999 85.2602 73.6699 86.5302 73.6699H117.73C118.99 73.6699 120.02 74.6899 120.02 75.9599C120.02 77.2299 118.99 78.2499 117.73 78.2499Z" fill="white"/>
<path d="M97.2302 92.16H66.0302C64.7702 92.16 63.7402 91.14 63.7402 89.87C63.7402 88.61 64.7602 87.58 66.0302 87.58H97.2302C98.4902 87.58 99.5202 88.6 99.5202 89.87C99.5102 91.14 98.4902 92.16 97.2302 92.16Z" fill="#B6BDD4"/>
<path d="M96.51 91.2299H65.31C64.05 91.2299 63.02 90.2099 63.02 88.9399C63.02 87.6799 64.04 86.6499 65.31 86.6499H96.51C97.77 86.6499 98.8 87.6699 98.8 88.9399C98.79 90.2099 97.77 91.2299 96.51 91.2299Z" fill="white"/>
<path d="M170.84 53.45C163.26 53.45 157 59.05 155.94 66.33L170.91 68.55L163.25 81.5199C165.48 82.8199 168.07 83.57 170.83 83.57C179.15 83.57 185.89 76.83 185.89 68.51C185.9 60.19 179.16 53.45 170.84 53.45Z" fill="#D8D8D8"/>
<path d="M169.94 68.55L162.28 81.52C164.51 82.82 167.1 83.57 169.86 83.57C177.25 83.57 183.4 78.24 184.67 71.21L169.94 68.55Z" fill="#994F61"/>
<path d="M146.16 65.0201L169.94 68.5401L157.59 47.9301C151.53 51.5501 147.22 57.76 146.16 65.0201Z" fill="#445C77"/>
<path d="M193.82 68.51C193.82 63.12 192.04 58.14 189.03 54.14L169.93 68.55L179.68 90.37C188.02 86.61 193.82 78.24 193.82 68.51Z" fill="#D8C497"/>
<path d="M163.56 71.4L139.78 67.88C139.61 69.02 139.52 70.18 139.52 71.36C139.52 80.16 144.26 87.84 151.33 92.01L163.56 71.4Z" fill="#D8D8D8"/>
<path d="M169.86 92.89C165.48 92.89 161.18 91.71 157.43 89.49C157.23 89.37 157.16 89.11 157.28 88.91C157.4 88.71 157.66 88.64 157.86 88.76C161.48 90.91 165.63 92.05 169.86 92.05C182.84 92.05 193.4 81.49 193.4 68.51C193.4 55.53 182.84 44.97 169.86 44.97C158.33 44.97 148.32 53.55 146.59 64.94C146.56 65.17 146.34 65.33 146.11 65.29C145.88 65.25 145.72 65.04 145.76 64.81C146.63 59.11 149.52 53.87 153.9 50.08C158.33 46.24 164 44.13 169.86 44.13C183.3 44.13 194.24 55.07 194.24 68.51C194.25 81.95 183.31 92.89 169.86 92.89Z" fill="#4879E0"/>
<path d="M202.98 55.28H197.85V60.41H202.98V55.28Z" fill="#D8C497"/>
<path d="M228 55.28H206.56V60.41H228V55.28Z" fill="#F8F5EC"/>
<path d="M202.98 69.61H197.85V74.74H202.98V69.61Z" fill="#445C77"/>
<path d="M227.97 69.61H206.56V74.74H227.97V69.61Z" fill="#F8F5EC"/>
<path d="M228 104.2H216.85V138.3H228V104.2Z" fill="#445C77"/>
<path d="M206.84 114.99H195.69V138.3H206.84V114.99Z" fill="#445C77"/>
<path d="M184.14 125.78H172.99V138.3H184.14V125.78Z" fill="#445C77"/>
<path d="M224.9 90.5601L215.64 94.4501L218.88 95.3101L211.12 103.07H198.17C197.82 103.07 197.5 103.28 197.35 103.6L192.81 113.58H190.48C190.1 113.58 189.77 113.82 189.64 114.17L188.45 117.43H173.13C172.84 117.43 172.56 117.57 172.39 117.81L169.58 121.84C169.3 122.25 169.4 122.81 169.8 123.09C169.96 123.2 170.14 123.25 170.31 123.25C170.59 123.25 170.87 123.12 171.05 122.87L173.6 119.22H189.08C189.46 119.22 189.79 118.98 189.92 118.63L191.11 115.37H193.39C193.74 115.37 194.06 115.16 194.21 114.84L198.75 104.86H211.49C211.73 104.86 211.96 104.77 212.13 104.6L220.16 96.5701L221.02 99.8101L224.9 90.5601Z" fill="#FCBE4F"/>
<path d="M253.22 174.11C253.23 174.11 253.18 174 253.09 173.8C252.99 173.58 252.85 173.28 252.67 172.91C252.31 172.12 251.85 170.92 251.44 169.33C250.62 166.15 250.34 161.28 251.55 155.5C252.11 152.61 253.01 149.5 254.11 146.21C255.2 142.91 256.46 139.42 257.49 135.63C258.51 131.86 259.31 127.76 259.16 123.47C259 119.17 257.73 114.88 256.33 110.6C254.93 106.32 253.49 102.14 253.05 97.93C252.56 93.73 253.46 89.61 255.37 86.23C257.22 82.82 259.56 79.89 261.3 76.87C263.07 73.85 264.18 70.75 264.86 67.87C266.18 62.06 265.72 57.16 265.09 53.93C264.4 50.68 263.64 49.01 263.64 49.01C263.63 49.01 263.66 49.12 263.73 49.34C263.8 49.57 263.9 49.89 264.02 50.28C264.28 51.11 264.61 52.35 264.92 53.97C265.5 57.19 265.91 62.06 264.56 67.81C263.86 70.66 262.75 73.72 260.98 76.7C259.24 79.69 256.9 82.6 255.01 86.05C253.06 89.47 252.12 93.72 252.61 97.99C253.05 102.27 254.5 106.48 255.9 110.76C257.3 115.03 258.56 119.28 258.72 123.51C258.88 127.74 258.09 131.79 257.09 135.55C256.08 139.31 254.83 142.81 253.76 146.12C252.67 149.42 251.78 152.55 251.24 155.46C250.07 161.28 250.4 166.2 251.28 169.39C251.72 170.99 252.21 172.18 252.6 172.97C252.79 173.34 252.95 173.63 253.06 173.85C253.16 174.02 253.22 174.12 253.22 174.11Z" fill="#1A2E35"/>
<path d="M258.93 79.85C258.93 79.85 262.47 68.52 256.12 61.88C255.9 61.65 255.5 61.76 255.45 62.07C255.11 63.95 254.68 69.65 258.93 79.85Z" fill="#7BBFBA"/>
<path d="M256.81 65.66C256.75 65.67 256.85 66.47 257.05 67.75C257.28 69.19 257.56 70.88 257.86 72.75C258.16 74.62 258.42 76.31 258.65 77.75C258.84 79.03 258.96 79.82 259.03 79.82C259.09 79.82 259.08 79.01 258.97 77.71C258.85 76.42 258.62 74.63 258.3 72.68C257.98 70.72 257.64 68.96 257.36 67.7C257.08 66.42 256.87 65.65 256.81 65.66Z" fill="#1A2E35"/>
<path d="M254.77 106.58C254.77 106.58 252.6 94.91 243.88 92.01C243.57 91.91 243.28 92.19 243.38 92.5C243.95 94.31 246.24 99.55 254.77 106.58Z" fill="#7BBFBA"/>
<path d="M246.26 95.03C246.21 95.07 246.67 95.73 247.45 96.77C248.33 97.93 249.36 99.3 250.5 100.81C251.64 102.32 252.66 103.69 253.54 104.86C254.31 105.9 254.78 106.55 254.84 106.51C254.89 106.48 254.51 105.77 253.8 104.68C253.09 103.59 252.06 102.12 250.86 100.54C249.66 98.96 248.54 97.56 247.7 96.57C246.85 95.58 246.3 94.99 246.26 95.03Z" fill="#1A2E35"/>
<path d="M257.13 135.87C257.13 135.87 258.45 124.07 250.94 118.77C250.68 118.58 250.31 118.77 250.32 119.09C250.34 120.99 251.01 126.66 257.13 135.87Z" fill="#7BBFBA"/>
<path d="M252.33 122.34C252.27 122.36 252.52 123.13 252.96 124.35C253.46 125.72 254.05 127.33 254.71 129.1C255.36 130.88 255.94 132.49 256.44 133.86C256.87 135.08 257.14 135.84 257.2 135.82C257.26 135.8 257.1 135.01 256.74 133.76C256.38 132.51 255.81 130.81 255.13 128.95C254.44 127.09 253.77 125.43 253.26 124.24C252.75 123.04 252.39 122.32 252.33 122.34Z" fill="#1A2E35"/>
<path d="M250.56 165.32C250.56 165.32 251.45 153.48 243.76 148.45C243.49 148.27 243.13 148.47 243.15 148.79C243.24 150.7 244.11 156.35 250.56 165.32Z" fill="#7BBFBA"/>
<path d="M245.28 151.98C245.22 152.01 245.5 152.76 245.98 153.96C246.53 155.31 247.18 156.9 247.9 158.65C248.61 160.4 249.25 161.99 249.8 163.34C250.28 164.54 250.57 165.29 250.63 165.27C250.68 165.25 250.5 164.47 250.09 163.23C249.68 162 249.06 160.31 248.3 158.48C247.55 156.65 246.82 155.01 246.26 153.84C245.72 152.66 245.34 151.95 245.28 151.98Z" fill="#1A2E35"/>
<path d="M264.03 69.89C264.03 69.89 274.56 64.39 274.76 55.21C274.77 54.89 274.41 54.69 274.15 54.87C272.58 55.95 268.24 59.68 264.03 69.89Z" fill="#7BBFBA"/>
<path d="M272.57 58.37C272.52 58.34 272.03 58.97 271.26 60.02C270.41 61.2 269.4 62.59 268.29 64.12C267.18 65.65 266.17 67.03 265.31 68.21C264.54 69.25 264.06 69.89 264.11 69.94C264.15 69.98 264.72 69.4 265.56 68.41C266.39 67.41 267.49 65.99 268.65 64.38C269.81 62.77 270.81 61.29 271.52 60.2C272.22 59.1 272.62 58.4 272.57 58.37Z" fill="#1A2E35"/>
<path d="M252.72 94.23C252.72 94.23 263.56 89.38 264.32 80.23C264.35 79.91 264 79.69 263.73 79.85C262.11 80.83 257.55 84.29 252.72 94.23Z" fill="#7BBFBA"/>
<path d="M261.95 83.24C261.9 83.2 261.37 83.81 260.54 84.8C259.61 85.93 258.53 87.25 257.33 88.72C256.13 90.18 255.04 91.5 254.11 92.62C253.28 93.61 252.76 94.23 252.81 94.27C252.85 94.31 253.45 93.77 254.35 92.83C255.24 91.88 256.43 90.53 257.68 89C258.93 87.47 260.03 86.04 260.79 85C261.56 83.95 262 83.28 261.95 83.24Z" fill="#1A2E35"/>
<path d="M258.96 121.38C258.96 121.38 266.4 112.13 262.91 103.63C262.79 103.33 262.38 103.29 262.21 103.56C261.21 105.18 258.73 110.33 258.96 121.38Z" fill="#7BBFBA"/>
<path d="M262.17 107.39C262.11 107.38 261.91 108.16 261.63 109.42C261.32 110.85 260.96 112.52 260.55 114.37C260.14 116.22 259.77 117.89 259.46 119.31C259.17 120.57 258.99 121.35 259.05 121.37C259.1 121.39 259.39 120.63 259.76 119.39C260.12 118.14 260.56 116.4 260.98 114.46C261.4 112.52 261.72 110.76 261.93 109.48C262.15 108.2 262.23 107.4 262.17 107.39Z" fill="#1A2E35"/>
<path d="M251.59 153.33C251.59 153.33 262.35 148.3 262.96 139.13C262.98 138.81 262.64 138.59 262.36 138.76C260.75 139.77 256.25 143.31 251.59 153.33Z" fill="#7BBFBA"/>
<path d="M260.63 142.18C260.58 142.14 260.06 142.76 259.25 143.77C258.34 144.91 257.28 146.26 256.11 147.74C254.93 149.22 253.86 150.56 252.96 151.7C252.15 152.71 251.64 153.33 251.69 153.37C251.73 153.41 252.32 152.86 253.2 151.9C254.08 150.94 255.24 149.57 256.46 148.01C257.69 146.46 258.76 145.02 259.51 143.96C260.25 142.9 260.68 142.22 260.63 142.18Z" fill="#1A2E35"/>
<path d="M230.16 106.64C230.15 106.64 230.15 106.73 230.15 106.9C230.16 107.11 230.16 107.36 230.17 107.66C230.2 108.37 230.24 109.34 230.3 110.54C230.44 113.07 230.63 116.6 230.86 120.82V120.83V120.84C231.63 125.14 233.82 129.9 236.76 134.52C238.92 137.93 241.18 141.02 243.13 143.9C245.09 146.77 246.75 149.43 247.9 151.79C249.06 154.14 249.74 156.17 250.13 157.58C250.32 158.29 250.46 158.84 250.54 159.22C250.63 159.6 250.68 159.79 250.7 159.79C250.72 159.79 250.69 159.58 250.63 159.2C250.58 158.81 250.46 158.25 250.3 157.53C249.95 156.1 249.32 154.04 248.18 151.65C247.05 149.26 245.41 146.56 243.46 143.67C241.52 140.77 239.28 137.67 237.13 134.28C234.21 129.68 232.03 124.99 231.23 120.76V120.78C230.93 116.56 230.69 113.04 230.51 110.51C230.41 109.31 230.34 108.35 230.28 107.64C230.25 107.34 230.22 107.09 230.2 106.88C230.19 106.73 230.17 106.64 230.16 106.64Z" fill="#1A2E35"/>
<path d="M236.57 133.65C236.57 133.65 232.01 122.68 237.74 115.5C237.94 115.25 238.34 115.32 238.43 115.63C238.94 117.46 239.88 123.1 236.57 133.65Z" fill="#1A2E35"/>
<path d="M237.4 119.32C237.34 119.31 237.2 120.11 237.04 121.39C236.88 122.68 236.7 124.46 236.56 126.44C236.42 128.42 236.35 130.21 236.35 131.51C236.35 132.81 236.42 133.61 236.48 133.61C236.55 133.61 236.59 132.81 236.67 131.52C236.77 130.07 236.88 128.36 237.01 126.47C237.14 124.58 237.26 122.87 237.36 121.42C237.43 120.13 237.46 119.33 237.4 119.32Z" fill="#1A2E35"/>
<g opacity="0.3">
<path d="M236.57 133.65C236.57 133.65 232.01 122.68 237.74 115.5C237.94 115.25 238.34 115.32 238.43 115.63C238.94 117.46 239.88 123.1 236.57 133.65Z" fill="#479DA3"/>
</g>
<path d="M250.68 160.07C250.68 160.07 247.03 148.77 253.32 142.08C253.54 141.84 253.93 141.95 254 142.27C254.35 144.13 254.83 149.83 250.68 160.07Z" fill="#FF4F5B"/>
<path d="M252.67 145.86C252.61 145.85 252.41 146.63 252.14 147.9C251.87 149.17 251.55 150.93 251.25 152.89C250.95 154.85 250.74 156.63 250.63 157.93C250.53 159.23 250.53 160.03 250.59 160.04C250.65 160.04 250.76 159.25 250.95 157.97C251.16 156.53 251.42 154.84 251.7 152.96C251.98 151.09 252.24 149.4 252.46 147.95C252.63 146.67 252.73 145.87 252.67 145.86Z" fill="#1A2E35"/>
<path d="M250.68 160.07C250.68 160.07 247.03 148.77 253.32 142.08C253.54 141.84 253.93 141.95 254 142.27C254.35 144.13 254.83 149.83 250.68 160.07Z" fill="#479DA3"/>
<path d="M230.77 120.25C230.77 120.25 221.04 113.44 222.02 104.3C222.05 103.98 222.43 103.83 222.67 104.04C224.08 105.32 227.9 109.57 230.77 120.25Z" fill="#479DA3"/>
<g opacity="0.3">
<path d="M230.77 120.25C230.77 120.25 221.04 113.44 222.02 104.3C222.05 103.98 222.43 103.83 222.67 104.04C224.08 105.32 227.9 109.57 230.77 120.25Z" fill="#479DA3"/>
</g>
<path d="M223.78 107.71C223.73 107.74 224.03 108.48 224.59 109.65C225.15 110.82 225.95 112.43 226.89 114.17C227.83 115.91 228.74 117.46 229.44 118.56C230.14 119.66 230.63 120.3 230.68 120.27C230.73 120.23 230.34 119.54 229.71 118.4C229.01 117.12 228.19 115.62 227.29 113.96C226.39 112.3 225.57 110.79 224.88 109.51C224.24 108.38 223.84 107.68 223.78 107.71Z" fill="#1A2E35"/>
<path d="M246.76 148.87C246.76 148.87 235.03 147.04 231.88 138.41C231.77 138.11 232.04 137.8 232.35 137.89C234.18 138.41 239.48 140.55 246.76 148.87Z" fill="#479DA3"/>
<g opacity="0.3">
<path d="M246.76 148.87C246.76 148.87 235.03 147.04 231.88 138.41C231.77 138.11 232.04 137.8 232.35 137.89C234.18 138.41 239.48 140.55 246.76 148.87Z" fill="#479DA3"/>
</g>
<path d="M234.96 140.69C234.92 140.74 235.53 141.27 236.54 142.08C237.56 142.89 238.98 143.97 240.6 145.12C242.21 146.27 243.71 147.26 244.82 147.94C245.93 148.62 246.65 148.98 246.68 148.93C246.71 148.87 246.05 148.42 244.99 147.68C243.8 146.84 242.4 145.85 240.86 144.76C239.32 143.66 237.92 142.67 236.73 141.83C235.67 141.09 235 140.64 234.96 140.69Z" fill="#1A2E35"/>
<path d="M260.64 170.46L257.27 192.53L243.83 192.51L239.31 170.46H260.64Z" fill="#375A64"/>
<path d="M241.27 178.98C241.27 178.99 241.3 179.01 241.38 179.06C241.46 179.11 241.57 179.18 241.73 179.26C242.05 179.42 242.55 179.61 243.23 179.71C243.91 179.8 244.77 179.78 245.7 179.48C246.62 179.18 247.64 178.58 248.36 177.55C248.7 177.03 248.94 176.4 248.98 175.7C249.03 175.02 248.77 174.2 248.07 173.8C247.38 173.4 246.48 173.54 245.82 173.99C245.13 174.44 244.73 175.22 244.53 176.02C244.34 176.83 244.32 177.67 244.36 178.51C244.41 179.36 244.57 180.23 244.91 181.06C245.24 181.89 245.76 182.68 246.47 183.28C247.18 183.88 248.08 184.31 249.06 184.36C250.04 184.4 250.97 184.07 251.75 183.58C252.53 183.09 253.2 182.46 253.76 181.77C254.31 181.07 254.73 180.24 254.78 179.34C254.82 178.46 254.51 177.55 253.83 177C253.13 176.43 252.14 176.47 251.45 176.85C250.73 177.21 250.2 177.9 250.08 178.65C249.82 180.16 250.71 181.53 251.78 182.14C252.88 182.77 254.08 182.79 255.02 182.61C255.98 182.42 256.74 182.04 257.33 181.71C257.92 181.37 258.34 181.05 258.62 180.83C258.9 180.61 259.04 180.49 259.03 180.48C259.02 180.47 258.87 180.57 258.57 180.77C258.27 180.97 257.84 181.26 257.25 181.58C256.66 181.89 255.9 182.25 254.97 182.41C254.05 182.56 252.91 182.52 251.89 181.92C250.9 181.35 250.11 180.05 250.36 178.71C250.48 178.05 250.94 177.46 251.58 177.14C252.2 176.81 253.03 176.79 253.6 177.26C254.17 177.72 254.46 178.53 254.41 179.31C254.36 180.1 253.98 180.87 253.46 181.53C252.93 182.19 252.28 182.79 251.54 183.26C250.8 183.72 249.94 184.02 249.06 183.98C248.18 183.94 247.35 183.55 246.69 182.99C246.03 182.43 245.54 181.7 245.23 180.91C244.91 180.12 244.76 179.29 244.7 178.47C244.65 177.65 244.67 176.83 244.85 176.08C245.03 175.33 245.39 174.63 245.99 174.24C246.57 173.84 247.35 173.73 247.91 174.05C248.48 174.37 248.72 175.05 248.69 175.67C248.66 176.3 248.45 176.9 248.13 177.38C247.47 178.35 246.51 178.95 245.62 179.26C244.73 179.57 243.89 179.61 243.23 179.54C241.92 179.41 241.29 178.92 241.27 178.98Z" fill="#1A2E35"/>
<path d="M15.9698 69.47L14.3198 77.15L23.7098 79.17L23.1598 81.73L24.8698 82.1L25.4198 79.54L27.9798 80.09L27.4298 82.65L29.1398 83.02L29.6898 80.46L34.8098 81.56L35.1798 79.85L30.0598 78.75L31.7098 71.07L29.9998 70.7L28.3498 78.38L25.7898 77.83L27.0698 71.86C27.6698 69.03 25.8798 66.25 23.0498 65.64L22.1998 65.46C19.3698 64.84 16.5798 66.64 15.9698 69.47ZM22.6798 67.34C24.5598 67.75 25.7598 69.6 25.3598 71.49L24.0798 77.46L16.3998 75.81L17.6798 69.84C18.0898 67.96 19.9398 66.76 21.8298 67.16L22.6798 67.34Z" fill="#E1E1E1"/>
<path d="M233.31 53.32C239.22 47.47 248.77 47.53 254.63 53.45C260.49 59.37 260.46 68.92 254.55 74.77C248.64 80.62 239.09 80.56 233.23 74.64C227.36 68.72 227.4 59.17 233.31 53.32Z" fill="#F5F5F5"/>
<path d="M235.83 55.87C240.33 51.41 247.61 51.46 252.08 55.97C256.55 60.48 256.52 67.76 252.02 72.22C247.52 76.68 240.24 76.63 235.77 72.12C231.3 67.6 231.33 60.33 235.83 55.87Z" fill="#ECECEC"/>
<path d="M235.58 56.13C235.63 56.18 235.31 56.57 234.81 57.32C234.32 58.07 233.67 59.21 233.24 60.74C233.03 61.5 232.87 62.36 232.83 63.29C232.79 64.22 232.85 65.22 233.07 66.23C233.18 66.74 233.32 67.26 233.51 67.76C233.7 68.27 233.92 68.78 234.2 69.28C234.47 69.77 234.78 70.26 235.14 70.72C235.5 71.18 235.89 71.62 236.33 72.04C236.77 72.45 237.23 72.82 237.71 73.16C238.19 73.49 238.69 73.78 239.2 74.02C239.71 74.27 240.23 74.47 240.75 74.63C241.27 74.8 241.79 74.91 242.31 74.99C243.34 75.16 244.34 75.16 245.26 75.08C246.19 74.98 247.03 74.78 247.79 74.53C249.3 74.02 250.4 73.31 251.12 72.78C251.84 72.25 252.22 71.9 252.27 71.95C252.31 71.98 252.02 72.41 251.34 73.05C250.66 73.68 249.57 74.51 248 75.12C247.22 75.42 246.33 75.67 245.35 75.81C244.37 75.94 243.3 75.96 242.19 75.8C241.64 75.72 241.07 75.61 240.51 75.44C239.95 75.27 239.38 75.07 238.83 74.81C238.28 74.55 237.73 74.25 237.21 73.89C236.69 73.53 236.19 73.13 235.72 72.69C235.25 72.24 234.83 71.76 234.44 71.26C234.06 70.76 233.73 70.23 233.44 69.69C233.15 69.15 232.91 68.6 232.72 68.05C232.52 67.5 232.38 66.94 232.27 66.39C232.05 65.29 232.02 64.22 232.09 63.24C232.17 62.25 232.37 61.35 232.64 60.55C233.17 58.95 233.94 57.82 234.53 57.11C235.13 56.4 235.54 56.09 235.58 56.13Z" fill="#E1E1E1"/>
<path d="M251.58 60.03L247.1 55.99L242.16 61.46L240.67 60.11L239.77 61.11L241.26 62.46L239.91 63.95L238.42 62.6L237.52 63.6L239.01 64.95L236.31 67.94L237.31 68.84L240.01 65.85L244.49 69.89L245.39 68.89L240.91 64.85L242.26 63.36L245.74 66.5C247.39 67.99 249.93 67.86 251.42 66.21L251.87 65.71C253.35 64.06 253.22 61.52 251.58 60.03ZM250.42 65.31C249.43 66.41 247.73 66.49 246.63 65.5L243.15 62.36L247.19 57.88L250.67 61.02C251.77 62.01 251.85 63.71 250.86 64.81L250.42 65.31Z" fill="#E1E1E1"/>
</svg>
